UbuntuSans-Regular.ufo
<glyph name="exclam" format="2">
  <advance width="275.368"/>
  <unicode hex="0021"/>
  <outline>
    <contour>
      <point x="118" y="214" type="curve"/>
      <point x="158" y="214" type="line"/>
      <point x="169" y="304"/>
      <point x="178" y="388"/>
      <point x="178" y="502" type="curve" smooth="yes"/>
      <point x="178" y="693" type="line"/>
      <point x="98" y="693" type="line"/>
      <point x="98" y="502" type="line" smooth="yes"/>
      <point x="98" y="388"/>
      <point x="106" y="304"/>
    </contour>
    <contour>
      <point x="138" y="-12" type="curve" smooth="yes"/>
      <point x="173" y="-12"/>
      <point x="197" y="14"/>
      <point x="197" y="47" type="curve" smooth="yes"/>
      <point x="197" y="80"/>
      <point x="173" y="106"/>
      <point x="138" y="106" type="curve" smooth="yes"/>
      <point x="102" y="106"/>
      <point x="78" y="80"/>
      <point x="78" y="47" type="curve" smooth="yes"/>
      <point x="78" y="14"/>
      <point x="102" y="-12"/>
    </contour>
  </outline>
</glyph>
<glyph name="numbersign" format="2">
  <advance width="658.244"/>
  <unicode hex="0023"/>
  <outline>
    <contour>
      <point x="105" y="0" type="line"/>
      <point x="174" y="0" type="line"/>
      <point x="210" y="187" type="line"/>
      <point x="387" y="187" type="line"/>
      <point x="351" y="0" type="line"/>
      <point x="420" y="0" type="line"/>
      <point x="456" y="187" type="line"/>
      <point x="610" y="187" type="line"/>
      <point x="610" y="248" type="line"/>
      <point x="467" y="248" type="line"/>
      <point x="505" y="445" type="line"/>
      <point x="610" y="445" type="line"/>
      <point x="610" y="505" type="line"/>
      <point x="517" y="505" type="line"/>
      <point x="553" y="693" type="line"/>
      <point x="484" y="693" type="line"/>
      <point x="448" y="505" type="line"/>
      <point x="271" y="505" type="line"/>
      <point x="307" y="693" type="line"/>
      <point x="238" y="693" type="line"/>
      <point x="202" y="505" type="line"/>
      <point x="48" y="505" type="line"/>
      <point x="48" y="445" type="line"/>
      <point x="190" y="445" type="line"/>
      <point x="153" y="248" type="line"/>
      <point x="48" y="248" type="line"/>
      <point x="48" y="187" type="line"/>
      <point x="141" y="187" type="line"/>
    </contour>
    <contour>
      <point x="221" y="248" type="line"/>
      <point x="260" y="445" type="line"/>
      <point x="437" y="445" type="line"/>
      <point x="399" y="248" type="line"/>
    </contour>
  </outline>
</glyph>
<glyph name="dollar" format="2">
  <advance width="564.456"/>
  <unicode hex="0024"/>
  <outline>
    <contour>
      <point x="251" y="-109" type="line"/>
      <point x="318" y="-109" type="line"/>
      <point x="318" y="22" type="line"/>
      <point x="427" y="31"/>
      <point x="491" y="95"/>
      <point x="491" y="186" type="curve" smooth="yes"/>
      <point x="491" y="302"/>
      <point x="404" y="340"/>
      <point x="305" y="377" type="curve" smooth="yes"/>
      <point x="217" y="409"/>
      <point x="164" y="429"/>
      <point x="164" y="499" type="curve" smooth="yes"/>
      <point x="164" y="563"/>
      <point x="208" y="597"/>
      <point x="300" y="597" type="curve" smooth="yes"/>
      <point x="373" y="597"/>
      <point x="417" y="580"/>
      <point x="442" y="570" type="curve"/>
      <point x="461" y="633" type="line"/>
      <point x="429" y="646"/>
      <point x="381" y="660"/>
      <point x="318" y="661" type="curve"/>
      <point x="318" y="776" type="line"/>
      <point x="251" y="776" type="line"/>
      <point x="251" y="658" type="line"/>
      <point x="138" y="642"/>
      <point x="85" y="586"/>
      <point x="85" y="489" type="curve" smooth="yes"/>
      <point x="85" y="388"/>
      <point x="170" y="351"/>
      <point x="244" y="324" type="curve" smooth="yes"/>
      <point x="344" y="288"/>
      <point x="412" y="264"/>
      <point x="412" y="181" type="curve" smooth="yes"/>
      <point x="412" y="126"/>
      <point x="374" y="83"/>
      <point x="272" y="83" type="curve" smooth="yes"/>
      <point x="177" y="83"/>
      <point x="129" y="105"/>
      <point x="92" y="124" type="curve"/>
      <point x="70" y="61" type="line"/>
      <point x="99" y="44"/>
      <point x="160" y="21"/>
      <point x="251" y="19" type="curve"/>
    </contour>
  </outline>
</glyph>
<glyph name="quotesingle" format="2">
  <advance width="240.798"/>
  <unicode hex="0027"/>
  <outline>
    <contour>
      <point x="100" y="512" type="curve"/>
      <point x="140" y="512" type="line"/>
      <point x="152" y="581"/>
      <point x="161" y="652"/>
      <point x="161" y="718" type="curve"/>
      <point x="161" y="760" type="line"/>
      <point x="80" y="760" type="line"/>
      <point x="80" y="719" type="line"/>
      <point x="80" y="651"/>
      <point x="88" y="581"/>
    </contour>
  </outline>
</glyph>
<glyph name="parenleft" format="2">
  <advance width="315.244"/>
  <unicode hex="0028"/>
  <outline>
    <contour>
      <point x="253" y="-185" type="curve"/>
      <point x="307" y="-149" type="line"/>
      <point x="205" y="-21"/>
      <point x="157" y="123"/>
      <point x="157" y="299" type="curve"/>
      <point x="157" y="475"/>
      <point x="205" y="619"/>
      <point x="307" y="747" type="curve"/>
      <point x="253" y="783" type="line"/>
      <point x="151" y="656"/>
      <point x="82" y="490"/>
      <point x="82" y="299" type="curve" smooth="yes"/>
      <point x="82" y="108"/>
      <point x="151" y="-58"/>
    </contour>
  </outline>
</glyph>
<glyph name="parenright" format="2">
  <advance width="315.244"/>
  <unicode hex="0029"/>
  <outline>
    <contour>
      <point x="62" y="-185" type="line"/>
      <point x="164" y="-58"/>
      <point x="234" y="108"/>
      <point x="234" y="299" type="curve" smooth="yes"/>
      <point x="234" y="490"/>
      <point x="164" y="656"/>
      <point x="62" y="783" type="curve"/>
      <point x="9" y="747" type="line"/>
      <point x="111" y="619"/>
      <point x="158" y="475"/>
      <point x="158" y="299" type="curve"/>
      <point x="158" y="123"/>
      <point x="111" y="-21"/>
      <point x="9" y="-149" type="curve"/>
    </contour>
  </outline>
</glyph>
<glyph name="one" format="2">
  <advance width="564.456"/>
  <unicode hex="0031"/>
  <outline>
    <contour>
      <point x="284" y="0" type="line"/>
      <point x="359" y="0" type="line"/>
      <point x="359" y="693" type="line"/>
      <point x="306" y="693" type="line"/>
      <point x="245" y="620"/>
      <point x="183" y="579"/>
      <point x="103" y="551" type="curve"/>
      <point x="125" y="493" type="line"/>
      <point x="186" y="513"/>
      <point x="255" y="553"/>
      <point x="284" y="583" type="curve"/>
    </contour>
  </outline>
</glyph>
<glyph name="five" format="2">
  <advance width="564.456"/>
  <unicode hex="0035"/>
  <outline>
    <contour>
      <point x="239" y="-15" type="curve"/>
      <point x="407" y="-15"/>
      <point x="486" y="76"/>
      <point x="486" y="195" type="curve" smooth="yes"/>
      <point x="486" y="329"/>
      <point x="395" y="415"/>
      <point x="191" y="421" type="curve"/>
      <point x="197" y="465"/>
      <point x="205" y="578"/>
      <point x="207" y="628" type="curve"/>
      <point x="462" y="628" type="line"/>
      <point x="462" y="693" type="line"/>
      <point x="143" y="693" type="line"/>
      <point x="139" y="585"/>
      <point x="134" y="492"/>
      <point x="118" y="359" type="curve"/>
      <point x="347" y="359"/>
      <point x="407" y="297"/>
      <point x="407" y="193" type="curve" smooth="yes"/>
      <point x="407" y="115"/>
      <point x="367" y="53"/>
      <point x="238" y="53" type="curve" smooth="yes"/>
      <point x="165" y="53"/>
      <point x="105" y="77"/>
      <point x="86" y="87" type="curve"/>
      <point x="68" y="22" type="line"/>
      <point x="88" y="11"/>
      <point x="155" y="-15"/>
    </contour>
  </outline>
</glyph>
<glyph name="question" format="2">
  <advance width="388.55"/>
  <unicode hex="003F"/>
  <outline>
    <contour>
      <point x="125" y="214" type="curve"/>
      <point x="186" y="214" type="line"/>
      <point x="185" y="221"/>
      <point x="185" y="227"/>
      <point x="185" y="241" type="curve"/>
      <point x="185" y="371"/>
      <point x="361" y="413"/>
      <point x="361" y="555" type="curve" smooth="yes"/>
      <point x="361" y="626"/>
      <point x="318" y="708"/>
      <point x="173" y="708" type="curve" smooth="yes"/>
      <point x="109" y="708"/>
      <point x="51" y="690"/>
      <point x="20" y="672" type="curve"/>
      <point x="42" y="611" type="line"/>
      <point x="80" y="632"/>
      <point x="120" y="642"/>
      <point x="166" y="642" type="curve"/>
      <point x="229" y="642"/>
      <point x="281" y="622"/>
      <point x="281" y="551" type="curve" smooth="yes"/>
      <point x="281" y="434"/>
      <point x="121" y="395"/>
      <point x="121" y="259" type="curve" smooth="yes"/>
      <point x="121" y="243"/>
      <point x="122" y="227"/>
    </contour>
    <contour>
      <point x="160" y="-12" type="curve" smooth="yes"/>
      <point x="196" y="-12"/>
      <point x="220" y="14"/>
      <point x="220" y="47" type="curve" smooth="yes"/>
      <point x="220" y="80"/>
      <point x="196" y="106"/>
      <point x="160" y="106" type="curve" smooth="yes"/>
      <point x="125" y="106"/>
      <point x="101" y="80"/>
      <point x="101" y="47" type="curve" smooth="yes"/>
      <point x="101" y="14"/>
      <point x="125" y="-12"/>
    </contour>
  </outline>
</glyph>
<glyph name="D" format="2">
  <advance width="705.99"/>
  <unicode hex="0044"/>
  <anchor x="353" y="0" name="bottom"/>
  <anchor x="353" y="347" name="center"/>
  <anchor x="351" y="673" name="top"/>
  <outline>
    <contour>
      <point x="262" y="-6" type="curve" smooth="yes"/>
      <point x="489" y="-6"/>
      <point x="645" y="111"/>
      <point x="645" y="347" type="curve" smooth="yes"/>
      <point x="645" y="584"/>
      <point x="488" y="699"/>
      <point x="263" y="699" type="curve" smooth="yes"/>
      <point x="207" y="699"/>
      <point x="138" y="693"/>
      <point x="89" y="680" type="curve"/>
      <point x="89" y="12" type="line"/>
      <point x="138" y="-1"/>
      <point x="206" y="-6"/>
    </contour>
    <contour>
      <point x="270" y="61" type="curve" smooth="yes"/>
      <point x="203" y="61"/>
      <point x="176" y="67"/>
      <point x="167" y="68" type="curve"/>
      <point x="167" y="625" type="line"/>
      <point x="176" y="626"/>
      <point x="205" y="632"/>
      <point x="271" y="632" type="curve" smooth="yes"/>
      <point x="465" y="632"/>
      <point x="563" y="524"/>
      <point x="563" y="347" type="curve" smooth="yes"/>
      <point x="563" y="170"/>
      <point x="464" y="61"/>
    </contour>
  </outline>
</glyph>
<glyph name="G" format="2">
  <advance width="663.016"/>
  <unicode hex="0047"/>
  <anchor x="332" y="0" name="bottom"/>
  <anchor x="370" y="673" name="top"/>
  <outline>
    <contour>
      <point x="381" y="-14" type="curve" smooth="yes"/>
      <point x="490" y="-14"/>
      <point x="569" y="8"/>
      <point x="595" y="19" type="curve"/>
      <point x="595" y="332" type="line"/>
      <point x="517" y="332" type="line"/>
      <point x="517" y="69" type="line"/>
      <point x="501" y="63"/>
      <point x="456" y="54"/>
      <point x="392" y="54" type="curve" smooth="yes"/>
      <point x="227" y="54"/>
      <point x="143" y="169"/>
      <point x="143" y="347" type="curve" smooth="yes"/>
      <point x="143" y="538"/>
      <point x="249" y="639"/>
      <point x="389" y="639" type="curve" smooth="yes"/>
      <point x="462" y="639"/>
      <point x="529" y="620"/>
      <point x="567" y="594" type="curve"/>
      <point x="592" y="660" type="line"/>
      <point x="563" y="679"/>
      <point x="494" y="708"/>
      <point x="389" y="708" type="curve" smooth="yes"/>
      <point x="209" y="708"/>
      <point x="61" y="579"/>
      <point x="61" y="347" type="curve" smooth="yes"/>
      <point x="61" y="115"/>
      <point x="196" y="-14"/>
    </contour>
  </outline>
</glyph>
<glyph name="N" format="2">
  <advance width="714.358"/>
  <unicode hex="004E"/>
  <anchor x="358" y="0" name="bottom"/>
  <anchor x="358" y="673" name="top"/>
  <outline>
    <contour>
      <point x="89" y="0" type="line"/>
      <point x="166" y="0" type="line"/>
      <point x="166" y="569" type="line"/>
      <point x="284" y="432"/>
      <point x="482" y="141"/>
      <point x="560" y="0" type="curve"/>
      <point x="625" y="0" type="line"/>
      <point x="625" y="693" type="line"/>
      <point x="548" y="693" type="line"/>
      <point x="548" y="147" type="line"/>
      <point x="464" y="294"/>
      <point x="283" y="548"/>
      <point x="151" y="693" type="curve"/>
      <point x="89" y="693" type="line"/>
    </contour>
  </outline>
</glyph>
<glyph name="P" format="2">
  <advance width="597.928"/>
  <unicode hex="0050"/>
  <anchor x="299" y="0" name="bottom"/>
  <anchor x="299" y="693" name="top"/>
  <outline>
    <contour>
      <point x="89" y="0" type="line"/>
      <point x="167" y="0" type="line"/>
      <point x="167" y="264" type="line"/>
      <point x="256" y="264" type="line" smooth="yes"/>
      <point x="447" y="264"/>
      <point x="562" y="323"/>
      <point x="562" y="482" type="curve" smooth="yes"/>
      <point x="562" y="621"/>
      <point x="464" y="699"/>
      <point x="268" y="699" type="curve" smooth="yes"/>
      <point x="212" y="699"/>
      <point x="139" y="693"/>
      <point x="89" y="680" type="curve"/>
    </contour>
    <contour>
      <point x="167" y="331" type="line"/>
      <point x="167" y="625" type="line"/>
      <point x="191" y="628"/>
      <point x="224" y="632"/>
      <point x="271" y="632" type="curve" smooth="yes"/>
      <point x="379" y="632"/>
      <point x="481" y="600"/>
      <point x="481" y="483" type="curve" smooth="yes"/>
      <point x="481" y="360"/>
      <point x="390" y="331"/>
      <point x="249" y="331" type="curve" smooth="yes"/>
    </contour>
  </outline>
</glyph>
<glyph name="V" format="2">
  <advance width="635.172"/>
  <unicode hex="0056"/>
  <anchor x="318" y="0" name="bottom"/>
  <anchor x="318" y="693" name="top"/>
  <outline>
    <contour>
      <point x="282" y="0" type="curve"/>
      <point x="354" y="0" type="line"/>
      <point x="440" y="189"/>
      <point x="510" y="363"/>
      <point x="625" y="693" type="curve"/>
      <point x="542" y="693" type="line"/>
      <point x="466" y="465"/>
      <point x="399" y="276"/>
      <point x="320" y="92" type="curve"/>
      <point x="239" y="279"/>
      <point x="175" y="465"/>
      <point x="97" y="693" type="curve"/>
      <point x="10" y="693" type="line"/>
      <point x="126" y="363"/>
      <point x="196" y="189"/>
    </contour>
  </outline>
</glyph>
<glyph name="X" format="2">
  <advance width="616"/>
  <unicode hex="0058"/>
  <anchor x="308" y="0" name="bottom"/>
  <anchor x="308" y="693" name="top"/>
  <outline>
    <contour>
      <point x="25" y="0" type="curve"/>
      <point x="108" y="0" type="line"/>
      <point x="146" y="76"/>
      <point x="238" y="215"/>
      <point x="305" y="309" type="curve"/>
      <point x="375" y="211"/>
      <point x="462" y="79"/>
      <point x="501" y="0" type="curve"/>
      <point x="588" y="0" type="line"/>
      <point x="529" y="117"/>
      <point x="442" y="242"/>
      <point x="353" y="367" type="curve"/>
      <point x="576" y="693" type="line"/>
      <point x="488" y="693" type="line"/>
      <point x="308" y="421" type="line"/>
      <point x="127" y="693" type="line"/>
      <point x="36" y="693" type="line"/>
      <point x="259" y="365" type="line"/>
      <point x="173" y="244"/>
      <point x="86" y="120"/>
    </contour>
  </outline>
</glyph>
<glyph name="d" format="2">
  <advance width="585.394"/>
  <unicode hex="0064"/>
  <anchor x="293" y="0" name="bottom"/>
  <anchor x="293" y="259" name="center"/>
  <anchor x="293" y="776" name="top"/>
  <anchor x="565" y="776" name="topright"/>
  <outline>
    <contour>
      <point x="310" y="-12" type="curve" smooth="yes"/>
      <point x="399" y="-12"/>
      <point x="462" y="3"/>
      <point x="501" y="16" type="curve"/>
      <point x="501" y="776" type="line"/>
      <point x="427" y="763" type="line"/>
      <point x="427" y="489" type="line"/>
      <point x="403" y="506"/>
      <point x="352" y="529"/>
      <point x="288" y="529" type="curve" smooth="yes"/>
      <point x="139" y="529"/>
      <point x="54" y="418"/>
      <point x="54" y="258" type="curve" smooth="yes"/>
      <point x="54" y="90"/>
      <point x="157" y="-12"/>
    </contour>
    <contour>
      <point x="311" y="55" type="curve" smooth="yes"/>
      <point x="204" y="55"/>
      <point x="132" y="129"/>
      <point x="132" y="259" type="curve"/>
      <point x="132" y="372"/>
      <point x="175" y="462"/>
      <point x="296" y="462" type="curve" smooth="yes"/>
      <point x="354" y="462"/>
      <point x="404" y="437"/>
      <point x="427" y="419" type="curve"/>
      <point x="427" y="68" type="line"/>
      <point x="407" y="62"/>
      <point x="370" y="55"/>
    </contour>
  </outline>
</glyph>
<glyph name="k" format="2">
  <advance width="504.576"/>
  <unicode hex="006B"/>
  <anchor x="274" y="0" name="bottom"/>
  <anchor x="253" y="776" name="top"/>
  <outline>
    <contour>
      <point x="84" y="0" type="line"/>
      <point x="159" y="0" type="line"/>
      <point x="159" y="257" type="line"/>
      <point x="236" y="206"/>
      <point x="339" y="102"/>
      <point x="400" y="0" type="curve"/>
      <point x="487" y="0" type="line"/>
      <point x="432" y="96"/>
      <point x="322" y="224"/>
      <point x="238" y="283" type="curve"/>
      <point x="308" y="351"/>
      <point x="406" y="453"/>
      <point x="467" y="518" type="curve"/>
      <point x="378" y="518" type="line"/>
      <point x="328" y="460"/>
      <point x="224" y="354"/>
      <point x="159" y="290" type="curve"/>
      <point x="159" y="776" type="line"/>
      <point x="84" y="763" type="line"/>
    </contour>
  </outline>
</glyph>
<glyph name="m" format="2">
  <advance width="862.886"/>
  <unicode hex="006D"/>
  <anchor x="432" y="0" name="bottom"/>
  <anchor x="432" y="518" name="top"/>
  <outline>
    <contour>
      <point x="84" y="0" type="line"/>
      <point x="159" y="0" type="line"/>
      <point x="159" y="449" type="line"/>
      <point x="172" y="453"/>
      <point x="215" y="462"/>
      <point x="273" y="462" type="curve" smooth="yes"/>
      <point x="378" y="462"/>
      <point x="397" y="400"/>
      <point x="397" y="269" type="curve" smooth="yes"/>
      <point x="397" y="0" type="line"/>
      <point x="472" y="0" type="line"/>
      <point x="472" y="293" type="line" smooth="yes"/>
      <point x="472" y="340"/>
      <point x="466" y="384"/>
      <point x="454" y="417" type="curve"/>
      <point x="469" y="429"/>
      <point x="515" y="462"/>
      <point x="589" y="462" type="curve" smooth="yes"/>
      <point x="691" y="462"/>
      <point x="710" y="400"/>
      <point x="710" y="269" type="curve"/>
      <point x="710" y="0" type="line"/>
      <point x="785" y="0" type="line"/>
      <point x="785" y="290" type="line" smooth="yes"/>
      <point x="785" y="429"/>
      <point x="755" y="528"/>
      <point x="596" y="528" type="curve" smooth="yes"/>
      <point x="506" y="528"/>
      <point x="443" y="486"/>
      <point x="425" y="472" type="curve"/>
      <point x="396" y="509"/>
      <point x="348" y="528"/>
      <point x="282" y="528" type="curve" smooth="yes"/>
      <point x="187" y="528"/>
      <point x="125" y="511"/>
      <point x="84" y="500" type="curve"/>
    </contour>
  </outline>
</glyph>
<glyph name="o" format="2">
  <advance width="584.85"/>
  <unicode hex="006F"/>
  <anchor x="292" y="0" name="bottom"/>
  <anchor x="292" y="259" name="center"/>
  <anchor x="527" y="10" name="ogonek"/>
  <anchor x="292" y="518" name="top"/>
  <anchor x="565" y="518" name="topright"/>
  <outline>
    <contour>
      <point x="292" y="-12" type="curve" smooth="yes"/>
      <point x="433" y="-12"/>
      <point x="531" y="95"/>
      <point x="531" y="259" type="curve" smooth="yes"/>
      <point x="531" y="422"/>
      <point x="432" y="530"/>
      <point x="292" y="530" type="curve" smooth="yes"/>
      <point x="153" y="530"/>
      <point x="54" y="422"/>
      <point x="54" y="259" type="curve" smooth="yes"/>
      <point x="54" y="95"/>
      <point x="153" y="-12"/>
    </contour>
    <contour>
      <point x="292" y="55" type="curve" smooth="yes"/>
      <point x="194" y="55"/>
      <point x="132" y="134"/>
      <point x="132" y="259" type="curve" smooth="yes"/>
      <point x="132" y="383"/>
      <point x="194" y="463"/>
      <point x="292" y="463" type="curve" smooth="yes"/>
      <point x="391" y="463"/>
      <point x="453" y="383"/>
      <point x="453" y="259" type="curve" smooth="yes"/>
      <point x="453" y="134"/>
      <point x="391" y="55"/>
    </contour>
  </outline>
</glyph>
<glyph name="w" format="2">
  <advance width="776.026"/>
  <unicode hex="0077"/>
  <anchor x="388" y="0" name="bottom"/>
  <anchor x="390" y="518" name="top"/>
  <outline>
    <contour>
      <point x="194" y="0" type="curve"/>
      <point x="262" y="0" type="line"/>
      <point x="300" y="94"/>
      <point x="351" y="232"/>
      <point x="388" y="377" type="curve"/>
      <point x="426" y="232"/>
      <point x="477" y="94"/>
      <point x="515" y="0" type="curve"/>
      <point x="582" y="0" type="line"/>
      <point x="648" y="146"/>
      <point x="705" y="315"/>
      <point x="755" y="518" type="curve"/>
      <point x="680" y="518" type="line"/>
      <point x="651" y="383"/>
      <point x="593" y="189"/>
      <point x="549" y="85" type="curve"/>
      <point x="499" y="217"/>
      <point x="447" y="390"/>
      <point x="422" y="518" type="curve"/>
      <point x="360" y="518" type="line"/>
      <point x="332" y="390"/>
      <point x="282" y="218"/>
      <point x="232" y="86" type="curve"/>
      <point x="188" y="189"/>
      <point x="130" y="383"/>
      <point x="101" y="518" type="curve"/>
      <point x="22" y="518" type="line"/>
      <point x="71" y="315"/>
      <point x="129" y="146"/>
    </contour>
  </outline>
</glyph>
<glyph name="x" format="2">
  <advance width="505.27"/>
  <unicode hex="0078"/>
  <anchor x="253" y="0" name="bottom"/>
  <anchor x="253" y="518" name="top"/>
  <outline>
    <contour>
      <point x="26" y="0" type="curve"/>
      <point x="103" y="0" type="line"/>
      <point x="133" y="58"/>
      <point x="195" y="154"/>
      <point x="251" y="228" type="curve"/>
      <point x="306" y="153"/>
      <point x="369" y="57"/>
      <point x="399" y="0" type="curve"/>
      <point x="479" y="0" type="line"/>
      <point x="430" y="97"/>
      <point x="357" y="200"/>
      <point x="298" y="277" type="curve"/>
      <point x="464" y="518" type="line"/>
      <point x="384" y="518" type="line"/>
      <point x="252" y="324" type="line"/>
      <point x="121" y="518" type="line"/>
      <point x="35" y="518" type="line"/>
      <point x="205" y="274" type="line"/>
      <point x="142" y="189"/>
      <point x="78" y="98"/>
    </contour>
  </outline>
</glyph>
<glyph name="y" format="2">
  <advance width="482.322"/>
  <unicode hex="0079"/>
  <anchor x="241" y="0" name="bottom"/>
  <anchor x="241" y="518" name="top"/>
  <outline>
    <contour>
      <point x="77" y="-188" type="curve" smooth="yes"/>
      <point x="195" y="-188"/>
      <point x="243" y="-136"/>
      <point x="294" y="-16" type="curve" smooth="yes"/>
      <point x="360" y="137"/>
      <point x="416" y="325"/>
      <point x="461" y="518" type="curve"/>
      <point x="386" y="518" type="line"/>
      <point x="348" y="351"/>
      <point x="317" y="227"/>
      <point x="261" y="70" type="curve"/>
      <point x="186" y="224"/>
      <point x="128" y="393"/>
      <point x="98" y="518" type="curve"/>
      <point x="19" y="518" type="line"/>
      <point x="63" y="342"/>
      <point x="139" y="151"/>
      <point x="225" y="-7" type="curve"/>
      <point x="191" y="-95"/>
      <point x="152" y="-125"/>
      <point x="79" y="-125" type="curve" smooth="yes"/>
      <point x="53" y="-125"/>
      <point x="24" y="-115"/>
      <point x="16" y="-111" type="curve"/>
      <point x="1" y="-172" type="line"/>
      <point x="10" y="-177"/>
      <point x="43" y="-188"/>
    </contour>
  </outline>
</glyph>
<glyph name="braceleft" format="2">
  <advance width="324.928"/>
  <unicode hex="007B"/>
  <outline>
    <contour>
      <point x="307" y="-195" type="curve" smooth="yes"/>
      <point x="317" y="-195" type="line"/>
      <point x="317" y="-137" type="line"/>
      <point x="309" y="-137" type="line"/>
      <point x="210" y="-136"/>
      <point x="208" y="-97"/>
      <point x="208" y="19" type="curve" smooth="yes"/>
      <point x="208" y="129" type="line" smooth="yes"/>
      <point x="208" y="224"/>
      <point x="183" y="265"/>
      <point x="139" y="290" type="curve"/>
      <point x="183" y="315"/>
      <point x="208" y="355"/>
      <point x="208" y="451" type="curve" smooth="yes"/>
      <point x="208" y="561" type="line" smooth="yes"/>
      <point x="208" y="676"/>
      <point x="210" y="716"/>
      <point x="309" y="716" type="curve" smooth="yes"/>
      <point x="317" y="716" type="line"/>
      <point x="317" y="774" type="line"/>
      <point x="307" y="774" type="line"/>
      <point x="174" y="774"/>
      <point x="137" y="714"/>
      <point x="137" y="606" type="curve" smooth="yes"/>
      <point x="137" y="417" type="line"/>
      <point x="137" y="369"/>
      <point x="107" y="318"/>
      <point x="42" y="318" type="curve"/>
      <point x="42" y="261" type="line"/>
      <point x="107" y="261"/>
      <point x="137" y="211"/>
      <point x="137" y="163" type="curve" smooth="yes"/>
      <point x="137" y="-26" type="line" smooth="yes"/>
      <point x="137" y="-135"/>
      <point x="174" y="-195"/>
    </contour>
  </outline>
</glyph>
<glyph name="cent" format="2">
  <advance width="564.456"/>
  <unicode hex="00A2"/>
  <outline>
    <contour>
      <point x="295" y="-109" type="line"/>
      <point x="363" y="-109" type="line"/>
      <point x="363" y="31" type="line"/>
      <point x="413" y="33"/>
      <point x="468" y="46"/>
      <point x="486" y="57" type="curve"/>
      <point x="473" y="118" type="line"/>
      <point x="454" y="109"/>
      <point x="413" y="96"/>
      <point x="360" y="96" type="curve" smooth="yes"/>
      <point x="230" y="96"/>
      <point x="178" y="176"/>
      <point x="178" y="290" type="curve" smooth="yes"/>
      <point x="178" y="421"/>
      <point x="239" y="489"/>
      <point x="350" y="489" type="curve" smooth="yes"/>
      <point x="391" y="489"/>
      <point x="430" y="478"/>
      <point x="458" y="466" type="curve"/>
      <point x="477" y="528" type="line"/>
      <point x="441" y="543"/>
      <point x="404" y="552"/>
      <point x="363" y="553" type="curve"/>
      <point x="363" y="693" type="line"/>
      <point x="295" y="693" type="line"/>
      <point x="295" y="550" type="line"/>
      <point x="173" y="529"/>
      <point x="100" y="424"/>
      <point x="100" y="290" type="curve" smooth="yes"/>
      <point x="100" y="157"/>
      <point x="167" y="56"/>
      <point x="295" y="34" type="curve"/>
    </contour>
  </outline>
</glyph>
<glyph name="sterling" format="2">
  <advance width="564.456"/>
  <unicode hex="00A3"/>
  <outline>
    <contour>
      <point x="133" y="0" type="curve"/>
      <point x="517" y="0" type="line"/>
      <point x="517" y="65" type="line"/>
      <point x="219" y="65" type="line"/>
      <point x="231" y="142"/>
      <point x="235" y="222"/>
      <point x="235" y="297" type="curve" smooth="yes"/>
      <point x="235" y="305" type="line"/>
      <point x="432" y="305" type="line"/>
      <point x="432" y="367" type="line"/>
      <point x="235" y="367" type="line"/>
      <point x="235" y="468" type="line"/>
      <point x="235" y="600"/>
      <point x="282" y="638"/>
      <point x="363" y="638" type="curve" smooth="yes"/>
      <point x="408" y="638"/>
      <point x="446" y="629"/>
      <point x="478" y="612" type="curve"/>
      <point x="498" y="678" type="line"/>
      <point x="467" y="692"/>
      <point x="423" y="706"/>
      <point x="368" y="706" type="curve" smooth="yes"/>
      <point x="246" y="706"/>
      <point x="160" y="657"/>
      <point x="160" y="459" type="curve" smooth="yes"/>
      <point x="160" y="367" type="line"/>
      <point x="65" y="367" type="line"/>
      <point x="65" y="305" type="line"/>
      <point x="160" y="305" type="line"/>
      <point x="160" y="294" type="line" smooth="yes"/>
      <point x="159" y="188"/>
      <point x="148" y="93"/>
    </contour>
  </outline>
</glyph>
<glyph name="currency" format="2">
  <advance width="564.456"/>
  <unicode hex="00A4"/>
  <outline>
    <contour>
      <point x="99" y="113" type="line"/>
      <point x="174" y="190" type="line"/>
      <point x="205" y="169"/>
      <point x="242" y="157"/>
      <point x="282" y="157" type="curve" smooth="yes"/>
      <point x="323" y="157"/>
      <point x="359" y="169"/>
      <point x="390" y="190" type="curve"/>
      <point x="466" y="113" type="line"/>
      <point x="512" y="160" type="line"/>
      <point x="438" y="235" type="line"/>
      <point x="459" y="265"/>
      <point x="472" y="304"/>
      <point x="472" y="347" type="curve" smooth="yes"/>
      <point x="472" y="390"/>
      <point x="459" y="429"/>
      <point x="438" y="459" type="curve"/>
      <point x="512" y="534" type="line"/>
      <point x="466" y="581" type="line"/>
      <point x="390" y="504" type="line"/>
      <point x="359" y="525"/>
      <point x="322" y="537"/>
      <point x="282" y="537" type="curve" smooth="yes"/>
      <point x="242" y="537"/>
      <point x="205" y="525"/>
      <point x="174" y="504" type="curve"/>
      <point x="99" y="581" type="line"/>
      <point x="52" y="534" type="line"/>
      <point x="126" y="459" type="line"/>
      <point x="105" y="429"/>
      <point x="93" y="390"/>
      <point x="93" y="347" type="curve" smooth="yes"/>
      <point x="93" y="304"/>
      <point x="105" y="265"/>
      <point x="126" y="235" type="curve"/>
      <point x="52" y="160" type="line"/>
    </contour>
    <contour>
      <point x="282" y="217" type="curve" smooth="yes"/>
      <point x="213" y="217"/>
      <point x="159" y="269"/>
      <point x="159" y="347" type="curve" smooth="yes"/>
      <point x="159" y="425"/>
      <point x="213" y="477"/>
      <point x="282" y="477" type="curve" smooth="yes"/>
      <point x="351" y="477"/>
      <point x="406" y="425"/>
      <point x="406" y="347" type="curve" smooth="yes"/>
      <point x="406" y="269"/>
      <point x="351" y="217"/>
    </contour>
  </outline>
</glyph>
<glyph name="yen" format="2">
  <advance width="564.456"/>
  <unicode hex="00A5"/>
  <outline>
    <contour>
      <point x="245" y="0" type="line"/>
      <point x="320" y="0" type="line"/>
      <point x="320" y="115" type="line"/>
      <point x="481" y="115" type="line"/>
      <point x="481" y="173" type="line"/>
      <point x="320" y="173" type="line"/>
      <point x="320" y="286" type="line"/>
      <point x="481" y="286" type="line"/>
      <point x="481" y="344" type="line"/>
      <point x="336" y="344" type="line"/>
      <point x="413" y="465"/>
      <point x="481" y="579"/>
      <point x="538" y="693" type="curve"/>
      <point x="460" y="693" type="line"/>
      <point x="409" y="585"/>
      <point x="349" y="476"/>
      <point x="284" y="376" type="curve"/>
      <point x="219" y="476"/>
      <point x="158" y="585"/>
      <point x="107" y="693" type="curve"/>
      <point x="27" y="693" type="line"/>
      <point x="82" y="581"/>
      <point x="151" y="464"/>
      <point x="227" y="344" type="curve"/>
      <point x="84" y="344" type="line"/>
      <point x="84" y="286" type="line"/>
      <point x="245" y="286" type="line"/>
      <point x="245" y="173" type="line"/>
      <point x="84" y="173" type="line"/>
      <point x="84" y="115" type="line"/>
      <point x="245" y="115" type="line"/>
    </contour>
  </outline>
</glyph>
<glyph name="ordfeminine" format="2">
  <advance width="387.482"/>
  <unicode hex="00AA"/>
  <outline>
    <contour>
      <point x="196" y="329" type="curve" smooth="yes"/>
      <point x="236" y="329"/>
      <point x="295" y="336"/>
      <point x="328" y="344" type="curve"/>
      <point x="328" y="570" type="line" smooth="yes"/>
      <point x="328" y="650"/>
      <point x="292" y="704"/>
      <point x="189" y="704" type="curve" smooth="yes"/>
      <point x="146" y="704"/>
      <point x="106" y="697"/>
      <point x="84" y="690" type="curve"/>
      <point x="92" y="639" type="line"/>
      <point x="119" y="648"/>
      <point x="153" y="651"/>
      <point x="188" y="651" type="curve" smooth="yes"/>
      <point x="261" y="651"/>
      <point x="268" y="603"/>
      <point x="268" y="557" type="curve" smooth="yes"/>
      <point x="268" y="548" type="line"/>
      <point x="243" y="553"/>
      <point x="218" y="556"/>
      <point x="202" y="556" type="curve" smooth="yes"/>
      <point x="115" y="556"/>
      <point x="43" y="524"/>
      <point x="43" y="442" type="curve" smooth="yes"/>
      <point x="43" y="363"/>
      <point x="105" y="329"/>
    </contour>
    <contour>
      <point x="196" y="381" type="curve" smooth="yes"/>
      <point x="128" y="381"/>
      <point x="105" y="404"/>
      <point x="105" y="446" type="curve" smooth="yes"/>
      <point x="105" y="493"/>
      <point x="151" y="506"/>
      <point x="206" y="506" type="curve" smooth="yes"/>
      <point x="229" y="506"/>
      <point x="252" y="504"/>
      <point x="268" y="501" type="curve"/>
      <point x="268" y="385" type="line"/>
      <point x="254" y="383"/>
      <point x="224" y="381"/>
    </contour>
  </outline>
</glyph>
<glyph name="registered" format="2">
  <advance width="558"/>
  <unicode hex="00AE"/>
  <outline>
    <contour>
      <point x="278" y="261" type="curve" smooth="yes"/>
      <point x="403" y="261"/>
      <point x="515" y="351"/>
      <point x="515" y="505" type="curve"/>
      <point x="515" y="658"/>
      <point x="403" y="748"/>
      <point x="278" y="748" type="curve"/>
      <point x="154" y="748"/>
      <point x="42" y="658"/>
      <point x="42" y="505" type="curve" smooth="yes"/>
      <point x="42" y="352"/>
      <point x="154" y="261"/>
    </contour>
    <contour>
      <point x="278" y="314" type="curve" smooth="yes"/>
      <point x="174" y="314"/>
      <point x="100" y="391"/>
      <point x="100" y="505" type="curve"/>
      <point x="100" y="618"/>
      <point x="174" y="694"/>
      <point x="278" y="694" type="curve" smooth="yes"/>
      <point x="382" y="694"/>
      <point x="457" y="619"/>
      <point x="457" y="505" type="curve"/>
      <point x="457" y="390"/>
      <point x="382" y="314"/>
    </contour>
    <contour>
      <point x="187" y="383" type="line"/>
      <point x="242" y="383" type="line"/>
      <point x="242" y="472" type="line"/>
      <point x="268" y="472" type="line"/>
      <point x="272" y="472"/>
      <point x="277" y="472"/>
      <point x="281" y="472" type="curve"/>
      <point x="298" y="450"/>
      <point x="313" y="423"/>
      <point x="334" y="383" type="curve"/>
      <point x="392" y="383" type="line"/>
      <point x="373" y="424"/>
      <point x="350" y="463"/>
      <point x="333" y="486" type="curve"/>
      <point x="359" y="498"/>
      <point x="377" y="520"/>
      <point x="377" y="551" type="curve" smooth="yes"/>
      <point x="377" y="606"/>
      <point x="337" y="634"/>
      <point x="263" y="634" type="curve" smooth="yes"/>
      <point x="244" y="634"/>
      <point x="217" y="632"/>
      <point x="187" y="625" type="curve"/>
    </contour>
    <contour>
      <point x="242" y="516" type="line"/>
      <point x="242" y="585" type="line"/>
      <point x="250" y="586"/>
      <point x="255" y="587"/>
      <point x="268" y="587" type="curve" smooth="yes"/>
      <point x="296" y="587"/>
      <point x="320" y="579"/>
      <point x="320" y="552" type="curve" smooth="yes"/>
      <point x="320" y="524"/>
      <point x="299" y="516"/>
      <point x="262" y="516" type="curve" smooth="yes"/>
    </contour>
  </outline>
</glyph>
<glyph name="ordmasculine" format="2">
  <advance width="439.28"/>
  <unicode hex="00BA"/>
  <outline>
    <contour>
      <point x="219" y="328" type="curve" smooth="yes"/>
      <point x="321" y="328"/>
      <point x="395" y="403"/>
      <point x="395" y="517" type="curve" smooth="yes"/>
      <point x="395" y="630"/>
      <point x="321" y="705"/>
      <point x="219" y="705" type="curve" smooth="yes"/>
      <point x="118" y="705"/>
      <point x="45" y="630"/>
      <point x="45" y="517" type="curve" smooth="yes"/>
      <point x="45" y="403"/>
      <point x="118" y="328"/>
    </contour>
    <contour>
      <point x="219" y="383" type="curve" smooth="yes"/>
      <point x="153" y="383"/>
      <point x="110" y="435"/>
      <point x="110" y="517" type="curve" smooth="yes"/>
      <point x="110" y="597"/>
      <point x="153" y="651"/>
      <point x="219" y="651" type="curve" smooth="yes"/>
      <point x="286" y="651"/>
      <point x="329" y="597"/>
      <point x="329" y="517" type="curve" smooth="yes"/>
      <point x="329" y="435"/>
      <point x="286" y="383"/>
    </contour>
  </outline>
</glyph>
<glyph name="Thorn" format="2">
  <advance width="598.814"/>
  <unicode hex="00DE"/>
  <anchor x="300" y="0" name="bottom"/>
  <anchor x="300" y="693" name="top"/>
  <outline>
    <contour>
      <point x="89" y="0" type="line"/>
      <point x="167" y="0" type="line"/>
      <point x="167" y="143" type="line"/>
      <point x="256" y="143" type="line" smooth="yes"/>
      <point x="447" y="143"/>
      <point x="562" y="202"/>
      <point x="562" y="361" type="curve" smooth="yes"/>
      <point x="562" y="501"/>
      <point x="463" y="578"/>
      <point x="268" y="578" type="curve" smooth="yes"/>
      <point x="237" y="578"/>
      <point x="189" y="576"/>
      <point x="167" y="573" type="curve"/>
      <point x="167" y="693" type="line"/>
      <point x="89" y="693" type="line"/>
    </contour>
    <contour>
      <point x="167" y="210" type="line"/>
      <point x="167" y="505" type="line"/>
      <point x="189" y="508"/>
      <point x="224" y="511"/>
      <point x="270" y="511" type="curve" smooth="yes"/>
      <point x="379" y="511"/>
      <point x="481" y="479"/>
      <point x="481" y="362" type="curve" smooth="yes"/>
      <point x="481" y="239"/>
      <point x="390" y="210"/>
      <point x="249" y="210" type="curve" smooth="yes"/>
    </contour>
  </outline>
</glyph>
<glyph name="germandbls" format="2">
  <advance width="603.182"/>
  <unicode hex="00DF"/>
  <anchor x="302" y="0" name="bottom"/>
  <anchor x="302" y="776" name="top"/>
  <outline>
    <contour>
      <point x="374" y="-12" type="curve" smooth="yes"/>
      <point x="497" y="-12"/>
      <point x="569" y="46"/>
      <point x="569" y="147" type="curve" smooth="yes"/>
      <point x="569" y="251"/>
      <point x="508" y="286"/>
      <point x="431" y="323" type="curve"/>
      <point x="395" y="341"/>
      <point x="355" y="358"/>
      <point x="355" y="396" type="curve"/>
      <point x="355" y="426"/>
      <point x="370" y="442"/>
      <point x="406" y="480" type="curve"/>
      <point x="433" y="508"/>
      <point x="481" y="550"/>
      <point x="481" y="618" type="curve" smooth="yes"/>
      <point x="481" y="711"/>
      <point x="422" y="776"/>
      <point x="289" y="776" type="curve" smooth="yes"/>
      <point x="163" y="776"/>
      <point x="84" y="691"/>
      <point x="84" y="560" type="curve" smooth="yes"/>
      <point x="84" y="0" type="line"/>
      <point x="158" y="0" type="line"/>
      <point x="158" y="557" type="line"/>
      <point x="158" y="651"/>
      <point x="199" y="710"/>
      <point x="297" y="710" type="curve" smooth="yes"/>
      <point x="364" y="710"/>
      <point x="408" y="671"/>
      <point x="408" y="613" type="curve"/>
      <point x="408" y="566"/>
      <point x="384" y="544"/>
      <point x="345" y="503" type="curve"/>
      <point x="311" y="467"/>
      <point x="280" y="435"/>
      <point x="280" y="389" type="curve" smooth="yes"/>
      <point x="280" y="332"/>
      <point x="302" y="311"/>
      <point x="389" y="266" type="curve"/>
      <point x="462" y="229"/>
      <point x="493" y="203"/>
      <point x="493" y="147" type="curve" smooth="yes"/>
      <point x="493" y="89"/>
      <point x="453" y="52"/>
      <point x="384" y="52" type="curve" smooth="yes"/>
      <point x="312" y="52"/>
      <point x="270" y="74"/>
      <point x="259" y="81" type="curve"/>
      <point x="243" y="14" type="line"/>
      <point x="258" y="7"/>
      <point x="308" y="-12"/>
    </contour>
  </outline>
</glyph>
<glyph name="ccedilla" format="2">
  <advance width="464.56"/>
  <unicode hex="00E7"/>
  <outline>
    <contour>
      <point x="256" y="-191" type="curve" smooth="yes"/>
      <point x="336" y="-191"/>
      <point x="358" y="-150"/>
      <point x="358" y="-113" type="curve" smooth="yes"/>
      <point x="358" y="-75"/>
      <point x="336" y="-53"/>
      <point x="298" y="-36" type="curve"/>
      <point x="300" y="-29"/>
      <point x="305" y="-20"/>
      <point x="309" y="-11" type="curve"/>
      <point x="363" y="-10"/>
      <point x="417" y="4"/>
      <point x="441" y="17" type="curve"/>
      <point x="426" y="81" type="line"/>
      <point x="407" y="71"/>
      <point x="366" y="56"/>
      <point x="314" y="56" type="curve" smooth="yes"/>
      <point x="182" y="56"/>
      <point x="132" y="138"/>
      <point x="132" y="258" type="curve" smooth="yes"/>
      <point x="132" y="387"/>
      <point x="191" y="463"/>
      <point x="302" y="463" type="curve" smooth="yes"/>
      <point x="356" y="463"/>
      <point x="386" y="454"/>
      <point x="413" y="442" type="curve"/>
      <point x="432" y="505" type="line"/>
      <point x="404" y="520"/>
      <point x="351" y="530"/>
      <point x="296" y="530" type="curve" smooth="yes"/>
      <point x="146" y="530"/>
      <point x="54" y="419"/>
      <point x="54" y="258" type="curve" smooth="yes"/>
      <point x="54" y="111"/>
      <point x="124" y="9"/>
      <point x="259" y="-8" type="curve"/>
      <point x="249" y="-26"/>
      <point x="239" y="-49"/>
      <point x="234" y="-65" type="curve"/>
      <point x="274" y="-80"/>
      <point x="292" y="-90"/>
      <point x="292" y="-111" type="curve" smooth="yes"/>
      <point x="292" y="-130"/>
      <point x="277" y="-140"/>
      <point x="251" y="-140" type="curve" smooth="yes"/>
      <point x="225" y="-140"/>
      <point x="206" y="-136"/>
      <point x="192" y="-131" type="curve"/>
      <point x="183" y="-179" type="line"/>
      <point x="197" y="-185"/>
      <point x="229" y="-191"/>
    </contour>
  </outline>
</glyph>
<glyph name="eth" format="2">
  <advance width="580.622"/>
  <unicode hex="00F0"/>
  <anchor x="290" y="0" name="bottom"/>
  <anchor x="290" y="776" name="top"/>
  <outline>
    <contour>
      <point x="279" y="-12" type="curve" smooth="yes"/>
      <point x="476" y="-12"/>
      <point x="523" y="164"/>
      <point x="523" y="329" type="curve" smooth="yes"/>
      <point x="523" y="446"/>
      <point x="492" y="548"/>
      <point x="439" y="630" type="curve"/>
      <point x="544" y="668" type="line"/>
      <point x="525" y="717" type="line"/>
      <point x="406" y="675" type="line"/>
      <point x="373" y="715"/>
      <point x="334" y="749"/>
      <point x="290" y="776" type="curve"/>
      <point x="242" y="732" type="line"/>
      <point x="278" y="710"/>
      <point x="311" y="682"/>
      <point x="338" y="651" type="curve"/>
      <point x="224" y="611" type="line"/>
      <point x="242" y="562" type="line"/>
      <point x="371" y="607" type="line"/>
      <point x="407" y="552"/>
      <point x="429" y="491"/>
      <point x="436" y="437" type="curve"/>
      <point x="414" y="456"/>
      <point x="361" y="486"/>
      <point x="287" y="486" type="curve" smooth="yes"/>
      <point x="146" y="486"/>
      <point x="54" y="398"/>
      <point x="54" y="244" type="curve" smooth="yes"/>
      <point x="54" y="104"/>
      <point x="138" y="-12"/>
    </contour>
    <contour>
      <point x="279" y="55" type="curve" smooth="yes"/>
      <point x="182" y="55"/>
      <point x="131" y="142"/>
      <point x="131" y="244" type="curve" smooth="yes"/>
      <point x="131" y="343"/>
      <point x="179" y="421"/>
      <point x="295" y="421" type="curve" smooth="yes"/>
      <point x="349" y="421"/>
      <point x="399" y="406"/>
      <point x="444" y="362" type="curve"/>
      <point x="445" y="350"/>
      <point x="445" y="340"/>
      <point x="445" y="329" type="curve" smooth="yes"/>
      <point x="445" y="192"/>
      <point x="416" y="55"/>
    </contour>
  </outline>
</glyph>
<glyph name="thorn" format="2">
  <advance width="585.394"/>
  <unicode hex="00FE"/>
  <anchor x="293" y="0" name="bottom"/>
  <anchor x="293" y="518" name="top"/>
  <outline>
    <contour>
      <point x="84" y="-185" type="line"/>
      <point x="159" y="-185" type="line"/>
      <point x="159" y="28" type="line"/>
      <point x="183" y="11"/>
      <point x="234" y="-12"/>
      <point x="298" y="-12" type="curve" smooth="yes"/>
      <point x="447" y="-12"/>
      <point x="532" y="99"/>
      <point x="532" y="258" type="curve" smooth="yes"/>
      <point x="532" y="424"/>
      <point x="430" y="528"/>
      <point x="280" y="528" type="curve" smooth="yes"/>
      <point x="239" y="528"/>
      <point x="198" y="520"/>
      <point x="159" y="505" type="curve"/>
      <point x="159" y="776" type="line"/>
      <point x="84" y="763" type="line"/>
    </contour>
    <contour>
      <point x="289" y="55" type="curve" smooth="yes"/>
      <point x="231" y="55"/>
      <point x="181" y="80"/>
      <point x="159" y="98" type="curve"/>
      <point x="159" y="440" type="line"/>
      <point x="173" y="447"/>
      <point x="221" y="462"/>
      <point x="274" y="462" type="curve" smooth="yes"/>
      <point x="382" y="462"/>
      <point x="453" y="387"/>
      <point x="453" y="257" type="curve" smooth="yes"/>
      <point x="453" y="145"/>
      <point x="410" y="55"/>
    </contour>
  </outline>
</glyph>
<glyph name="Aogonek" format="2">
  <advance width="650.12"/>
  <unicode hex="0104"/>
  <outline>
    <contour>
      <point x="587" y="-190" type="curve" smooth="yes"/>
      <point x="608" y="-190"/>
      <point x="634" y="-185"/>
      <point x="646" y="-180" type="curve"/>
      <point x="640" y="-126" type="line"/>
      <point x="628" y="-131"/>
      <point x="613" y="-132"/>
      <point x="601" y="-132" type="curve" smooth="yes"/>
      <point x="577" y="-132"/>
      <point x="560" y="-122"/>
      <point x="560" y="-100" type="curve" smooth="yes"/>
      <point x="560" y="-63"/>
      <point x="613" y="-18"/>
      <point x="639" y="2" type="curve"/>
      <point x="531" y="292"/>
      <point x="457" y="491"/>
      <point x="360" y="693" type="curve"/>
      <point x="290" y="693" type="line"/>
      <point x="192" y="490"/>
      <point x="117" y="290"/>
      <point x="10" y="0" type="curve"/>
      <point x="91" y="0" type="line"/>
      <point x="114" y="66"/>
      <point x="137" y="126"/>
      <point x="158" y="185" type="curve"/>
      <point x="488" y="185" type="line"/>
      <point x="508" y="126"/>
      <point x="531" y="65"/>
      <point x="555" y="0" type="curve"/>
      <point x="560" y="0" type="line"/>
      <point x="530" y="-24"/>
      <point x="486" y="-68"/>
      <point x="486" y="-118" type="curve" smooth="yes"/>
      <point x="486" y="-160"/>
      <point x="514" y="-190"/>
    </contour>
    <contour>
      <point x="181" y="251" type="line"/>
      <point x="230" y="385"/>
      <point x="276" y="500"/>
      <point x="322" y="606" type="curve"/>
      <point x="369" y="500"/>
      <point x="415" y="385"/>
      <point x="465" y="251" type="curve"/>
    </contour>
  </outline>
</glyph>
<glyph name="aogonek" format="2">
  <advance width="514.016"/>
  <unicode hex="0105"/>
  <outline>
    <contour>
      <point x="378" y="-190" type="curve" smooth="yes"/>
      <point x="399" y="-190"/>
      <point x="425" y="-185"/>
      <point x="437" y="-180" type="curve"/>
      <point x="431" y="-126" type="line"/>
      <point x="419" y="-131"/>
      <point x="404" y="-132"/>
      <point x="392" y="-132" type="curve" smooth="yes"/>
      <point x="368" y="-132"/>
      <point x="351" y="-122"/>
      <point x="351" y="-100" type="curve" smooth="yes"/>
      <point x="351" y="-61"/>
      <point x="407" y="-13"/>
      <point x="436" y="11" type="curve"/>
      <point x="436" y="337" type="line" smooth="yes"/>
      <point x="436" y="449"/>
      <point x="386" y="530"/>
      <point x="245" y="530" type="curve" smooth="yes"/>
      <point x="179" y="530"/>
      <point x="127" y="519"/>
      <point x="103" y="508" type="curve"/>
      <point x="112" y="445" type="line"/>
      <point x="131" y="452"/>
      <point x="171" y="465"/>
      <point x="240" y="465" type="curve" smooth="yes"/>
      <point x="345" y="465"/>
      <point x="362" y="396"/>
      <point x="362" y="328" type="curve" smooth="yes"/>
      <point x="362" y="298" type="line"/>
      <point x="351" y="303"/>
      <point x="301" y="312"/>
      <point x="264" y="312" type="curve" smooth="yes"/>
      <point x="139" y="312"/>
      <point x="47" y="266"/>
      <point x="47" y="152" type="curve" smooth="yes"/>
      <point x="47" y="34"/>
      <point x="129" y="-11"/>
      <point x="241" y="-11" type="curve" smooth="yes"/>
      <point x="280" y="-11"/>
      <point x="319" y="-8"/>
      <point x="351" y="-4" type="curve"/>
      <point x="316" y="-31"/>
      <point x="277" y="-68"/>
      <point x="277" y="-118" type="curve" smooth="yes"/>
      <point x="277" y="-160"/>
      <point x="305" y="-190"/>
    </contour>
    <contour>
      <point x="252" y="53" type="curve" smooth="yes"/>
      <point x="173" y="53"/>
      <point x="123" y="78"/>
      <point x="123" y="153" type="curve" smooth="yes"/>
      <point x="123" y="236"/>
      <point x="202" y="251"/>
      <point x="266" y="251" type="curve" smooth="yes"/>
      <point x="317" y="251"/>
      <point x="348" y="242"/>
      <point x="362" y="236" type="curve"/>
      <point x="362" y="62" type="line"/>
      <point x="336" y="57"/>
      <point x="299" y="53"/>
    </contour>
  </outline>
</glyph>
<glyph name="eogonek" format="2">
  <advance width="552.104"/>
  <unicode hex="0119"/>
  <anchor x="276" y="518" name="top"/>
  <outline>
    <contour>
      <point x="384" y="-190" type="curve" smooth="yes"/>
      <point x="406" y="-190"/>
      <point x="431" y="-185"/>
      <point x="443" y="-180" type="curve"/>
      <point x="438" y="-126" type="line"/>
      <point x="425" y="-131"/>
      <point x="410" y="-132"/>
      <point x="398" y="-132" type="curve" smooth="yes"/>
      <point x="374" y="-132"/>
      <point x="357" y="-122"/>
      <point x="357" y="-100" type="curve" smooth="yes"/>
      <point x="357" y="-66"/>
      <point x="412" y="-15"/>
      <point x="458" y="19" type="curve"/>
      <point x="445" y="82" type="line"/>
      <point x="426" y="73"/>
      <point x="383" y="56"/>
      <point x="315" y="56" type="curve" smooth="yes"/>
      <point x="192" y="56"/>
      <point x="137" y="123"/>
      <point x="132" y="241" type="curve"/>
      <point x="493" y="241" type="line"/>
      <point x="494" y="251"/>
      <point x="495" y="265"/>
      <point x="495" y="275" type="curve" smooth="yes"/>
      <point x="495" y="448"/>
      <point x="412" y="530"/>
      <point x="283" y="530" type="curve" smooth="yes"/>
      <point x="167" y="530"/>
      <point x="54" y="441"/>
      <point x="54" y="259" type="curve" smooth="yes"/>
      <point x="54" y="102"/>
      <point x="129" y="-10"/>
      <point x="311" y="-10" type="curve" smooth="yes"/>
      <point x="326" y="-10"/>
      <point x="342" y="-9"/>
      <point x="357" y="-6" type="curve"/>
      <point x="322" y="-31"/>
      <point x="283" y="-70"/>
      <point x="283" y="-118" type="curve" smooth="yes"/>
      <point x="283" y="-160"/>
      <point x="311" y="-190"/>
    </contour>
    <contour>
      <point x="134" y="302" type="line"/>
      <point x="140" y="387"/>
      <point x="195" y="465"/>
      <point x="284" y="465" type="curve" smooth="yes"/>
      <point x="369" y="465"/>
      <point x="417" y="403"/>
      <point x="419" y="302" type="curve"/>
    </contour>
  </outline>
</glyph>
<glyph name="Hbar" format="2">
  <advance width="724.104"/>
  <unicode hex="0126"/>
  <outline>
    <contour>
      <point x="103" y="0" type="line"/>
      <point x="181" y="0" type="line"/>
      <point x="181" y="327" type="line"/>
      <point x="544" y="327" type="line"/>
      <point x="544" y="0" type="line"/>
      <point x="622" y="0" type="line"/>
      <point x="622" y="529" type="line"/>
      <point x="702" y="529" type="line"/>
      <point x="702" y="589" type="line"/>
      <point x="622" y="589" type="line"/>
      <point x="622" y="693" type="line"/>
      <point x="544" y="693" type="line"/>
      <point x="544" y="589" type="line"/>
      <point x="181" y="589" type="line"/>
      <point x="181" y="693" type="line"/>
      <point x="103" y="693" type="line"/>
      <point x="103" y="589" type="line"/>
      <point x="22" y="589" type="line"/>
      <point x="22" y="529" type="line"/>
      <point x="103" y="529" type="line"/>
    </contour>
    <contour>
      <point x="181" y="395" type="line"/>
      <point x="181" y="529" type="line"/>
      <point x="544" y="529" type="line"/>
      <point x="544" y="395" type="line"/>
    </contour>
  </outline>
</glyph>
<glyph name="iogonek" format="2">
  <advance width="242.928"/>
  <unicode hex="012F"/>
  <outline>
    <contour>
      <point x="113" y="-190" type="curve" smooth="yes"/>
      <point x="134" y="-190"/>
      <point x="160" y="-185"/>
      <point x="172" y="-180" type="curve"/>
      <point x="166" y="-126" type="line"/>
      <point x="153" y="-131"/>
      <point x="138" y="-132"/>
      <point x="126" y="-132" type="curve" smooth="yes"/>
      <point x="102" y="-132"/>
      <point x="86" y="-122"/>
      <point x="86" y="-100" type="curve" smooth="yes"/>
      <point x="86" y="-63"/>
      <point x="126" y="-27"/>
      <point x="159" y="0" type="curve"/>
      <point x="159" y="518" type="line"/>
      <point x="84" y="518" type="line"/>
      <point x="84" y="0" type="line"/>
      <point x="88" y="0" type="line"/>
      <point x="56" y="-23"/>
      <point x="11" y="-65"/>
      <point x="11" y="-118" type="curve" smooth="yes"/>
      <point x="11" y="-160"/>
      <point x="39" y="-190"/>
    </contour>
    <contour>
      <point x="121" y="619" type="curve" smooth="yes"/>
      <point x="150" y="619"/>
      <point x="174" y="641"/>
      <point x="174" y="674" type="curve" smooth="yes"/>
      <point x="174" y="706"/>
      <point x="150" y="728"/>
      <point x="121" y="728" type="curve" smooth="yes"/>
      <point x="92" y="728"/>
      <point x="68" y="706"/>
      <point x="68" y="674" type="curve" smooth="yes"/>
      <point x="68" y="641"/>
      <point x="92" y="619"/>
    </contour>
  </outline>
</glyph>
<glyph name="Lslash" format="2">
  <advance width="524.892"/>
  <unicode hex="0141"/>
  <outline>
    <contour>
      <point x="105" y="0" type="line"/>
      <point x="507" y="0" type="line"/>
      <point x="507" y="68" type="line"/>
      <point x="183" y="68" type="line"/>
      <point x="183" y="330" type="line"/>
      <point x="323" y="403" type="line"/>
      <point x="297" y="457" type="line"/>
      <point x="183" y="399" type="line"/>
      <point x="183" y="693" type="line"/>
      <point x="105" y="693" type="line"/>
      <point x="105" y="359" type="line"/>
      <point x="1" y="305" type="line"/>
      <point x="29" y="251" type="line"/>
      <point x="105" y="290" type="line"/>
    </contour>
  </outline>
</glyph>
<glyph name="eng" format="2">
  <advance width="571.28"/>
  <unicode hex="014B"/>
  <anchor x="286" y="0" name="bottom"/>
  <anchor x="286" y="518" name="top"/>
  <outline>
    <contour>
      <point x="361" y="-186" type="curve" smooth="yes"/>
      <point x="475" y="-186"/>
      <point x="493" y="-118"/>
      <point x="493" y="-23" type="curve"/>
      <point x="493" y="290" type="line" smooth="yes"/>
      <point x="493" y="432"/>
      <point x="446" y="528"/>
      <point x="285" y="528" type="curve" smooth="yes"/>
      <point x="192" y="528"/>
      <point x="125" y="511"/>
      <point x="84" y="500" type="curve"/>
      <point x="84" y="0" type="line"/>
      <point x="159" y="0" type="line"/>
      <point x="159" y="449" type="line"/>
      <point x="172" y="453"/>
      <point x="219" y="462"/>
      <point x="275" y="462" type="curve" smooth="yes"/>
      <point x="384" y="462"/>
      <point x="418" y="410"/>
      <point x="418" y="269" type="curve" smooth="yes"/>
      <point x="418" y="-33" type="line"/>
      <point x="418" y="-95"/>
      <point x="401" y="-124"/>
      <point x="352" y="-124" type="curve" smooth="yes"/>
      <point x="336" y="-124"/>
      <point x="323" y="-121"/>
      <point x="315" y="-118" type="curve"/>
      <point x="305" y="-177" type="line"/>
      <point x="317" y="-182"/>
      <point x="339" y="-186"/>
    </contour>
  </outline>
</glyph>
<glyph name="OE" format="2">
  <advance width="990.798"/>
  <unicode hex="0152"/>
  <anchor x="495" y="0" name="bottom"/>
  <anchor x="495" y="693" name="top"/>
  <outline>
    <contour>
      <point x="440" y="-6" type="curve" smooth="yes"/>
      <point x="472" y="-6"/>
      <point x="508" y="-4"/>
      <point x="541" y="0" type="curve"/>
      <point x="952" y="0" type="line"/>
      <point x="952" y="67" type="line"/>
      <point x="611" y="67" type="line"/>
      <point x="611" y="331" type="line"/>
      <point x="891" y="331" type="line"/>
      <point x="891" y="397" type="line"/>
      <point x="611" y="397" type="line"/>
      <point x="611" y="626" type="line"/>
      <point x="927" y="626" type="line"/>
      <point x="927" y="693" type="line"/>
      <point x="540" y="693" type="line"/>
      <point x="508" y="697"/>
      <point x="472" y="699"/>
      <point x="440" y="699" type="curve" smooth="yes"/>
      <point x="219" y="699"/>
      <point x="63" y="583"/>
      <point x="63" y="347" type="curve" smooth="yes"/>
      <point x="63" y="110"/>
      <point x="219" y="-6"/>
    </contour>
    <contour>
      <point x="433" y="61" type="curve" smooth="yes"/>
      <point x="242" y="61"/>
      <point x="145" y="169"/>
      <point x="145" y="347" type="curve" smooth="yes"/>
      <point x="145" y="524"/>
      <point x="242" y="632"/>
      <point x="433" y="632" type="curve" smooth="yes"/>
      <point x="499" y="632"/>
      <point x="524" y="626"/>
      <point x="534" y="625" type="curve"/>
      <point x="534" y="68" type="line"/>
      <point x="524" y="67"/>
      <point x="499" y="61"/>
    </contour>
  </outline>
</glyph>
<glyph name="Tcedilla" format="2">
  <advance width="555.524"/>
  <unicode hex="0162"/>
  <outline>
    <contour>
      <point x="245" y="-191" type="curve" smooth="yes"/>
      <point x="325" y="-191"/>
      <point x="348" y="-150"/>
      <point x="348" y="-113" type="curve" smooth="yes"/>
      <point x="348" y="-75"/>
      <point x="325" y="-53"/>
      <point x="287" y="-36" type="curve"/>
      <point x="291" y="-26"/>
      <point x="297" y="-12"/>
      <point x="304" y="0" type="curve"/>
      <point x="317" y="0" type="line"/>
      <point x="317" y="626" type="line"/>
      <point x="537" y="626" type="line"/>
      <point x="537" y="693" type="line"/>
      <point x="18" y="693" type="line"/>
      <point x="18" y="626" type="line"/>
      <point x="239" y="626" type="line"/>
      <point x="239" y="0" type="line"/>
      <point x="252" y="0" type="line"/>
      <point x="242" y="-19"/>
      <point x="229" y="-46"/>
      <point x="223" y="-65" type="curve"/>
      <point x="264" y="-81"/>
      <point x="281" y="-90"/>
      <point x="281" y="-111" type="curve" smooth="yes"/>
      <point x="281" y="-130"/>
      <point x="267" y="-140"/>
      <point x="241" y="-140" type="curve" smooth="yes"/>
      <point x="214" y="-140"/>
      <point x="196" y="-136"/>
      <point x="181" y="-131" type="curve"/>
      <point x="172" y="-179" type="line"/>
      <point x="186" y="-185"/>
      <point x="218" y="-191"/>
    </contour>
  </outline>
</glyph>
<glyph name="tbar" format="2">
  <advance width="393.498"/>
  <unicode hex="0167"/>
  <outline>
    <contour>
      <point x="253" y="-11" type="curve" smooth="yes"/>
      <point x="309" y="-11"/>
      <point x="359" y="8"/>
      <point x="379" y="20" type="curve"/>
      <point x="363" y="81" type="line"/>
      <point x="343" y="71"/>
      <point x="310" y="56"/>
      <point x="259" y="56" type="curve" smooth="yes"/>
      <point x="194" y="56"/>
      <point x="155" y="79"/>
      <point x="155" y="190" type="curve" smooth="yes"/>
      <point x="155" y="243" type="line"/>
      <point x="354" y="243" type="line"/>
      <point x="354" y="301" type="line"/>
      <point x="155" y="301" type="line"/>
      <point x="155" y="455" type="line"/>
      <point x="358" y="455" type="line"/>
      <point x="358" y="518" type="line"/>
      <point x="155" y="518" type="line"/>
      <point x="155" y="681" type="line"/>
      <point x="80" y="668" type="line"/>
      <point x="80" y="196" type="line" smooth="yes"/>
      <point x="80" y="58"/>
      <point x="120" y="-11"/>
    </contour>
  </outline>
</glyph>
<glyph name="Btopbar" format="2">
  <advance width="616.332"/>
  <unicode hex="0182"/>
  <outline>
    <contour>
      <point x="267" y="-6" type="curve"/>
      <point x="463" y="-6"/>
      <point x="569" y="66"/>
      <point x="569" y="211" type="curve" smooth="yes"/>
      <point x="569" y="366"/>
      <point x="454" y="427"/>
      <point x="256" y="427" type="curve"/>
      <point x="166" y="427" type="line"/>
      <point x="166" y="626" type="line"/>
      <point x="506" y="626" type="line"/>
      <point x="506" y="693" type="line"/>
      <point x="89" y="693" type="line"/>
      <point x="89" y="13" type="line"/>
      <point x="140" y="0"/>
      <point x="211" y="-6"/>
    </contour>
    <contour>
      <point x="271" y="61" type="curve" smooth="yes"/>
      <point x="223" y="61"/>
      <point x="190" y="65"/>
      <point x="166" y="68" type="curve"/>
      <point x="166" y="361" type="line"/>
      <point x="248" y="361" type="line"/>
      <point x="394" y="361"/>
      <point x="488" y="332"/>
      <point x="488" y="210" type="curve" smooth="yes"/>
      <point x="488" y="93"/>
      <point x="386" y="61"/>
    </contour>
  </outline>
</glyph>
<glyph name="Tonesix" format="2">
  <advance width="585.394"/>
  <unicode hex="0184"/>
  <outline>
    <contour>
      <point x="275" y="-12" type="curve" smooth="yes"/>
      <point x="429" y="-12"/>
      <point x="532" y="91"/>
      <point x="532" y="259" type="curve" smooth="yes"/>
      <point x="532" y="417"/>
      <point x="447" y="529"/>
      <point x="298" y="529" type="curve" smooth="yes"/>
      <point x="234" y="529"/>
      <point x="183" y="506"/>
      <point x="159" y="489" type="curve"/>
      <point x="159" y="776" type="line"/>
      <point x="113" y="764"/>
      <point x="53" y="737"/>
      <point x="19" y="716" type="curve"/>
      <point x="84" y="645" type="line"/>
      <point x="84" y="16" type="line"/>
      <point x="124" y="3"/>
      <point x="186" y="-12"/>
    </contour>
    <contour>
      <point x="274" y="55" type="curve" smooth="yes"/>
      <point x="215" y="55"/>
      <point x="178" y="62"/>
      <point x="159" y="68" type="curve"/>
      <point x="159" y="419" type="line"/>
      <point x="181" y="437"/>
      <point x="231" y="462"/>
      <point x="289" y="462" type="curve" smooth="yes"/>
      <point x="410" y="462"/>
      <point x="453" y="372"/>
      <point x="453" y="259" type="curve" smooth="yes"/>
      <point x="453" y="129"/>
      <point x="382" y="55"/>
    </contour>
  </outline>
</glyph>
<glyph name="deltaturned" format="2">
  <advance width="574.394"/>
  <unicode hex="018D"/>
  <outline>
    <contour>
      <point x="252" y="-185" type="curve" smooth="yes"/>
      <point x="340" y="-185"/>
      <point x="435" y="-157"/>
      <point x="435" y="-64" type="curve" smooth="yes"/>
      <point x="435" y="-9"/>
      <point x="409" y="22"/>
      <point x="354" y="53" type="curve"/>
      <point x="452" y="95"/>
      <point x="521" y="185"/>
      <point x="521" y="290" type="curve" smooth="yes"/>
      <point x="521" y="406"/>
      <point x="454" y="531"/>
      <point x="287" y="531" type="curve" smooth="yes"/>
      <point x="123" y="531"/>
      <point x="54" y="413"/>
      <point x="54" y="285" type="curve" smooth="yes"/>
      <point x="54" y="145"/>
      <point x="148" y="80"/>
      <point x="238" y="37" type="curve" smooth="yes"/>
      <point x="315" y="0"/>
      <point x="361" y="-17"/>
      <point x="361" y="-64" type="curve" smooth="yes"/>
      <point x="361" y="-111"/>
      <point x="312" y="-123"/>
      <point x="252" y="-123" type="curve" smooth="yes"/>
      <point x="180" y="-123"/>
      <point x="135" y="-107"/>
      <point x="120" y="-99" type="curve"/>
      <point x="104" y="-160" type="line"/>
      <point x="125" y="-168"/>
      <point x="181" y="-185"/>
    </contour>
    <contour>
      <point x="294" y="84" type="curve"/>
      <point x="223" y="116"/>
      <point x="132" y="161"/>
      <point x="132" y="287" type="curve" smooth="yes"/>
      <point x="132" y="396"/>
      <point x="186" y="464"/>
      <point x="287" y="464" type="curve" smooth="yes"/>
      <point x="402" y="464"/>
      <point x="443" y="375"/>
      <point x="443" y="289" type="curve" smooth="yes"/>
      <point x="443" y="185"/>
      <point x="373" y="119"/>
    </contour>
  </outline>
</glyph>
<glyph name="Khook" format="2">
  <advance width="655.13"/>
  <unicode hex="0198"/>
  <anchor x="328" y="0" name="bottom"/>
  <anchor x="328" y="693" name="top"/>
  <outline>
    <contour>
      <point x="89" y="0" type="line"/>
      <point x="167" y="0" type="line"/>
      <point x="167" y="337" type="line"/>
      <point x="284" y="270"/>
      <point x="424" y="133"/>
      <point x="510" y="0" type="curve"/>
      <point x="599" y="0" type="line"/>
      <point x="536" y="116"/>
      <point x="367" y="295"/>
      <point x="248" y="370" type="curve"/>
      <point x="306" y="439"/>
      <point x="366" y="511"/>
      <point x="448" y="595" type="curve" smooth="yes"/>
      <point x="482" y="628"/>
      <point x="503" y="640"/>
      <point x="530" y="640" type="curve" smooth="yes"/>
      <point x="560" y="640"/>
      <point x="583" y="623"/>
      <point x="597" y="607" type="curve"/>
      <point x="634" y="660" type="line"/>
      <point x="615" y="680"/>
      <point x="585" y="707"/>
      <point x="530" y="707" type="curve" smooth="yes"/>
      <point x="469" y="707"/>
      <point x="432" y="674"/>
      <point x="395" y="634" type="curve" smooth="yes"/>
      <point x="320" y="553"/>
      <point x="223" y="442"/>
      <point x="167" y="372" type="curve"/>
      <point x="167" y="693" type="line"/>
      <point x="89" y="693" type="line"/>
    </contour>
  </outline>
</glyph>
<glyph name="lbar" format="2">
  <advance width="269.576"/>
  <unicode hex="019A"/>
  <outline>
    <contour>
      <point x="234" y="-10" type="curve"/>
      <point x="245" y="52" type="line"/>
      <point x="190" y="60"/>
      <point x="168" y="70"/>
      <point x="168" y="134" type="curve" smooth="yes"/>
      <point x="168" y="373" type="line"/>
      <point x="261" y="373" type="line"/>
      <point x="261" y="431" type="line"/>
      <point x="168" y="431" type="line"/>
      <point x="168" y="776" type="line"/>
      <point x="94" y="763" type="line"/>
      <point x="94" y="431" type="line"/>
      <point x="16" y="431" type="line"/>
      <point x="16" y="373" type="line"/>
      <point x="94" y="373" type="line"/>
      <point x="94" y="129" type="line" smooth="yes"/>
      <point x="94" y="29"/>
      <point x="138" y="-4"/>
    </contour>
  </outline>
</glyph>
<glyph name="Nhookleft" format="2">
  <advance width="714.358"/>
  <unicode hex="019D"/>
  <anchor x="358" y="0" name="bottom"/>
  <anchor x="358" y="693" name="top"/>
  <outline>
    <contour>
      <point x="32" y="-187" type="curve" smooth="yes"/>
      <point x="146" y="-187"/>
      <point x="166" y="-118"/>
      <point x="166" y="-21" type="curve"/>
      <point x="166" y="569" type="line"/>
      <point x="284" y="432"/>
      <point x="482" y="141"/>
      <point x="560" y="0" type="curve"/>
      <point x="625" y="0" type="line"/>
      <point x="625" y="693" type="line"/>
      <point x="548" y="693" type="line"/>
      <point x="548" y="147" type="line"/>
      <point x="464" y="294"/>
      <point x="283" y="548"/>
      <point x="151" y="693" type="curve"/>
      <point x="89" y="693" type="line"/>
      <point x="89" y="-30" type="line"/>
      <point x="89" y="-93"/>
      <point x="71" y="-122"/>
      <point x="21" y="-122" type="curve" smooth="yes"/>
      <point x="4" y="-122"/>
      <point x="-9" y="-119"/>
      <point x="-17" y="-116" type="curve"/>
      <point x="-28" y="-178" type="line"/>
      <point x="-15" y="-182"/>
      <point x="10" y="-187"/>
    </contour>
  </outline>
</glyph>
<glyph name="Ohorn" format="2">
  <advance width="775.824"/>
  <unicode hex="01A0"/>
  <anchor x="388" y="0" name="bottom"/>
  <anchor x="388" y="693" name="top"/>
  <outline>
    <contour>
      <point x="388" y="-15" type="curve" smooth="yes"/>
      <point x="565" y="-15"/>
      <point x="715" y="109"/>
      <point x="715" y="347" type="curve" smooth="yes"/>
      <point x="715" y="454"/>
      <point x="685" y="537"/>
      <point x="635" y="597" type="curve"/>
      <point x="695" y="646"/>
      <point x="712" y="709"/>
      <point x="712" y="770" type="curve" smooth="yes"/>
      <point x="712" y="778"/>
      <point x="711" y="791"/>
      <point x="709" y="800" type="curve"/>
      <point x="636" y="800" type="line"/>
      <point x="637" y="795"/>
      <point x="639" y="776"/>
      <point x="639" y="764" type="curve" smooth="yes"/>
      <point x="639" y="711"/>
      <point x="625" y="674"/>
      <point x="590" y="640" type="curve"/>
      <point x="534" y="685"/>
      <point x="463" y="708"/>
      <point x="388" y="708" type="curve" smooth="yes"/>
      <point x="212" y="708"/>
      <point x="61" y="585"/>
      <point x="61" y="347" type="curve" smooth="yes"/>
      <point x="61" y="109"/>
      <point x="211" y="-15"/>
    </contour>
    <contour>
      <point x="388" y="55" type="curve" smooth="yes"/>
      <point x="238" y="55"/>
      <point x="143" y="167"/>
      <point x="143" y="347" type="curve" smooth="yes"/>
      <point x="143" y="527"/>
      <point x="238" y="638"/>
      <point x="388" y="638" type="curve" smooth="yes"/>
      <point x="538" y="638"/>
      <point x="633" y="527"/>
      <point x="633" y="347" type="curve" smooth="yes"/>
      <point x="633" y="167"/>
      <point x="538" y="55"/>
    </contour>
  </outline>
</glyph>
<glyph name="ohorn" format="2">
  <advance width="589.28"/>
  <unicode hex="01A1"/>
  <anchor x="295" y="0" name="bottom"/>
  <anchor x="295" y="518" name="top"/>
  <outline>
    <contour>
      <point x="292" y="-12" type="curve" smooth="yes"/>
      <point x="433" y="-12"/>
      <point x="531" y="95"/>
      <point x="531" y="259" type="curve" smooth="yes"/>
      <point x="531" y="321"/>
      <point x="516" y="376"/>
      <point x="490" y="419" type="curve"/>
      <point x="553" y="469"/>
      <point x="571" y="532"/>
      <point x="571" y="595" type="curve" smooth="yes"/>
      <point x="571" y="603"/>
      <point x="570" y="616"/>
      <point x="569" y="626" type="curve"/>
      <point x="497" y="626" type="line"/>
      <point x="498" y="620"/>
      <point x="500" y="601"/>
      <point x="500" y="589" type="curve" smooth="yes"/>
      <point x="500" y="535"/>
      <point x="485" y="500"/>
      <point x="451" y="468" type="curve"/>
      <point x="410" y="507"/>
      <point x="356" y="530"/>
      <point x="292" y="530" type="curve" smooth="yes"/>
      <point x="153" y="530"/>
      <point x="54" y="422"/>
      <point x="54" y="259" type="curve" smooth="yes"/>
      <point x="54" y="95"/>
      <point x="153" y="-12"/>
    </contour>
    <contour>
      <point x="292" y="55" type="curve" smooth="yes"/>
      <point x="194" y="55"/>
      <point x="132" y="134"/>
      <point x="132" y="259" type="curve" smooth="yes"/>
      <point x="132" y="383"/>
      <point x="194" y="463"/>
      <point x="292" y="463" type="curve" smooth="yes"/>
      <point x="391" y="463"/>
      <point x="453" y="383"/>
      <point x="453" y="259" type="curve" smooth="yes"/>
      <point x="453" y="134"/>
      <point x="391" y="55"/>
    </contour>
  </outline>
</glyph>
<glyph name="Phook" format="2">
  <advance width="687.312"/>
  <unicode hex="01A4"/>
  <outline>
    <contour>
      <point x="177" y="0" type="line"/>
      <point x="255" y="0" type="line"/>
      <point x="255" y="264" type="line"/>
      <point x="344" y="264" type="line" smooth="yes"/>
      <point x="535" y="264"/>
      <point x="651" y="323"/>
      <point x="651" y="482" type="curve" smooth="yes"/>
      <point x="651" y="621"/>
      <point x="553" y="699"/>
      <point x="351" y="699" type="curve" smooth="yes"/>
      <point x="153" y="699"/>
      <point x="19" y="682"/>
      <point x="19" y="541" type="curve" smooth="yes"/>
      <point x="19" y="527"/>
      <point x="23" y="501"/>
      <point x="26" y="489" type="curve"/>
      <point x="89" y="498" type="line"/>
      <point x="87" y="511"/>
      <point x="86" y="525"/>
      <point x="86" y="532" type="curve" smooth="yes"/>
      <point x="86" y="590"/>
      <point x="113" y="623"/>
      <point x="177" y="627" type="curve"/>
    </contour>
    <contour>
      <point x="255" y="331" type="line"/>
      <point x="255" y="630" type="line"/>
      <point x="278" y="632"/>
      <point x="320" y="632"/>
      <point x="355" y="632" type="curve" smooth="yes"/>
      <point x="468" y="632"/>
      <point x="569" y="600"/>
      <point x="569" y="483" type="curve" smooth="yes"/>
      <point x="569" y="360"/>
      <point x="479" y="331"/>
      <point x="337" y="331" type="curve" smooth="yes"/>
    </contour>
  </outline>
</glyph>
<glyph name="phook" format="2">
  <advance width="585.394"/>
  <unicode hex="01A5"/>
  <anchor x="293" y="0" name="bottom"/>
  <anchor x="293" y="518" name="top"/>
  <outline>
    <contour>
      <point x="84" y="-185" type="line"/>
      <point x="159" y="-185" type="line"/>
      <point x="159" y="28" type="line"/>
      <point x="183" y="11"/>
      <point x="234" y="-12"/>
      <point x="298" y="-12" type="curve" smooth="yes"/>
      <point x="447" y="-12"/>
      <point x="532" y="99"/>
      <point x="532" y="258" type="curve" smooth="yes"/>
      <point x="532" y="424"/>
      <point x="430" y="528"/>
      <point x="280" y="528" type="curve"/>
      <point x="239" y="528"/>
      <point x="198" y="520"/>
      <point x="159" y="505" type="curve"/>
      <point x="159" y="623" type="line" smooth="yes"/>
      <point x="159" y="685"/>
      <point x="176" y="714"/>
      <point x="225" y="714" type="curve" smooth="yes"/>
      <point x="241" y="714"/>
      <point x="254" y="712"/>
      <point x="262" y="708" type="curve"/>
      <point x="272" y="768" type="line"/>
      <point x="260" y="772"/>
      <point x="238" y="776"/>
      <point x="216" y="776" type="curve" smooth="yes"/>
      <point x="102" y="776"/>
      <point x="84" y="708"/>
      <point x="84" y="613" type="curve"/>
    </contour>
    <contour>
      <point x="289" y="55" type="curve" smooth="yes"/>
      <point x="231" y="55"/>
      <point x="181" y="80"/>
      <point x="159" y="98" type="curve"/>
      <point x="159" y="440" type="line"/>
      <point x="171" y="446"/>
      <point x="231" y="462"/>
      <point x="274" y="462" type="curve"/>
      <point x="382" y="462"/>
      <point x="453" y="387"/>
      <point x="453" y="257" type="curve" smooth="yes"/>
      <point x="453" y="145"/>
      <point x="410" y="55"/>
    </contour>
  </outline>
</glyph>
<glyph name="Tonetwo" format="2">
  <advance width="524.41"/>
  <unicode hex="01A7"/>
  <outline>
    <contour>
      <point x="281" y="-15" type="curve" smooth="yes"/>
      <point x="389" y="-15"/>
      <point x="463" y="17"/>
      <point x="490" y="33" type="curve"/>
      <point x="466" y="99" type="line"/>
      <point x="437" y="83"/>
      <point x="374" y="53"/>
      <point x="282" y="53" type="curve" smooth="yes"/>
      <point x="177" y="53"/>
      <point x="118" y="89"/>
      <point x="118" y="172" type="curve" smooth="yes"/>
      <point x="118" y="267"/>
      <point x="195" y="292"/>
      <point x="286" y="328" type="curve" smooth="yes"/>
      <point x="399" y="372"/>
      <point x="472" y="416"/>
      <point x="472" y="524" type="curve" smooth="yes"/>
      <point x="472" y="643"/>
      <point x="390" y="708"/>
      <point x="247" y="708" type="curve" smooth="yes"/>
      <point x="170" y="708"/>
      <point x="98" y="685"/>
      <point x="61" y="662" type="curve"/>
      <point x="88" y="597" type="line"/>
      <point x="126" y="624"/>
      <point x="183" y="641"/>
      <point x="247" y="641" type="curve" smooth="yes"/>
      <point x="332" y="641"/>
      <point x="392" y="608"/>
      <point x="392" y="530" type="curve" smooth="yes"/>
      <point x="392" y="449"/>
      <point x="327" y="424"/>
      <point x="239" y="388" type="curve" smooth="yes"/>
      <point x="126" y="343"/>
      <point x="36" y="304"/>
      <point x="36" y="175" type="curve" smooth="yes"/>
      <point x="36" y="49"/>
      <point x="126" y="-15"/>
    </contour>
  </outline>
</glyph>
<glyph name="Uhorn" format="2">
  <advance width="699.156"/>
  <unicode hex="01AF"/>
  <anchor x="350" y="0" name="bottom"/>
  <anchor x="350" y="693" name="top"/>
  <outline>
    <contour>
      <point x="341" y="-15" type="curve" smooth="yes"/>
      <point x="528" y="-15"/>
      <point x="598" y="104"/>
      <point x="598" y="258" type="curve" smooth="yes"/>
      <point x="598" y="634" type="line"/>
      <point x="694" y="641"/>
      <point x="722" y="710"/>
      <point x="722" y="771" type="curve" smooth="yes"/>
      <point x="722" y="778"/>
      <point x="721" y="792"/>
      <point x="719" y="801" type="curve"/>
      <point x="646" y="801" type="line"/>
      <point x="647" y="796"/>
      <point x="649" y="777"/>
      <point x="649" y="765" type="curve" smooth="yes"/>
      <point x="649" y="712"/>
      <point x="618" y="693"/>
      <point x="583" y="693" type="curve" smooth="yes"/>
      <point x="520" y="693" type="line"/>
      <point x="520" y="267" type="line" smooth="yes"/>
      <point x="520" y="120"/>
      <point x="448" y="55"/>
      <point x="341" y="55" type="curve" smooth="yes"/>
      <point x="235" y="55"/>
      <point x="163" y="119"/>
      <point x="163" y="267" type="curve" smooth="yes"/>
      <point x="163" y="693" type="line"/>
      <point x="85" y="693" type="line"/>
      <point x="85" y="258" type="line" smooth="yes"/>
      <point x="85" y="104"/>
      <point x="155" y="-15"/>
    </contour>
  </outline>
</glyph>
<glyph name="zstroke" format="2">
  <advance width="460.13"/>
  <unicode hex="01B6"/>
  <outline>
    <contour>
      <point x="38" y="0" type="line"/>
      <point x="422" y="0" type="line"/>
      <point x="422" y="62" type="line"/>
      <point x="124" y="62" type="line"/>
      <point x="155" y="119"/>
      <point x="198" y="184"/>
      <point x="242" y="245" type="curve"/>
      <point x="407" y="245" type="line"/>
      <point x="407" y="302" type="line"/>
      <point x="285" y="302" type="line"/>
      <point x="337" y="370"/>
      <point x="385" y="429"/>
      <point x="414" y="460" type="curve"/>
      <point x="414" y="518" type="line"/>
      <point x="52" y="518" type="line"/>
      <point x="52" y="456" type="line"/>
      <point x="323" y="456" type="line"/>
      <point x="293" y="420"/>
      <point x="249" y="364"/>
      <point x="203" y="302" type="curve"/>
      <point x="67" y="302" type="line"/>
      <point x="67" y="245" type="line"/>
      <point x="161" y="245" type="line"/>
      <point x="113" y="177"/>
      <point x="68" y="107"/>
      <point x="38" y="51" type="curve"/>
    </contour>
  </outline>
</glyph>
<glyph name="Tonefive" format="2">
  <advance width="540.938"/>
  <unicode hex="01BC"/>
  <anchor x="271" y="0" name="bottom"/>
  <anchor x="271" y="693" name="top"/>
  <outline>
    <contour>
      <point x="233" y="-15" type="curve" smooth="yes"/>
      <point x="422" y="-15"/>
      <point x="499" y="72"/>
      <point x="499" y="195" type="curve" smooth="yes"/>
      <point x="499" y="328"/>
      <point x="408" y="408"/>
      <point x="184" y="421" type="curve"/>
      <point x="191" y="466"/>
      <point x="198" y="576"/>
      <point x="200" y="626" type="curve"/>
      <point x="472" y="626" type="line"/>
      <point x="472" y="693" type="line"/>
      <point x="32" y="693" type="line"/>
      <point x="32" y="626" type="line"/>
      <point x="130" y="626" type="line"/>
      <point x="126" y="543"/>
      <point x="120" y="466"/>
      <point x="107" y="355" type="curve"/>
      <point x="333" y="355"/>
      <point x="418" y="299"/>
      <point x="418" y="193" type="curve" smooth="yes"/>
      <point x="418" y="114"/>
      <point x="369" y="53"/>
      <point x="231" y="53" type="curve" smooth="yes"/>
      <point x="156" y="53"/>
      <point x="96" y="76"/>
      <point x="68" y="91" type="curve"/>
      <point x="50" y="24" type="line"/>
      <point x="69" y="12"/>
      <point x="151" y="-15"/>
    </contour>
  </outline>
</glyph>
<glyph name="wynn" format="2">
  <advance width="568.508"/>
  <unicode hex="01BF"/>
  <outline>
    <contour>
      <point x="84" y="-185" type="line"/>
      <point x="159" y="-185" type="line"/>
      <point x="159" y="-50" type="line"/>
      <point x="343" y="5"/>
      <point x="515" y="88"/>
      <point x="515" y="297" type="curve" smooth="yes"/>
      <point x="515" y="443"/>
      <point x="428" y="528"/>
      <point x="275" y="528" type="curve" smooth="yes"/>
      <point x="193" y="528"/>
      <point x="123" y="505"/>
      <point x="84" y="487" type="curve"/>
    </contour>
    <contour>
      <point x="159" y="20" type="curve"/>
      <point x="159" y="440" type="line"/>
      <point x="177" y="448"/>
      <point x="219" y="461"/>
      <point x="274" y="461" type="curve" smooth="yes"/>
      <point x="376" y="461"/>
      <point x="436" y="401"/>
      <point x="436" y="299" type="curve" smooth="yes"/>
      <point x="436" y="117"/>
      <point x="278" y="58"/>
    </contour>
  </outline>
</glyph>
<glyph name="clickalveolar" format="2">
  <advance width="569.114"/>
  <unicode hex="01C2"/>
  <outline>
    <contour>
      <point x="249" y="-185" type="line"/>
      <point x="320" y="-185" type="line"/>
      <point x="320" y="176" type="line"/>
      <point x="521" y="176" type="line"/>
      <point x="521" y="239" type="line"/>
      <point x="320" y="239" type="line"/>
      <point x="320" y="366" type="line"/>
      <point x="521" y="366" type="line"/>
      <point x="521" y="429" type="line"/>
      <point x="320" y="429" type="line"/>
      <point x="320" y="783" type="line"/>
      <point x="249" y="783" type="line"/>
      <point x="249" y="429" type="line"/>
      <point x="48" y="429" type="line"/>
      <point x="48" y="366" type="line"/>
      <point x="249" y="366" type="line"/>
      <point x="249" y="239" type="line"/>
      <point x="48" y="239" type="line"/>
      <point x="48" y="176" type="line"/>
      <point x="249" y="176" type="line"/>
    </contour>
  </outline>
</glyph>
<glyph name="Hwair" format="2">
  <advance width="1048.596"/>
  <unicode hex="01F6"/>
  <outline>
    <contour>
      <point x="748" y="-14" type="curve" smooth="yes"/>
      <point x="924" y="-14"/>
      <point x="971" y="95"/>
      <point x="971" y="242" type="curve"/>
      <point x="971" y="515" type="line"/>
      <point x="893" y="515" type="line"/>
      <point x="893" y="258" type="line" smooth="yes"/>
      <point x="893" y="117"/>
      <point x="853" y="55"/>
      <point x="748" y="55" type="curve"/>
      <point x="643" y="55"/>
      <point x="603" y="117"/>
      <point x="603" y="258" type="curve" smooth="yes"/>
      <point x="603" y="693" type="line"/>
      <point x="525" y="693" type="line"/>
      <point x="525" y="396" type="line"/>
      <point x="167" y="396" type="line"/>
      <point x="167" y="693" type="line"/>
      <point x="89" y="693" type="line"/>
      <point x="89" y="0" type="line"/>
      <point x="167" y="0" type="line"/>
      <point x="167" y="329" type="line"/>
      <point x="525" y="329" type="line"/>
      <point x="525" y="241" type="line"/>
      <point x="525" y="95"/>
      <point x="573" y="-14"/>
    </contour>
  </outline>
</glyph>
<glyph name="Wynn" format="2">
  <advance width="634.674"/>
  <unicode hex="01F7"/>
  <outline>
    <contour>
      <point x="89" y="-185" type="line"/>
      <point x="167" y="-185" type="line"/>
      <point x="167" y="1" type="line"/>
      <point x="401" y="90"/>
      <point x="582" y="210"/>
      <point x="582" y="446" type="curve" smooth="yes"/>
      <point x="582" y="612"/>
      <point x="482" y="699"/>
      <point x="302" y="699" type="curve" smooth="yes"/>
      <point x="220" y="699"/>
      <point x="132" y="668"/>
      <point x="89" y="651" type="curve"/>
    </contour>
    <contour>
      <point x="167" y="76" type="curve"/>
      <point x="167" y="604" type="line"/>
      <point x="191" y="613"/>
      <point x="236" y="632"/>
      <point x="303" y="632" type="curve" smooth="yes"/>
      <point x="428" y="632"/>
      <point x="500" y="571"/>
      <point x="500" y="450" type="curve" smooth="yes"/>
      <point x="500" y="232"/>
      <point x="339" y="149"/>
    </contour>
  </outline>
</glyph>
<glyph name="Nlongrightleg" format="2">
  <advance width="668.56"/>
  <unicode hex="0220"/>
  <outline>
    <contour>
      <point x="505" y="-185" type="line"/>
      <point x="583" y="-185" type="line"/>
      <point x="583" y="435" type="line" smooth="yes"/>
      <point x="583" y="592"/>
      <point x="523" y="707"/>
      <point x="334" y="707" type="curve" smooth="yes"/>
      <point x="232" y="707"/>
      <point x="139" y="688"/>
      <point x="89" y="672" type="curve"/>
      <point x="89" y="0" type="line"/>
      <point x="167" y="0" type="line"/>
      <point x="167" y="619" type="line"/>
      <point x="200" y="629"/>
      <point x="256" y="639"/>
      <point x="323" y="639" type="curve" smooth="yes"/>
      <point x="457" y="639"/>
      <point x="505" y="565"/>
      <point x="505" y="415" type="curve" smooth="yes"/>
    </contour>
  </outline>
</glyph>
<glyph name="OU" format="2">
  <advance width="660.612"/>
  <unicode hex="0222"/>
  <outline>
    <contour>
      <point x="330" y="-5" type="curve"/>
      <point x="521" y="-5"/>
      <point x="610" y="75"/>
      <point x="610" y="201" type="curve" smooth="yes"/>
      <point x="610" y="307"/>
      <point x="532" y="363"/>
      <point x="464" y="381" type="curve"/>
      <point x="529" y="404"/>
      <point x="563" y="456"/>
      <point x="563" y="544" type="curve" smooth="yes"/>
      <point x="563" y="604"/>
      <point x="554" y="649"/>
      <point x="544" y="693" type="curve"/>
      <point x="470" y="693" type="line"/>
      <point x="478" y="654"/>
      <point x="487" y="607"/>
      <point x="487" y="551" type="curve" smooth="yes"/>
      <point x="487" y="458"/>
      <point x="440" y="409"/>
      <point x="330" y="409" type="curve"/>
      <point x="221" y="409"/>
      <point x="174" y="458"/>
      <point x="174" y="551" type="curve" smooth="yes"/>
      <point x="174" y="607"/>
      <point x="183" y="654"/>
      <point x="191" y="693" type="curve"/>
      <point x="117" y="693" type="line"/>
      <point x="106" y="649"/>
      <point x="98" y="604"/>
      <point x="98" y="544" type="curve" smooth="yes"/>
      <point x="98" y="456"/>
      <point x="131" y="404"/>
      <point x="196" y="381" type="curve"/>
      <point x="128" y="363"/>
      <point x="51" y="307"/>
      <point x="51" y="201" type="curve" smooth="yes"/>
      <point x="51" y="75"/>
      <point x="139" y="-5"/>
    </contour>
    <contour>
      <point x="330" y="61" type="curve"/>
      <point x="215" y="61"/>
      <point x="133" y="102"/>
      <point x="133" y="202" type="curve"/>
      <point x="133" y="303"/>
      <point x="215" y="344"/>
      <point x="330" y="344" type="curve" smooth="yes"/>
      <point x="445" y="344"/>
      <point x="528" y="303"/>
      <point x="528" y="202" type="curve" smooth="yes"/>
      <point x="528" y="102"/>
      <point x="445" y="61"/>
    </contour>
  </outline>
</glyph>
<glyph name="zhook" format="2">
  <advance width="460.13"/>
  <unicode hex="0225"/>
  <outline>
    <contour>
      <point x="294" y="-186" type="curve" smooth="yes"/>
      <point x="407" y="-186"/>
      <point x="422" y="-116"/>
      <point x="422" y="-5" type="curve" smooth="yes"/>
      <point x="422" y="63" type="line"/>
      <point x="125" y="63" type="line"/>
      <point x="206" y="207"/>
      <point x="354" y="393"/>
      <point x="414" y="460" type="curve"/>
      <point x="414" y="518" type="line"/>
      <point x="52" y="518" type="line"/>
      <point x="52" y="455" type="line"/>
      <point x="322" y="455" type="line"/>
      <point x="251" y="370"/>
      <point x="105" y="178"/>
      <point x="38" y="52" type="curve"/>
      <point x="38" y="0" type="line"/>
      <point x="354" y="0" type="line"/>
      <point x="354" y="-21" type="line" smooth="yes"/>
      <point x="354" y="-94"/>
      <point x="339" y="-124"/>
      <point x="285" y="-124" type="curve" smooth="yes"/>
      <point x="268" y="-124"/>
      <point x="255" y="-122"/>
      <point x="247" y="-118" type="curve"/>
      <point x="237" y="-177" type="line"/>
      <point x="249" y="-182"/>
      <point x="272" y="-186"/>
    </contour>
  </outline>
</glyph>
<glyph name="zswashtail" format="2">
  <advance width="459.244"/>
  <unicode hex="0240"/>
  <outline>
    <contour>
      <point x="406" y="-183" type="curve" smooth="yes"/>
      <point x="425" y="-183"/>
      <point x="450" y="-180"/>
      <point x="462" y="-177" type="curve"/>
      <point x="453" y="-117" type="line"/>
      <point x="440" y="-120"/>
      <point x="431" y="-120"/>
      <point x="417" y="-120" type="curve" smooth="yes"/>
      <point x="357" y="-120"/>
      <point x="323" y="-76"/>
      <point x="281" y="-34" type="curve" smooth="yes"/>
      <point x="237" y="12"/>
      <point x="189" y="50"/>
      <point x="122" y="60" type="curve"/>
      <point x="208" y="207"/>
      <point x="355" y="394"/>
      <point x="414" y="460" type="curve"/>
      <point x="414" y="518" type="line"/>
      <point x="52" y="518" type="line"/>
      <point x="52" y="455" type="line"/>
      <point x="322" y="455" type="line"/>
      <point x="251" y="370"/>
      <point x="105" y="178"/>
      <point x="38" y="52" type="curve"/>
      <point x="38" y="0" type="line"/>
      <point x="63" y="0" type="line"/>
      <point x="143" y="0"/>
      <point x="183" y="-32"/>
      <point x="222" y="-72" type="curve" smooth="yes"/>
      <point x="278" y="-127"/>
      <point x="313" y="-183"/>
    </contour>
  </outline>
</glyph>
<glyph name="glottalstopsmall" format="2">
  <advance width="411.016"/>
  <unicode hex="0242"/>
  <outline>
    <contour>
      <point x="114" y="0" type="line"/>
      <point x="189" y="0" type="line"/>
      <point x="189" y="113" type="line" smooth="yes"/>
      <point x="189" y="178"/>
      <point x="217" y="201"/>
      <point x="273" y="235" type="curve" smooth="yes"/>
      <point x="328" y="268"/>
      <point x="381" y="306"/>
      <point x="381" y="382" type="curve" smooth="yes"/>
      <point x="381" y="475"/>
      <point x="315" y="530"/>
      <point x="182" y="530" type="curve" smooth="yes"/>
      <point x="104" y="530"/>
      <point x="37" y="501"/>
      <point x="11" y="483" type="curve"/>
      <point x="36" y="422" type="line"/>
      <point x="70" y="446"/>
      <point x="125" y="464"/>
      <point x="183" y="464" type="curve" smooth="yes"/>
      <point x="245" y="464"/>
      <point x="305" y="446"/>
      <point x="305" y="382" type="curve" smooth="yes"/>
      <point x="305" y="336"/>
      <point x="277" y="312"/>
      <point x="228" y="283" type="curve" smooth="yes"/>
      <point x="162" y="243"/>
      <point x="114" y="214"/>
      <point x="114" y="120" type="curve"/>
    </contour>
  </outline>
</glyph>
<glyph name="Bstroke" format="2">
  <advance width="647.192"/>
  <unicode hex="0243"/>
  <outline>
    <contour>
      <point x="275" y="-6" type="curve" smooth="yes"/>
      <point x="491" y="-6"/>
      <point x="593" y="64"/>
      <point x="593" y="197" type="curve" smooth="yes"/>
      <point x="593" y="301"/>
      <point x="537" y="349"/>
      <point x="457" y="370" type="curve"/>
      <point x="519" y="391"/>
      <point x="559" y="446"/>
      <point x="559" y="518" type="curve" smooth="yes"/>
      <point x="559" y="655"/>
      <point x="432" y="699"/>
      <point x="279" y="699" type="curve" smooth="yes"/>
      <point x="227" y="699"/>
      <point x="151" y="693"/>
      <point x="101" y="680" type="curve"/>
      <point x="101" y="225" type="line"/>
      <point x="22" y="225" type="line"/>
      <point x="22" y="168" type="line"/>
      <point x="101" y="168" type="line"/>
      <point x="101" y="13" type="line"/>
      <point x="145" y="1"/>
      <point x="225" y="-6"/>
    </contour>
    <contour>
      <point x="282" y="59" type="curve" smooth="yes"/>
      <point x="242" y="59"/>
      <point x="199" y="63"/>
      <point x="179" y="66" type="curve"/>
      <point x="179" y="168" type="line"/>
      <point x="305" y="168" type="line"/>
      <point x="305" y="225" type="line"/>
      <point x="179" y="225" type="line"/>
      <point x="179" y="329" type="line"/>
      <point x="318" y="329" type="line" smooth="yes"/>
      <point x="438" y="329"/>
      <point x="512" y="300"/>
      <point x="512" y="198" type="curve" smooth="yes"/>
      <point x="512" y="86"/>
      <point x="402" y="59"/>
    </contour>
    <contour>
      <point x="179" y="394" type="line"/>
      <point x="179" y="627" type="line"/>
      <point x="201" y="631"/>
      <point x="235" y="633"/>
      <point x="281" y="633" type="curve" smooth="yes"/>
      <point x="399" y="633"/>
      <point x="479" y="602"/>
      <point x="479" y="515" type="curve" smooth="yes"/>
      <point x="479" y="419"/>
      <point x="404" y="394"/>
      <point x="304" y="394" type="curve" smooth="yes"/>
    </contour>
  </outline>
</glyph>
<glyph name="rstroke" format="2">
  <advance width="387.244"/>
  <unicode hex="024D"/>
  <anchor x="194" y="0" name="bottom"/>
  <anchor x="194" y="518" name="top"/>
  <outline>
    <contour>
      <point x="92" y="0" type="line"/>
      <point x="167" y="0" type="line"/>
      <point x="167" y="211" type="line"/>
      <point x="319" y="211" type="line"/>
      <point x="319" y="268" type="line"/>
      <point x="167" y="268" type="line"/>
      <point x="167" y="447" type="line"/>
      <point x="177" y="452"/>
      <point x="212" y="462"/>
      <point x="263" y="462" type="curve" smooth="yes"/>
      <point x="315" y="462"/>
      <point x="349" y="454"/>
      <point x="361" y="449" type="curve"/>
      <point x="376" y="513" type="line"/>
      <point x="360" y="519"/>
      <point x="314" y="528"/>
      <point x="273" y="528" type="curve" smooth="yes"/>
      <point x="188" y="528"/>
      <point x="127" y="508"/>
      <point x="92" y="494" type="curve"/>
      <point x="92" y="268" type="line"/>
      <point x="16" y="268" type="line"/>
      <point x="16" y="211" type="line"/>
      <point x="92" y="211" type="line"/>
    </contour>
  </outline>
</glyph>
<glyph name="ystroke" format="2">
  <advance width="512.498"/>
  <unicode hex="024F"/>
  <anchor x="256" y="0" name="bottom"/>
  <anchor x="256" y="518" name="top"/>
  <outline>
    <contour>
      <point x="96" y="-188" type="curve" smooth="yes"/>
      <point x="213" y="-188"/>
      <point x="261" y="-136"/>
      <point x="313" y="-16" type="curve" smooth="yes"/>
      <point x="348" y="66"/>
      <point x="381" y="158"/>
      <point x="410" y="257" type="curve"/>
      <point x="496" y="257" type="line"/>
      <point x="496" y="314" type="line"/>
      <point x="428" y="314" type="line"/>
      <point x="446" y="380"/>
      <point x="463" y="449"/>
      <point x="479" y="518" type="curve"/>
      <point x="405" y="518" type="line"/>
      <point x="388" y="444"/>
      <point x="372" y="378"/>
      <point x="355" y="314" type="curve"/>
      <point x="177" y="314" type="line"/>
      <point x="151" y="388"/>
      <point x="130" y="458"/>
      <point x="116" y="518" type="curve"/>
      <point x="37" y="518" type="line"/>
      <point x="54" y="451"/>
      <point x="75" y="383"/>
      <point x="100" y="314" type="curve"/>
      <point x="26" y="314" type="line"/>
      <point x="26" y="257" type="line"/>
      <point x="121" y="257" type="line"/>
      <point x="157" y="164"/>
      <point x="199" y="75"/>
      <point x="243" y="-7" type="curve"/>
      <point x="209" y="-95"/>
      <point x="171" y="-125"/>
      <point x="98" y="-125" type="curve" smooth="yes"/>
      <point x="72" y="-125"/>
      <point x="43" y="-115"/>
      <point x="35" y="-111" type="curve"/>
      <point x="20" y="-172" type="line"/>
      <point x="28" y="-177"/>
      <point x="61" y="-188"/>
    </contour>
    <contour>
      <point x="280" y="67" type="curve"/>
      <point x="249" y="128"/>
      <point x="222" y="193"/>
      <point x="197" y="257" type="curve"/>
      <point x="340" y="257" type="line"/>
      <point x="323" y="195"/>
      <point x="304" y="134"/>
    </contour>
  </outline>
</glyph>
<glyph name="dotaccent" format="2">
  <advance width="361.18"/>
  <unicode hex="02D9"/>
  <outline>
    <contour>
      <point x="181" y="620" type="curve" smooth="yes"/>
      <point x="209" y="620"/>
      <point x="232" y="642"/>
      <point x="232" y="674" type="curve" smooth="yes"/>
      <point x="232" y="706"/>
      <point x="209" y="727"/>
      <point x="181" y="727" type="curve" smooth="yes"/>
      <point x="152" y="727"/>
      <point x="129" y="706"/>
      <point x="129" y="674" type="curve" smooth="yes"/>
      <point x="129" y="642"/>
      <point x="152" y="620"/>
    </contour>
  </outline>
</glyph>
<glyph name="ring" format="2">
  <advance width="370.072"/>
  <unicode hex="02DA"/>
  <outline>
    <contour>
      <point x="185" y="580" type="curve" smooth="yes"/>
      <point x="237" y="580"/>
      <point x="283" y="619"/>
      <point x="283" y="679" type="curve" smooth="yes"/>
      <point x="283" y="738"/>
      <point x="237" y="776"/>
      <point x="185" y="776" type="curve" smooth="yes"/>
      <point x="132" y="776"/>
      <point x="87" y="738"/>
      <point x="87" y="679" type="curve" smooth="yes"/>
      <point x="87" y="619"/>
      <point x="132" y="580"/>
    </contour>
    <contour>
      <point x="185" y="621" type="curve" smooth="yes"/>
      <point x="154" y="621"/>
      <point x="129" y="641"/>
      <point x="129" y="679" type="curve" smooth="yes"/>
      <point x="129" y="715"/>
      <point x="154" y="736"/>
      <point x="185" y="736" type="curve" smooth="yes"/>
      <point x="216" y="736"/>
      <point x="241" y="715"/>
      <point x="241" y="679" type="curve" smooth="yes"/>
      <point x="241" y="641"/>
      <point x="216" y="621"/>
    </contour>
  </outline>
</glyph>
<glyph name="tilde" format="2">
  <advance width="375.658"/>
  <unicode hex="02DC"/>
  <outline>
    <contour>
      <point x="69" y="620" type="line"/>
      <point x="82" y="643"/>
      <point x="96" y="665"/>
      <point x="124" y="665" type="curve" smooth="yes"/>
      <point x="166" y="665"/>
      <point x="197" y="626"/>
      <point x="252" y="626" type="curve" smooth="yes"/>
      <point x="306" y="626"/>
      <point x="336" y="676"/>
      <point x="350" y="709" type="curve"/>
      <point x="308" y="730" type="line"/>
      <point x="295" y="707"/>
      <point x="281" y="686"/>
      <point x="253" y="686" type="curve" smooth="yes"/>
      <point x="212" y="686"/>
      <point x="180" y="724"/>
      <point x="126" y="724" type="curve"/>
      <point x="72" y="724"/>
      <point x="41" y="675"/>
      <point x="27" y="642" type="curve"/>
    </contour>
  </outline>
</glyph>
<glyph name="gravecomb" format="2">
  <unicode hex="0300"/>
  <anchor x="0" y="518" name="_top"/>
  <anchor x="0" y="776" name="top"/>
  <outline>
    <contour>
      <point x="35" y="582" type="line"/>
      <point x="72" y="623" type="line"/>
      <point x="-84" y="776" type="line"/>
      <point x="-136" y="721" type="line"/>
    </contour>
  </outline>
</glyph>
<glyph name="acutecomb" format="2">
  <unicode hex="0301"/>
  <anchor x="-3" y="518" name="_top"/>
  <anchor x="-3" y="776" name="top"/>
  <outline>
    <contour>
      <point x="-37" y="582" type="line"/>
      <point x="134" y="721" type="line"/>
      <point x="82" y="776" type="line"/>
      <point x="-74" y="623" type="line"/>
    </contour>
  </outline>
</glyph>
<glyph name="dotaccentcomb" format="2">
  <unicode hex="0307"/>
  <anchor x="0" y="518" name="_top"/>
  <anchor x="0" y="727" name="top"/>
  <outline>
    <contour>
      <point x="0" y="620" type="curve" smooth="yes"/>
      <point x="28" y="620"/>
      <point x="52" y="642"/>
      <point x="52" y="674" type="curve" smooth="yes"/>
      <point x="52" y="706"/>
      <point x="28" y="727"/>
      <point x="0" y="727" type="curve" smooth="yes"/>
      <point x="-29" y="727"/>
      <point x="-52" y="706"/>
      <point x="-52" y="674" type="curve" smooth="yes"/>
      <point x="-52" y="642"/>
      <point x="-29" y="620"/>
    </contour>
  </outline>
</glyph>
<glyph name="dieresiscomb" format="2">
  <unicode hex="0308"/>
  <anchor x="0" y="518" name="_top"/>
  <anchor x="0" y="725" name="top"/>
  <outline>
    <contour>
      <point x="88" y="622" type="curve" smooth="yes"/>
      <point x="116" y="622"/>
      <point x="138" y="643"/>
      <point x="138" y="674" type="curve" smooth="yes"/>
      <point x="138" y="705"/>
      <point x="116" y="725"/>
      <point x="88" y="725" type="curve" smooth="yes"/>
      <point x="60" y="725"/>
      <point x="38" y="705"/>
      <point x="38" y="674" type="curve" smooth="yes"/>
      <point x="38" y="643"/>
      <point x="60" y="622"/>
    </contour>
    <contour>
      <point x="-89" y="622" type="curve" smooth="yes"/>
      <point x="-61" y="622"/>
      <point x="-39" y="643"/>
      <point x="-39" y="674" type="curve" smooth="yes"/>
      <point x="-39" y="705"/>
      <point x="-61" y="725"/>
      <point x="-89" y="725" type="curve" smooth="yes"/>
      <point x="-117" y="725"/>
      <point x="-138" y="705"/>
      <point x="-138" y="674" type="curve" smooth="yes"/>
      <point x="-138" y="643"/>
      <point x="-117" y="622"/>
    </contour>
  </outline>
</glyph>
<glyph name="breveinvertedcomb" format="2">
  <unicode hex="0311"/>
  <anchor x="0" y="518" name="_top"/>
  <anchor x="0" y="747" name="top"/>
  <outline>
    <contour>
      <point x="-127" y="610" type="curve"/>
      <point x="-77" y="610" type="line"/>
      <point x="-76" y="634"/>
      <point x="-67" y="687"/>
      <point x="0" y="687" type="curve" smooth="yes"/>
      <point x="66" y="687"/>
      <point x="76" y="634"/>
      <point x="78" y="610" type="curve"/>
      <point x="127" y="610" type="line"/>
      <point x="130" y="704"/>
      <point x="68" y="747"/>
      <point x="0" y="747" type="curve" smooth="yes"/>
      <point x="-68" y="747"/>
      <point x="-129" y="704"/>
    </contour>
  </outline>
</glyph>
<glyph name="strokeshortcomb" format="2">
  <unicode hex="0335"/>
  <anchor x="157" y="275" name="_center"/>
  <outline>
    <contour>
      <point x="32" y="246" type="line"/>
      <point x="282" y="246" type="line"/>
      <point x="282" y="304" type="line"/>
      <point x="32" y="304" type="line"/>
    </contour>
  </outline>
</glyph>
<glyph name="tonos" format="2">
  <advance width="300"/>
  <unicode hex="0384"/>
  <anchor x="123" y="518" name="_top"/>
  <outline>
    <contour>
      <point x="107" y="576" type="line"/>
      <point x="238" y="739" type="line"/>
      <point x="176" y="782" type="line"/>
      <point x="63" y="608" type="line"/>
    </contour>
  </outline>
</glyph>
<glyph name="Phi" format="2">
  <advance width="861.14"/>
  <unicode hex="03A6"/>
  <outline>
    <contour>
      <point x="393" y="0" type="line"/>
      <point x="468" y="0" type="line"/>
      <point x="468" y="86" type="line"/>
      <point x="627" y="87"/>
      <point x="801" y="172"/>
      <point x="801" y="371" type="curve"/>
      <point x="801" y="569"/>
      <point x="627" y="655"/>
      <point x="468" y="656" type="curve"/>
      <point x="468" y="738" type="line"/>
      <point x="393" y="738" type="line"/>
      <point x="393" y="656" type="line"/>
      <point x="234" y="655"/>
      <point x="60" y="569"/>
      <point x="60" y="371" type="curve" smooth="yes"/>
      <point x="60" y="172"/>
      <point x="234" y="87"/>
      <point x="393" y="86" type="curve"/>
    </contour>
    <contour>
      <point x="393" y="150" type="line"/>
      <point x="253" y="151"/>
      <point x="142" y="221"/>
      <point x="142" y="371" type="curve" smooth="yes"/>
      <point x="142" y="520"/>
      <point x="253" y="591"/>
      <point x="393" y="592" type="curve"/>
    </contour>
    <contour>
      <point x="468" y="150" type="curve"/>
      <point x="468" y="592" type="line"/>
      <point x="608" y="591"/>
      <point x="720" y="520"/>
      <point x="720" y="371" type="curve" smooth="yes"/>
      <point x="720" y="221"/>
      <point x="608" y="151"/>
    </contour>
  </outline>
</glyph>
<glyph name="Omega" format="2">
  <advance width="780.342"/>
  <unicode hex="03A9"/>
  <anchor x="390" y="0" name="bottom"/>
  <anchor x="20" y="693" name="topleft"/>
  <outline>
    <contour>
      <point x="54" y="0" type="line"/>
      <point x="314" y="0" type="line"/>
      <point x="314" y="52" type="line"/>
      <point x="223" y="120"/>
      <point x="152" y="221"/>
      <point x="152" y="370" type="curve" smooth="yes"/>
      <point x="152" y="538"/>
      <point x="249" y="639"/>
      <point x="390" y="639" type="curve"/>
      <point x="532" y="639"/>
      <point x="628" y="538"/>
      <point x="628" y="370" type="curve" smooth="yes"/>
      <point x="628" y="221"/>
      <point x="557" y="120"/>
      <point x="467" y="52" type="curve"/>
      <point x="467" y="0" type="line"/>
      <point x="726" y="0" type="line"/>
      <point x="726" y="66" type="line"/>
      <point x="575" y="66" type="line"/>
      <point x="636" y="122"/>
      <point x="710" y="224"/>
      <point x="710" y="368" type="curve" smooth="yes"/>
      <point x="710" y="592"/>
      <point x="565" y="708"/>
      <point x="390" y="708" type="curve" smooth="yes"/>
      <point x="216" y="708"/>
      <point x="70" y="592"/>
      <point x="70" y="368" type="curve" smooth="yes"/>
      <point x="70" y="224"/>
      <point x="144" y="122"/>
      <point x="205" y="66" type="curve"/>
      <point x="54" y="66" type="line"/>
    </contour>
  </outline>
</glyph>
<glyph name="beta" format="2">
  <advance width="603.332"/>
  <unicode hex="03B2"/>
  <outline>
    <contour>
      <point x="84" y="-185" type="line"/>
      <point x="159" y="-185" type="line"/>
      <point x="159" y="27" type="line"/>
      <point x="178" y="15"/>
      <point x="231" y="-8"/>
      <point x="301" y="-8" type="curve" smooth="yes"/>
      <point x="465" y="-8"/>
      <point x="550" y="78"/>
      <point x="550" y="222" type="curve" smooth="yes"/>
      <point x="550" y="315"/>
      <point x="506" y="399"/>
      <point x="387" y="431" type="curve"/>
      <point x="460" y="457"/>
      <point x="501" y="520"/>
      <point x="501" y="589" type="curve" smooth="yes"/>
      <point x="501" y="714"/>
      <point x="410" y="776"/>
      <point x="299" y="776" type="curve" smooth="yes"/>
      <point x="142" y="776"/>
      <point x="84" y="677"/>
      <point x="84" y="544" type="curve" smooth="yes"/>
    </contour>
    <contour>
      <point x="300" y="59" type="curve" smooth="yes"/>
      <point x="230" y="59"/>
      <point x="175" y="85"/>
      <point x="159" y="98" type="curve"/>
      <point x="159" y="542" type="line"/>
      <point x="159" y="644"/>
      <point x="195" y="711"/>
      <point x="297" y="711" type="curve" smooth="yes"/>
      <point x="382" y="711"/>
      <point x="424" y="658"/>
      <point x="424" y="587" type="curve" smooth="yes"/>
      <point x="424" y="503"/>
      <point x="363" y="452"/>
      <point x="272" y="452" type="curve" smooth="yes"/>
      <point x="263" y="452" type="line"/>
      <point x="263" y="389" type="line"/>
      <point x="270" y="389" type="line" smooth="yes"/>
      <point x="412" y="389"/>
      <point x="471" y="324"/>
      <point x="471" y="221" type="curve" smooth="yes"/>
      <point x="471" y="116"/>
      <point x="402" y="59"/>
    </contour>
  </outline>
</glyph>
<glyph name="theta" format="2">
  <advance width="596.394"/>
  <unicode hex="03B8"/>
  <outline>
    <contour>
      <point x="298" y="-14" type="curve" smooth="yes"/>
      <point x="461" y="-14"/>
      <point x="539" y="146"/>
      <point x="539" y="381" type="curve" smooth="yes"/>
      <point x="539" y="616"/>
      <point x="461" y="776"/>
      <point x="298" y="776" type="curve" smooth="yes"/>
      <point x="135" y="776"/>
      <point x="58" y="616"/>
      <point x="58" y="381" type="curve" smooth="yes"/>
      <point x="58" y="146"/>
      <point x="135" y="-14"/>
    </contour>
    <contour>
      <point x="298" y="53" type="curve" smooth="yes"/>
      <point x="189" y="53"/>
      <point x="138" y="166"/>
      <point x="135" y="355" type="curve"/>
      <point x="461" y="355" type="line"/>
      <point x="457" y="166"/>
      <point x="407" y="53"/>
    </contour>
    <contour>
      <point x="135" y="418" type="line"/>
      <point x="141" y="600"/>
      <point x="191" y="709"/>
      <point x="298" y="709" type="curve" smooth="yes"/>
      <point x="405" y="709"/>
      <point x="456" y="600"/>
      <point x="460" y="418" type="curve"/>
    </contour>
  </outline>
</glyph>
<glyph name="lambda" format="2">
  <advance width="498.27"/>
  <unicode hex="03BB"/>
  <outline>
    <contour>
      <point x="18" y="0" type="curve"/>
      <point x="94.006" y="0" type="line"/>
      <point x="123" y="117"/>
      <point x="178" y="285"/>
      <point x="262" y="445" type="curve"/>
      <point x="316" y="300"/>
      <point x="367" y="135"/>
      <point x="401" y="0" type="curve"/>
      <point x="479" y="0" type="line"/>
      <point x="428" y="186"/>
      <point x="360" y="402"/>
      <point x="261" y="643" type="curve"/>
      <point x="231" y="713"/>
      <point x="192" y="776"/>
      <point x="98" y="776" type="curve" smooth="yes"/>
      <point x="67" y="776"/>
      <point x="43" y="771"/>
      <point x="31" y="766" type="curve"/>
      <point x="44" y="705" type="line"/>
      <point x="53" y="708"/>
      <point x="66" y="712"/>
      <point x="84" y="712" type="curve" smooth="yes"/>
      <point x="146" y="712"/>
      <point x="164" y="688"/>
      <point x="204" y="594" type="curve" smooth="yes"/>
      <point x="212" y="574"/>
      <point x="221" y="550"/>
      <point x="231" y="526" type="curve"/>
      <point x="141" y="359"/>
      <point x="52" y="140"/>
    </contour>
  </outline>
</glyph>
<glyph name="nu" format="2">
  <advance width="482.384"/>
  <unicode hex="03BD"/>
  <outline>
    <contour>
      <point x="171" y="0" type="curve"/>
      <point x="245" y="0" type="line"/>
      <point x="346" y="160"/>
      <point x="430" y="319"/>
      <point x="466" y="518" type="curve"/>
      <point x="391" y="518" type="line"/>
      <point x="365" y="363"/>
      <point x="293" y="204"/>
      <point x="223" y="79" type="curve"/>
      <point x="204" y="216"/>
      <point x="150" y="387"/>
      <point x="96" y="518" type="curve"/>
      <point x="18" y="518" type="line"/>
      <point x="86" y="360"/>
      <point x="149" y="142"/>
    </contour>
  </outline>
</glyph>
<glyph name="rho" format="2">
  <advance width="590.736"/>
  <unicode hex="03C1"/>
  <anchor x="298" y="518" name="top"/>
  <outline>
    <contour>
      <point x="79" y="-185" type="line"/>
      <point x="153" y="-185" type="line"/>
      <point x="153" y="28" type="line"/>
      <point x="177" y="12"/>
      <point x="228" y="-12"/>
      <point x="295" y="-12" type="curve"/>
      <point x="454" y="-12"/>
      <point x="537" y="105"/>
      <point x="537" y="259" type="curve" smooth="yes"/>
      <point x="537" y="438"/>
      <point x="453" y="528"/>
      <point x="298" y="528" type="curve" smooth="yes"/>
      <point x="151" y="528"/>
      <point x="79" y="434"/>
      <point x="79" y="290" type="curve" smooth="yes"/>
    </contour>
    <contour>
      <point x="288" y="55" type="curve" smooth="yes"/>
      <point x="238" y="55"/>
      <point x="189" y="70"/>
      <point x="153" y="98" type="curve"/>
      <point x="153" y="276" type="line"/>
      <point x="153" y="404"/>
      <point x="204" y="461"/>
      <point x="298" y="461" type="curve" smooth="yes"/>
      <point x="418" y="461"/>
      <point x="458" y="381"/>
      <point x="458" y="258" type="curve" smooth="yes"/>
      <point x="458" y="151"/>
      <point x="416" y="55"/>
    </contour>
  </outline>
</glyph>
<glyph name="sigma" format="2">
  <advance width="609.736"/>
  <unicode hex="03C3"/>
  <outline>
    <contour>
      <point x="291" y="-12" type="curve" smooth="yes"/>
      <point x="431" y="-12"/>
      <point x="526" y="81"/>
      <point x="526" y="237" type="curve" smooth="yes"/>
      <point x="526" y="329"/>
      <point x="484" y="407"/>
      <point x="440" y="455" type="curve"/>
      <point x="591" y="455" type="line"/>
      <point x="591" y="518" type="line"/>
      <point x="330" y="518" type="line" smooth="yes"/>
      <point x="193" y="518"/>
      <point x="54" y="447"/>
      <point x="54" y="241" type="curve" smooth="yes"/>
      <point x="54" y="83"/>
      <point x="157" y="-12"/>
    </contour>
    <contour>
      <point x="291" y="55" type="curve" smooth="yes"/>
      <point x="199" y="55"/>
      <point x="132" y="124"/>
      <point x="132" y="241" type="curve" smooth="yes"/>
      <point x="132" y="428"/>
      <point x="261" y="455"/>
      <point x="326" y="455" type="curve" smooth="yes"/>
      <point x="355" y="455" type="line"/>
      <point x="411" y="406"/>
      <point x="449" y="323"/>
      <point x="449" y="236" type="curve"/>
      <point x="449" y="121"/>
      <point x="389" y="55"/>
    </contour>
  </outline>
</glyph>
<glyph name="tau" format="2">
  <advance width="434.27"/>
  <unicode hex="03C4"/>
  <outline>
    <contour>
      <point x="315" y="-8" type="curve" smooth="yes"/>
      <point x="354" y="-8"/>
      <point x="385" y="-1"/>
      <point x="398" y="4" type="curve"/>
      <point x="391" y="68" type="line"/>
      <point x="373" y="63"/>
      <point x="356" y="59"/>
      <point x="327" y="59" type="curve" smooth="yes"/>
      <point x="264" y="59"/>
      <point x="232" y="85"/>
      <point x="232" y="190" type="curve" smooth="yes"/>
      <point x="232" y="455" type="line"/>
      <point x="412" y="455" type="line"/>
      <point x="412" y="518" type="line"/>
      <point x="19" y="518" type="line"/>
      <point x="19" y="455" type="line"/>
      <point x="157" y="455" type="line"/>
      <point x="157" y="190" type="line" smooth="yes"/>
      <point x="157" y="65"/>
      <point x="190" y="-8"/>
    </contour>
  </outline>
</glyph>
<glyph name="chi" format="2">
  <advance width="494.814"/>
  <unicode hex="03C7"/>
  <outline>
    <contour>
      <point x="15" y="-185" type="curve"/>
      <point x="93" y="-185" type="line"/>
      <point x="118" y="-115"/>
      <point x="174" y="9"/>
      <point x="246" y="134" type="curve"/>
      <point x="316" y="14"/>
      <point x="373" y="-114"/>
      <point x="399" y="-185" type="curve"/>
      <point x="480" y="-185" type="line"/>
      <point x="434" y="-67"/>
      <point x="362" y="70"/>
      <point x="289" y="193" type="curve"/>
      <point x="463" y="518" type="line"/>
      <point x="380" y="518" type="line"/>
      <point x="247" y="252" type="line"/>
      <point x="113" y="518" type="line"/>
      <point x="26" y="518" type="line"/>
      <point x="203" y="190" type="line"/>
      <point x="124" y="54"/>
      <point x="61" y="-69"/>
    </contour>
  </outline>
</glyph>
<glyph name="Tshe-cy" format="2">
  <advance width="733.788"/>
  <unicode hex="040B"/>
  <outline>
    <contour>
      <point x="225" y="0" type="line"/>
      <point x="303" y="0" type="line"/>
      <point x="303" y="348" type="line"/>
      <point x="319" y="353"/>
      <point x="375" y="366"/>
      <point x="435" y="366" type="curve"/>
      <point x="548" y="366"/>
      <point x="591" y="317"/>
      <point x="591" y="210" type="curve" smooth="yes"/>
      <point x="591" y="0" type="line"/>
      <point x="669" y="0" type="line"/>
      <point x="669" y="211" type="line" smooth="yes"/>
      <point x="669" y="347"/>
      <point x="613" y="434"/>
      <point x="441" y="434" type="curve" smooth="yes"/>
      <point x="378" y="434"/>
      <point x="324" y="421"/>
      <point x="303" y="415" type="curve"/>
      <point x="303" y="626" type="line"/>
      <point x="547" y="626" type="line"/>
      <point x="547" y="693" type="line"/>
      <point x="18" y="693" type="line"/>
      <point x="18" y="626" type="line"/>
      <point x="225" y="626" type="line"/>
    </contour>
  </outline>
</glyph>
<glyph name="De-cy" format="2">
  <advance width="697.074"/>
  <unicode hex="0414"/>
  <outline>
    <contour>
      <point x="18" y="-185" type="line"/>
      <point x="93" y="-185" type="line"/>
      <point x="93" y="0" type="line"/>
      <point x="591" y="0" type="line"/>
      <point x="591" y="-185" type="line"/>
      <point x="666" y="-185" type="line"/>
      <point x="666" y="67" type="line"/>
      <point x="594" y="67" type="line"/>
      <point x="594" y="693" type="line"/>
      <point x="223" y="693" type="line"/>
      <point x="223" y="445"/>
      <point x="216" y="208"/>
      <point x="85" y="67" type="curve"/>
      <point x="18" y="67" type="line"/>
    </contour>
    <contour>
      <point x="177" y="67" type="line"/>
      <point x="288" y="209"/>
      <point x="299" y="436"/>
      <point x="299" y="626" type="curve"/>
      <point x="517" y="626" type="line"/>
      <point x="517" y="67" type="line"/>
    </contour>
  </outline>
</glyph>
<glyph name="Ii-cy" format="2">
  <advance width="714.358"/>
  <unicode hex="0418"/>
  <anchor x="694" y="0" name="bottomright"/>
  <anchor x="359" y="673" name="top"/>
  <outline>
    <contour>
      <point x="89" y="0" type="line"/>
      <point x="154" y="0" type="line"/>
      <point x="233" y="141"/>
      <point x="431" y="432"/>
      <point x="549" y="569" type="curve"/>
      <point x="549" y="0" type="line"/>
      <point x="625" y="0" type="line"/>
      <point x="625" y="693" type="line"/>
      <point x="563" y="693" type="line"/>
      <point x="432" y="548"/>
      <point x="250" y="294"/>
      <point x="166" y="147" type="curve"/>
      <point x="166" y="693" type="line"/>
      <point x="89" y="693" type="line"/>
    </contour>
  </outline>
</glyph>
<glyph name="El-cy" format="2">
  <advance width="692.426"/>
  <unicode hex="041B"/>
  <outline>
    <contour>
      <point x="23" y="-9" type="line"/>
      <point x="156" y="-3"/>
      <point x="226" y="90"/>
      <point x="261" y="203" type="curve"/>
      <point x="299" y="325"/>
      <point x="305" y="463"/>
      <point x="306" y="626" type="curve"/>
      <point x="526" y="626" type="line"/>
      <point x="526" y="0" type="line"/>
      <point x="604" y="0" type="line"/>
      <point x="604" y="693" type="line"/>
      <point x="230" y="693" type="line"/>
      <point x="230" y="468"/>
      <point x="221" y="328"/>
      <point x="186" y="222" type="curve" smooth="yes"/>
      <point x="153" y="121"/>
      <point x="107" y="69"/>
      <point x="15" y="58" type="curve"/>
    </contour>
  </outline>
</glyph>
<glyph name="Che-cy" format="2">
  <advance width="617.094"/>
  <unicode hex="0427"/>
  <anchor x="597" y="0" name="bottomright"/>
  <anchor x="295" y="673" name="top"/>
  <outline>
    <contour>
      <point x="450" y="0" type="line"/>
      <point x="528" y="0" type="line"/>
      <point x="528" y="693" type="line"/>
      <point x="450" y="693" type="line"/>
      <point x="450" y="336" type="line"/>
      <point x="432" y="331"/>
      <point x="373" y="317"/>
      <point x="311" y="317" type="curve" smooth="yes"/>
      <point x="169" y="317"/>
      <point x="143" y="378"/>
      <point x="143" y="498" type="curve" smooth="yes"/>
      <point x="143" y="693" type="line"/>
      <point x="65" y="693" type="line"/>
      <point x="65" y="497" type="line" smooth="yes"/>
      <point x="65" y="357"/>
      <point x="88" y="249"/>
      <point x="304" y="249" type="curve" smooth="yes"/>
      <point x="370" y="249"/>
      <point x="427" y="262"/>
      <point x="450" y="268" type="curve"/>
    </contour>
  </outline>
</glyph>
<glyph name="Yeru-cy" format="2">
  <advance width="833.97"/>
  <unicode hex="042B"/>
  <anchor x="417" y="673" name="top"/>
  <outline>
    <contour>
      <point x="264" y="-6" type="curve" smooth="yes"/>
      <point x="462" y="-6"/>
      <point x="557" y="75"/>
      <point x="557" y="216" type="curve" smooth="yes"/>
      <point x="557" y="363"/>
      <point x="458" y="438"/>
      <point x="266" y="438" type="curve" smooth="yes"/>
      <point x="236" y="438"/>
      <point x="190" y="435"/>
      <point x="167" y="432" type="curve"/>
      <point x="167" y="693" type="line"/>
      <point x="89" y="693" type="line"/>
      <point x="89" y="13" type="line"/>
      <point x="140" y="0"/>
      <point x="211" y="-6"/>
    </contour>
    <contour>
      <point x="268" y="61" type="curve" smooth="yes"/>
      <point x="224" y="61"/>
      <point x="191" y="65"/>
      <point x="167" y="67" type="curve"/>
      <point x="167" y="365" type="line"/>
      <point x="189" y="368"/>
      <point x="226" y="371"/>
      <point x="267" y="371" type="curve" smooth="yes"/>
      <point x="386" y="371"/>
      <point x="476" y="338"/>
      <point x="476" y="216" type="curve" smooth="yes"/>
      <point x="476" y="92"/>
      <point x="380" y="61"/>
    </contour>
    <contour>
      <point x="667" y="0" type="line"/>
      <point x="745" y="0" type="line"/>
      <point x="745" y="693" type="line"/>
      <point x="667" y="693" type="line"/>
    </contour>
  </outline>
</glyph>
<glyph name="Ereversed-cy" format="2">
  <advance width="612.778"/>
  <unicode hex="042D"/>
  <anchor x="251" y="673" name="top"/>
  <outline>
    <contour>
      <point x="226" y="-15" type="curve" smooth="yes"/>
      <point x="416" y="-15"/>
      <point x="552" y="111"/>
      <point x="552" y="346" type="curve" smooth="yes"/>
      <point x="552" y="581"/>
      <point x="414" y="708"/>
      <point x="234" y="708" type="curve" smooth="yes"/>
      <point x="134" y="708"/>
      <point x="60" y="681"/>
      <point x="33" y="665" type="curve"/>
      <point x="54" y="600" type="line"/>
      <point x="86" y="617"/>
      <point x="145" y="639"/>
      <point x="227" y="639" type="curve" smooth="yes"/>
      <point x="371" y="639"/>
      <point x="456" y="543"/>
      <point x="467" y="388" type="curve"/>
      <point x="158" y="388" type="line"/>
      <point x="158" y="321" type="line"/>
      <point x="469" y="321" type="line"/>
      <point x="462" y="161"/>
      <point x="384" y="55"/>
      <point x="220" y="55" type="curve" smooth="yes"/>
      <point x="140" y="55"/>
      <point x="85" y="77"/>
      <point x="53" y="94" type="curve"/>
      <point x="30" y="28" type="line"/>
      <point x="60" y="11"/>
      <point x="133" y="-15"/>
    </contour>
  </outline>
</glyph>
<glyph name="de-cy" format="2">
  <advance width="585.856"/>
  <unicode hex="0434"/>
  <outline>
    <contour>
      <point x="16" y="-144" type="line"/>
      <point x="86" y="-144" type="line"/>
      <point x="86" y="0" type="line"/>
      <point x="486" y="0" type="line"/>
      <point x="486" y="-144" type="line"/>
      <point x="556" y="-144" type="line"/>
      <point x="556" y="63" type="line"/>
      <point x="494" y="63" type="line"/>
      <point x="494" y="518" type="line"/>
      <point x="167" y="518" type="line"/>
      <point x="167" y="316"/>
      <point x="156" y="195"/>
      <point x="70" y="63" type="curve"/>
      <point x="16" y="63" type="line"/>
    </contour>
    <contour>
      <point x="149" y="63" type="line"/>
      <point x="223" y="186"/>
      <point x="236" y="317"/>
      <point x="237" y="455" type="curve"/>
      <point x="419" y="455" type="line"/>
      <point x="419" y="63" type="line"/>
    </contour>
  </outline>
</glyph>
<glyph name="ka-cy" format="2">
  <advance width="515.12"/>
  <unicode hex="043A"/>
  <anchor x="495" y="0" name="bottomright"/>
  <anchor x="268" y="518" name="top"/>
  <outline>
    <contour>
      <point x="84" y="0" type="line"/>
      <point x="159" y="0" type="line"/>
      <point x="159" y="250" type="line"/>
      <point x="235" y="205"/>
      <point x="349" y="96"/>
      <point x="410" y="0" type="curve"/>
      <point x="498" y="0" type="line"/>
      <point x="443" y="94"/>
      <point x="328" y="218"/>
      <point x="237" y="277" type="curve"/>
      <point x="302" y="337"/>
      <point x="417" y="451"/>
      <point x="478" y="518" type="curve"/>
      <point x="389" y="518" type="line"/>
      <point x="344" y="468"/>
      <point x="232" y="355"/>
      <point x="159" y="285" type="curve"/>
      <point x="159" y="518" type="line"/>
      <point x="84" y="518" type="line"/>
    </contour>
  </outline>
</glyph>
<glyph name="en-cy" format="2">
  <advance width="584.14"/>
  <unicode hex="043D"/>
  <anchor x="564" y="0" name="bottomright"/>
  <outline>
    <contour>
      <point x="84" y="0" type="line"/>
      <point x="159" y="0" type="line"/>
      <point x="159" y="237" type="line"/>
      <point x="425" y="237" type="line"/>
      <point x="425" y="0" type="line"/>
      <point x="500" y="0" type="line"/>
      <point x="500" y="518" type="line"/>
      <point x="425" y="518" type="line"/>
      <point x="425" y="300" type="line"/>
      <point x="159" y="300" type="line"/>
      <point x="159" y="518" type="line"/>
      <point x="84" y="518" type="line"/>
    </contour>
  </outline>
</glyph>
<glyph name="che-cy" format="2">
  <advance width="523.7"/>
  <unicode hex="0447"/>
  <anchor x="504" y="0" name="bottomright"/>
  <anchor x="243" y="518" name="top"/>
  <outline>
    <contour>
      <point x="365" y="0" type="line"/>
      <point x="440" y="0" type="line"/>
      <point x="440" y="518" type="line"/>
      <point x="365" y="518" type="line"/>
      <point x="365" y="271" type="line"/>
      <point x="340" y="263"/>
      <point x="306" y="255"/>
      <point x="244" y="255" type="curve" smooth="yes"/>
      <point x="166" y="255"/>
      <point x="122" y="284"/>
      <point x="122" y="375" type="curve" smooth="yes"/>
      <point x="122" y="518" type="line"/>
      <point x="48" y="518" type="line"/>
      <point x="48" y="371" type="line" smooth="yes"/>
      <point x="48" y="235"/>
      <point x="122" y="190"/>
      <point x="239" y="190" type="curve" smooth="yes"/>
      <point x="290" y="190"/>
      <point x="346" y="203"/>
      <point x="365" y="208" type="curve"/>
    </contour>
  </outline>
</glyph>
<glyph name="ya-cy" format="2">
  <advance width="537.928"/>
  <unicode hex="044F"/>
  <anchor x="269" y="518" name="top"/>
  <outline>
    <contour>
      <point x="30" y="0" type="curve"/>
      <point x="107" y="0" type="line"/>
      <point x="135" y="62"/>
      <point x="187" y="148"/>
      <point x="228" y="208" type="curve"/>
      <point x="241" y="206"/>
      <point x="264" y="206"/>
      <point x="291" y="206" type="curve" smooth="yes"/>
      <point x="379" y="206" type="line"/>
      <point x="379" y="0" type="line"/>
      <point x="454" y="0" type="line"/>
      <point x="454" y="506" type="line"/>
      <point x="416" y="517"/>
      <point x="329" y="529"/>
      <point x="275" y="529" type="curve" smooth="yes"/>
      <point x="150" y="529"/>
      <point x="58" y="476"/>
      <point x="58" y="362" type="curve"/>
      <point x="58" y="282"/>
      <point x="108" y="239"/>
      <point x="160" y="223" type="curve"/>
      <point x="119" y="164"/>
      <point x="65" y="79"/>
    </contour>
    <contour>
      <point x="281" y="266" type="line" smooth="yes"/>
      <point x="193" y="266"/>
      <point x="134" y="288"/>
      <point x="134" y="362" type="curve"/>
      <point x="134" y="438"/>
      <point x="201" y="466"/>
      <point x="276" y="466" type="curve" smooth="yes"/>
      <point x="328" y="466"/>
      <point x="364" y="460"/>
      <point x="379" y="456" type="curve"/>
      <point x="379" y="266" type="line"/>
    </contour>
  </outline>
</glyph>
<glyph name="dje-cy" format="2">
  <advance width="568.876"/>
  <unicode hex="0452"/>
  <outline>
    <contour>
      <point x="335" y="-149" type="curve" smooth="yes"/>
      <point x="457" y="-77"/>
      <point x="494" y="39"/>
      <point x="494" y="183" type="curve" smooth="yes"/>
      <point x="494" y="192" type="line" smooth="yes"/>
      <point x="494" y="337"/>
      <point x="447" y="432"/>
      <point x="286" y="432" type="curve" smooth="yes"/>
      <point x="243" y="432"/>
      <point x="199" y="423"/>
      <point x="160" y="408" type="curve"/>
      <point x="160" y="566" type="line"/>
      <point x="342" y="566" type="line"/>
      <point x="342" y="622" type="line"/>
      <point x="160" y="622" type="line"/>
      <point x="160" y="776" type="line"/>
      <point x="85" y="763" type="line"/>
      <point x="85" y="622" type="line"/>
      <point x="7" y="622" type="line"/>
      <point x="7" y="566" type="line"/>
      <point x="85" y="566" type="line"/>
      <point x="85" y="0" type="line"/>
      <point x="160" y="0" type="line"/>
      <point x="160" y="343" type="line"/>
      <point x="173" y="349"/>
      <point x="232" y="365"/>
      <point x="275" y="365" type="curve" smooth="yes"/>
      <point x="386" y="365"/>
      <point x="420" y="313"/>
      <point x="420" y="173" type="curve" smooth="yes"/>
      <point x="420" y="164" type="line" smooth="yes"/>
      <point x="420" y="51"/>
      <point x="380" y="-39"/>
      <point x="300" y="-91" type="curve" smooth="yes"/>
      <point x="288" y="-100"/>
      <point x="275" y="-107"/>
      <point x="260" y="-114" type="curve"/>
      <point x="292" y="-171" type="line"/>
      <point x="308" y="-164"/>
      <point x="322" y="-157"/>
    </contour>
  </outline>
</glyph>
<glyph name="tshe-cy" format="2">
  <advance width="572.42"/>
  <unicode hex="045B"/>
  <outline>
    <contour>
      <point x="85" y="0" type="line"/>
      <point x="160" y="0" type="line"/>
      <point x="160" y="343" type="line"/>
      <point x="173" y="349"/>
      <point x="232" y="365"/>
      <point x="275" y="365" type="curve" smooth="yes"/>
      <point x="386" y="365"/>
      <point x="420" y="313"/>
      <point x="420" y="173" type="curve" smooth="yes"/>
      <point x="420" y="0" type="line"/>
      <point x="494" y="0" type="line"/>
      <point x="494" y="193" type="line" smooth="yes"/>
      <point x="494" y="336"/>
      <point x="448" y="432"/>
      <point x="286" y="432" type="curve" smooth="yes"/>
      <point x="243" y="432"/>
      <point x="199" y="423"/>
      <point x="160" y="408" type="curve"/>
      <point x="160" y="566" type="line"/>
      <point x="342" y="566" type="line"/>
      <point x="342" y="622" type="line"/>
      <point x="160" y="622" type="line"/>
      <point x="160" y="776" type="line"/>
      <point x="85" y="763" type="line"/>
      <point x="85" y="622" type="line"/>
      <point x="7" y="622" type="line"/>
      <point x="7" y="566" type="line"/>
      <point x="85" y="566" type="line"/>
    </contour>
  </outline>
</glyph>
<glyph name="iishorttail-cy" format="2">
  <advance width="596.332"/>
  <unicode hex="048B"/>
  <outline>
    <contour>
      <point x="475" y="-166" type="line"/>
      <point x="522" y="-125"/>
      <point x="573" y="-43"/>
      <point x="570" y="53" type="curve"/>
      <point x="570" y="63" type="line"/>
      <point x="505" y="63" type="line"/>
      <point x="505" y="518" type="line"/>
      <point x="437" y="518" type="line"/>
      <point x="347" y="422"/>
      <point x="222" y="235"/>
      <point x="155" y="119" type="curve"/>
      <point x="155" y="246"/>
      <point x="156" y="380"/>
      <point x="156" y="518" type="curve"/>
      <point x="82" y="518" type="line"/>
      <point x="82" y="0" type="line"/>
      <point x="151" y="0" type="line"/>
      <point x="219" y="119"/>
      <point x="352" y="322"/>
      <point x="432" y="420" type="curve"/>
      <point x="432" y="287"/>
      <point x="431" y="144"/>
      <point x="431" y="0" type="curve"/>
      <point x="494" y="0" type="line"/>
      <point x="488" y="-54"/>
      <point x="444" y="-111"/>
      <point x="424" y="-130" type="curve"/>
    </contour>
    <contour>
      <point x="294" y="604" type="curve" smooth="yes"/>
      <point x="369" y="604"/>
      <point x="424" y="648"/>
      <point x="436" y="726" type="curve"/>
      <point x="377" y="741" type="line"/>
      <point x="369" y="695"/>
      <point x="343" y="665"/>
      <point x="294" y="665" type="curve" smooth="yes"/>
      <point x="245" y="665"/>
      <point x="219" y="696"/>
      <point x="211" y="741" type="curve"/>
      <point x="152" y="726" type="line"/>
      <point x="164" y="648"/>
      <point x="219" y="604"/>
    </contour>
  </outline>
</glyph>
<glyph name="semisoftsign-cy" format="2">
  <advance width="527.902"/>
  <unicode hex="048D"/>
  <outline>
    <contour>
      <point x="283" y="-11" type="curve" smooth="yes"/>
      <point x="406" y="-11"/>
      <point x="498" y="36"/>
      <point x="498" y="157" type="curve" smooth="yes"/>
      <point x="498" y="278"/>
      <point x="403" y="324"/>
      <point x="291" y="324" type="curve" smooth="yes"/>
      <point x="243" y="324"/>
      <point x="192" y="315"/>
      <point x="169" y="309" type="curve"/>
      <point x="169" y="416" type="line"/>
      <point x="324" y="416" type="line"/>
      <point x="324" y="474" type="line"/>
      <point x="169" y="474" type="line"/>
      <point x="169" y="546" type="line"/>
      <point x="94" y="546" type="line"/>
      <point x="94" y="474" type="line"/>
      <point x="16" y="474" type="line"/>
      <point x="16" y="416" type="line"/>
      <point x="94" y="416" type="line"/>
      <point x="94" y="12" type="line"/>
      <point x="134" y="0"/>
      <point x="208" y="-11"/>
    </contour>
    <contour>
      <point x="282" y="53" type="curve" smooth="yes"/>
      <point x="232" y="53"/>
      <point x="186" y="59"/>
      <point x="169" y="63" type="curve"/>
      <point x="169" y="247" type="line"/>
      <point x="200" y="258"/>
      <point x="245" y="261"/>
      <point x="286" y="261" type="curve" smooth="yes"/>
      <point x="363" y="261"/>
      <point x="422" y="229"/>
      <point x="422" y="158" type="curve" smooth="yes"/>
      <point x="422" y="84"/>
      <point x="367" y="53"/>
    </contour>
  </outline>
</glyph>
<glyph name="Geupturn-cy" format="2">
  <advance width="492.374"/>
  <unicode hex="0490"/>
  <outline>
    <contour>
      <point x="89" y="0" type="line"/>
      <point x="167" y="0" type="line"/>
      <point x="167" y="626" type="line"/>
      <point x="474" y="626" type="line"/>
      <point x="474" y="825" type="line"/>
      <point x="400" y="825" type="line"/>
      <point x="400" y="693" type="line"/>
      <point x="89" y="693" type="line"/>
    </contour>
  </outline>
</glyph>
<glyph name="Gemiddlehook-cy" format="2">
  <advance width="609.55"/>
  <unicode hex="0494"/>
  <outline>
    <contour>
      <point x="311" y="-185" type="curve" smooth="yes"/>
      <point x="477" y="-185"/>
      <point x="572" y="-55"/>
      <point x="572" y="125" type="curve" smooth="yes"/>
      <point x="572" y="313"/>
      <point x="487" y="434"/>
      <point x="304" y="434" type="curve" smooth="yes"/>
      <point x="243" y="434"/>
      <point x="188" y="421"/>
      <point x="167" y="412" type="curve"/>
      <point x="167" y="626" type="line"/>
      <point x="486" y="626" type="line"/>
      <point x="486" y="693" type="line"/>
      <point x="89" y="693" type="line"/>
      <point x="89" y="0" type="line"/>
      <point x="167" y="0" type="line"/>
      <point x="167" y="346" type="line"/>
      <point x="183" y="352"/>
      <point x="238" y="367"/>
      <point x="297" y="367" type="curve" smooth="yes"/>
      <point x="421" y="367"/>
      <point x="492" y="281"/>
      <point x="492" y="125" type="curve" smooth="yes"/>
      <point x="492" y="-35"/>
      <point x="411" y="-118"/>
      <point x="303" y="-118" type="curve" smooth="yes"/>
      <point x="287" y="-118"/>
      <point x="268" y="-117"/>
      <point x="261" y="-115" type="curve"/>
      <point x="256" y="-181" type="line"/>
      <point x="265" y="-183"/>
      <point x="290" y="-185"/>
    </contour>
  </outline>
</glyph>
<glyph name="gemiddlehook-cy" format="2">
  <advance width="537.104"/>
  <unicode hex="0495"/>
  <outline>
    <contour>
      <point x="286" y="-186" type="curve" smooth="yes"/>
      <point x="425" y="-186"/>
      <point x="500" y="-84"/>
      <point x="500" y="71" type="curve" smooth="yes"/>
      <point x="500" y="225"/>
      <point x="434" y="319"/>
      <point x="283" y="319" type="curve" smooth="yes"/>
      <point x="241" y="319"/>
      <point x="194" y="313"/>
      <point x="159" y="299" type="curve"/>
      <point x="159" y="455" type="line"/>
      <point x="424" y="455" type="line"/>
      <point x="424" y="518" type="line"/>
      <point x="84" y="518" type="line"/>
      <point x="84" y="0" type="line"/>
      <point x="159" y="0" type="line"/>
      <point x="159" y="236" type="line"/>
      <point x="170" y="241"/>
      <point x="224" y="255"/>
      <point x="272" y="255" type="curve"/>
      <point x="370" y="255"/>
      <point x="424" y="203"/>
      <point x="424" y="72" type="curve" smooth="yes"/>
      <point x="424" y="-66"/>
      <point x="366" y="-123"/>
      <point x="282" y="-123" type="curve" smooth="yes"/>
      <point x="268" y="-123"/>
      <point x="256" y="-121"/>
      <point x="252" y="-120" type="curve"/>
      <point x="246" y="-182" type="line"/>
      <point x="254" y="-184"/>
      <point x="273" y="-186"/>
    </contour>
  </outline>
</glyph>
<glyph name="zhedescender-cy" format="2">
  <advance width="756.048"/>
  <unicode hex="0497"/>
  <outline>
    <contour>
      <point x="678" y="-143" type="line"/>
      <point x="748" y="-143" type="line"/>
      <point x="748" y="63" type="line"/>
      <point x="684" y="63" type="line"/>
      <point x="631" y="139"/>
      <point x="556" y="222"/>
      <point x="485" y="277" type="curve"/>
      <point x="549" y="345"/>
      <point x="638" y="447"/>
      <point x="696" y="518" type="curve"/>
      <point x="611" y="518" type="line"/>
      <point x="559" y="454"/>
      <point x="490" y="372"/>
      <point x="407" y="281" type="curve"/>
      <point x="407" y="518" type="line"/>
      <point x="333" y="518" type="line"/>
      <point x="333" y="281" type="line"/>
      <point x="250" y="373"/>
      <point x="181" y="454"/>
      <point x="129" y="518" type="curve"/>
      <point x="43" y="518" type="line"/>
      <point x="102" y="447"/>
      <point x="192" y="344"/>
      <point x="255" y="276" type="curve"/>
      <point x="165" y="208"/>
      <point x="71" y="93"/>
      <point x="17" y="0" type="curve"/>
      <point x="100" y="0" type="line"/>
      <point x="158" y="92"/>
      <point x="266" y="213"/>
      <point x="333" y="254" type="curve"/>
      <point x="333" y="0" type="line"/>
      <point x="407" y="0" type="line"/>
      <point x="407" y="254" type="line"/>
      <point x="474" y="213"/>
      <point x="581" y="93"/>
      <point x="640" y="0" type="curve"/>
      <point x="678" y="0" type="line"/>
    </contour>
  </outline>
</glyph>
<glyph name="Kadescender-cy" format="2">
  <advance width="640.426"/>
  <unicode hex="049A"/>
  <outline>
    <contour>
      <point x="558" y="-185" type="line"/>
      <point x="633" y="-185" type="line"/>
      <point x="633" y="67" type="line"/>
      <point x="556" y="67" type="line"/>
      <point x="479" y="175"/>
      <point x="346" y="307"/>
      <point x="251" y="368" type="curve"/>
      <point x="349" y="458"/>
      <point x="498" y="608"/>
      <point x="576" y="693" type="curve"/>
      <point x="483" y="693" type="line"/>
      <point x="417" y="618"/>
      <point x="266" y="468"/>
      <point x="167" y="377" type="curve"/>
      <point x="167" y="693" type="line"/>
      <point x="89" y="693" type="line"/>
      <point x="89" y="0" type="line"/>
      <point x="167" y="0" type="line"/>
      <point x="167" y="337" type="line"/>
      <point x="284" y="270"/>
      <point x="424" y="133"/>
      <point x="510" y="0" type="curve"/>
      <point x="558" y="0" type="line"/>
    </contour>
  </outline>
</glyph>
<glyph name="Kaverticalstroke-cy" format="2">
  <advance width="675.908"/>
  <unicode hex="049C"/>
  <outline>
    <contour>
      <point x="89" y="0" type="line"/>
      <point x="167" y="0" type="line"/>
      <point x="167" y="328" type="line"/>
      <point x="236" y="328" type="line"/>
      <point x="236" y="172" type="line"/>
      <point x="297" y="172" type="line"/>
      <point x="297" y="329" type="line"/>
      <point x="380" y="257"/>
      <point x="506" y="111"/>
      <point x="567" y="0" type="curve"/>
      <point x="655" y="0" type="line"/>
      <point x="588" y="127"/>
      <point x="465" y="274"/>
      <point x="361" y="368" type="curve"/>
      <point x="436" y="450"/>
      <point x="573" y="608"/>
      <point x="640" y="693" type="curve"/>
      <point x="549" y="693" type="line"/>
      <point x="499" y="628"/>
      <point x="383" y="488"/>
      <point x="297" y="390" type="curve"/>
      <point x="297" y="540" type="line"/>
      <point x="236" y="540" type="line"/>
      <point x="236" y="390" type="line"/>
      <point x="167" y="390" type="line"/>
      <point x="167" y="693" type="line"/>
      <point x="89" y="693" type="line"/>
    </contour>
  </outline>
</glyph>
<glyph name="kastroke-cy" format="2">
  <advance width="531.576"/>
  <unicode hex="049F"/>
  <outline>
    <contour>
      <point x="94" y="0" type="line"/>
      <point x="169" y="0" type="line"/>
      <point x="169" y="252" type="line"/>
      <point x="250" y="202"/>
      <point x="365" y="96"/>
      <point x="425" y="0" type="curve"/>
      <point x="513" y="0" type="line"/>
      <point x="459" y="93"/>
      <point x="344" y="214"/>
      <point x="253" y="275" type="curve"/>
      <point x="318" y="336"/>
      <point x="431" y="446"/>
      <point x="495" y="518" type="curve"/>
      <point x="406" y="518" type="line"/>
      <point x="359" y="466"/>
      <point x="247" y="353"/>
      <point x="169" y="278" type="curve"/>
      <point x="169" y="643" type="line"/>
      <point x="247" y="643" type="line"/>
      <point x="247" y="699" type="line"/>
      <point x="169" y="699" type="line"/>
      <point x="169" y="776" type="line"/>
      <point x="94" y="763" type="line"/>
      <point x="94" y="699" type="line"/>
      <point x="19" y="699" type="line"/>
      <point x="19" y="643" type="line"/>
      <point x="94" y="643" type="line"/>
    </contour>
  </outline>
</glyph>
<glyph name="Kabashkir-cy" format="2">
  <advance width="719.918"/>
  <unicode hex="04A0"/>
  <outline>
    <contour>
      <point x="200" y="0" type="line"/>
      <point x="278" y="0" type="line"/>
      <point x="278" y="337" type="line"/>
      <point x="395" y="270"/>
      <point x="535" y="133"/>
      <point x="621" y="0" type="curve"/>
      <point x="710" y="0" type="line"/>
      <point x="648" y="116"/>
      <point x="478" y="294"/>
      <point x="362" y="368" type="curve"/>
      <point x="460" y="458"/>
      <point x="610" y="608"/>
      <point x="688" y="693" type="curve"/>
      <point x="594" y="693" type="line"/>
      <point x="528" y="618"/>
      <point x="377" y="468"/>
      <point x="278" y="377" type="curve"/>
      <point x="278" y="693" type="line"/>
      <point x="18" y="693" type="line"/>
      <point x="18" y="626" type="line"/>
      <point x="200" y="626" type="line"/>
    </contour>
  </outline>
</glyph>
<glyph name="kabashkir-cy" format="2">
  <advance width="582.576"/>
  <unicode hex="04A1"/>
  <outline>
    <contour>
      <point x="152" y="0" type="line"/>
      <point x="227" y="0" type="line"/>
      <point x="227" y="251" type="line"/>
      <point x="303" y="205"/>
      <point x="417" y="96"/>
      <point x="478" y="0" type="curve"/>
      <point x="565" y="0" type="line"/>
      <point x="511" y="93"/>
      <point x="398" y="216"/>
      <point x="307" y="277" type="curve"/>
      <point x="369" y="336"/>
      <point x="484" y="450"/>
      <point x="545" y="518" type="curve"/>
      <point x="456" y="518" type="line"/>
      <point x="411" y="468"/>
      <point x="300" y="354"/>
      <point x="227" y="284" type="curve"/>
      <point x="227" y="518" type="line"/>
      <point x="16" y="518" type="line"/>
      <point x="16" y="457" type="line"/>
      <point x="152" y="457" type="line"/>
    </contour>
  </outline>
</glyph>
<glyph name="Tetse-cy" format="2">
  <advance width="838.882"/>
  <unicode hex="04B4"/>
  <outline>
    <contour>
      <point x="732" y="-185" type="line"/>
      <point x="806" y="-185" type="line"/>
      <point x="806" y="67" type="line"/>
      <point x="735" y="67" type="line"/>
      <point x="735" y="693" type="line"/>
      <point x="657" y="693" type="line"/>
      <point x="657" y="67" type="line"/>
      <point x="298" y="67" type="line"/>
      <point x="298" y="626" type="line"/>
      <point x="496" y="626" type="line"/>
      <point x="496" y="693" type="line"/>
      <point x="18" y="693" type="line"/>
      <point x="18" y="626" type="line"/>
      <point x="220" y="626" type="line"/>
      <point x="220" y="0" type="line"/>
      <point x="732" y="0" type="line"/>
    </contour>
  </outline>
</glyph>
<glyph name="Chedescender-cy" format="2">
  <advance width="629.198"/>
  <unicode hex="04B6"/>
  <outline>
    <contour>
      <point x="522" y="-185" type="line"/>
      <point x="597" y="-185" type="line"/>
      <point x="597" y="67" type="line"/>
      <point x="529" y="67" type="line"/>
      <point x="529" y="693" type="line"/>
      <point x="451" y="693" type="line"/>
      <point x="451" y="336" type="line"/>
      <point x="434" y="331"/>
      <point x="374" y="317"/>
      <point x="312" y="317" type="curve" smooth="yes"/>
      <point x="170" y="317"/>
      <point x="144" y="378"/>
      <point x="144" y="498" type="curve" smooth="yes"/>
      <point x="144" y="693" type="line"/>
      <point x="66" y="693" type="line"/>
      <point x="66" y="497" type="line" smooth="yes"/>
      <point x="66" y="357"/>
      <point x="89" y="249"/>
      <point x="305" y="249" type="curve" smooth="yes"/>
      <point x="371" y="249"/>
      <point x="428" y="262"/>
      <point x="451" y="268" type="curve"/>
      <point x="451" y="0" type="line"/>
      <point x="522" y="0" type="line"/>
    </contour>
  </outline>
</glyph>
<glyph name="chedescender-cy" format="2">
  <advance width="529.638"/>
  <unicode hex="04B7"/>
  <outline>
    <contour>
      <point x="431" y="-143" type="line"/>
      <point x="501" y="-143" type="line"/>
      <point x="501" y="63" type="line"/>
      <point x="438" y="63" type="line"/>
      <point x="438" y="518" type="line"/>
      <point x="363" y="518" type="line"/>
      <point x="363" y="271" type="line"/>
      <point x="338" y="263"/>
      <point x="304" y="255"/>
      <point x="243" y="255" type="curve" smooth="yes"/>
      <point x="164" y="255"/>
      <point x="121" y="284"/>
      <point x="121" y="375" type="curve" smooth="yes"/>
      <point x="121" y="518" type="line"/>
      <point x="46" y="518" type="line"/>
      <point x="46" y="371" type="line" smooth="yes"/>
      <point x="46" y="235"/>
      <point x="121" y="190"/>
      <point x="237" y="190" type="curve" smooth="yes"/>
      <point x="289" y="190"/>
      <point x="344" y="203"/>
      <point x="363" y="208" type="curve"/>
      <point x="363" y="0" type="line"/>
      <point x="431" y="0" type="line"/>
    </contour>
  </outline>
</glyph>
<glyph name="Cheverticalstroke-cy" format="2">
  <advance width="631.27"/>
  <unicode hex="04B8"/>
  <outline>
    <contour>
      <point x="464" y="0" type="line"/>
      <point x="542" y="0" type="line"/>
      <point x="542" y="693" type="line"/>
      <point x="464" y="693" type="line"/>
      <point x="464" y="336" type="line"/>
      <point x="450" y="331"/>
      <point x="393" y="318"/>
      <point x="336" y="316" type="curve"/>
      <point x="336" y="450" type="line"/>
      <point x="275" y="450" type="line"/>
      <point x="275" y="318" type="line"/>
      <point x="167" y="331"/>
      <point x="144" y="393"/>
      <point x="144" y="497" type="curve" smooth="yes"/>
      <point x="144" y="693" type="line"/>
      <point x="66" y="693" type="line"/>
      <point x="66" y="497" type="line" smooth="yes"/>
      <point x="66" y="369"/>
      <point x="90" y="262"/>
      <point x="275" y="250" type="curve"/>
      <point x="275" y="119" type="line"/>
      <point x="336" y="119" type="line"/>
      <point x="336" y="249" type="line"/>
      <point x="394" y="251"/>
      <point x="446" y="262"/>
      <point x="464" y="268" type="curve"/>
    </contour>
  </outline>
</glyph>
<glyph name="enhook-cy" format="2">
  <advance width="584.938"/>
  <unicode hex="04C8"/>
  <outline>
    <contour>
      <point x="369" y="-186" type="curve" smooth="yes"/>
      <point x="481" y="-186"/>
      <point x="501" y="-118"/>
      <point x="501" y="-22" type="curve"/>
      <point x="501" y="518" type="line"/>
      <point x="426" y="518" type="line"/>
      <point x="426" y="301" type="line"/>
      <point x="159" y="301" type="line"/>
      <point x="159" y="518" type="line"/>
      <point x="84" y="518" type="line"/>
      <point x="84" y="0" type="line"/>
      <point x="159" y="0" type="line"/>
      <point x="159" y="238" type="line"/>
      <point x="426" y="238" type="line"/>
      <point x="426" y="-31" type="line"/>
      <point x="426" y="-93"/>
      <point x="410" y="-122"/>
      <point x="360" y="-122" type="curve" smooth="yes"/>
      <point x="343" y="-122"/>
      <point x="330" y="-120"/>
      <point x="322" y="-117" type="curve"/>
      <point x="311" y="-177" type="line"/>
      <point x="324" y="-182"/>
      <point x="347" y="-186"/>
    </contour>
  </outline>
</glyph>
<glyph name="obarred-cy" format="2">
  <advance width="584.85"/>
  <unicode hex="04E9"/>
  <anchor x="292" y="518" name="top"/>
  <outline>
    <contour>
      <point x="292" y="-12" type="curve" smooth="yes"/>
      <point x="433" y="-12"/>
      <point x="531" y="95"/>
      <point x="531" y="259" type="curve" smooth="yes"/>
      <point x="531" y="420"/>
      <point x="434" y="530"/>
      <point x="292" y="530" type="curve" smooth="yes"/>
      <point x="153" y="530"/>
      <point x="54" y="422"/>
      <point x="54" y="259" type="curve" smooth="yes"/>
      <point x="54" y="97"/>
      <point x="151" y="-12"/>
    </contour>
    <contour>
      <point x="292" y="54" type="curve" smooth="yes"/>
      <point x="200" y="54"/>
      <point x="139" y="124"/>
      <point x="132" y="238" type="curve"/>
      <point x="452" y="238" type="line"/>
      <point x="446" y="124"/>
      <point x="385" y="54"/>
    </contour>
    <contour>
      <point x="133" y="295" type="line"/>
      <point x="144" y="399"/>
      <point x="203" y="464"/>
      <point x="292" y="464" type="curve" smooth="yes"/>
      <point x="382" y="464"/>
      <point x="440" y="397"/>
      <point x="451" y="295" type="curve"/>
    </contour>
  </outline>
</glyph>
<glyph name="prosgegrammeni" format="2">
  <advance width="368.362"/>
  <unicode hex="1FBE"/>
  <anchor x="163" y="0" name="_bottom"/>
  <outline>
    <contour>
      <point x="239" y="-190" type="curve" smooth="yes"/>
      <point x="250" y="-190"/>
      <point x="266" y="-188"/>
      <point x="272" y="-186" type="curve"/>
      <point x="272" y="-138" type="line"/>
      <point x="217" y="-138"/>
      <point x="198" y="-118"/>
      <point x="198" y="-68" type="curve"/>
      <point x="198" y="-55" type="line"/>
      <point x="128" y="-55" type="line"/>
      <point x="127" y="-61"/>
      <point x="127" y="-70"/>
      <point x="127" y="-74" type="curve" smooth="yes"/>
      <point x="127" y="-148"/>
      <point x="174" y="-190"/>
    </contour>
  </outline>
</glyph>
<glyph name="perispomeni" format="2">
  <advance width="377.368"/>
  <unicode hex="1FC0"/>
  <anchor x="188" y="518" name="_top"/>
  <outline>
    <contour>
      <point x="62" y="611" type="curve"/>
      <point x="111" y="611" type="line"/>
      <point x="113" y="635"/>
      <point x="122" y="688"/>
      <point x="188" y="688" type="curve" smooth="yes"/>
      <point x="255" y="688"/>
      <point x="264" y="635"/>
      <point x="265" y="611" type="curve"/>
      <point x="315" y="611" type="line"/>
      <point x="317" y="705"/>
      <point x="256" y="748"/>
      <point x="188" y="748" type="curve" smooth="yes"/>
      <point x="120" y="748"/>
      <point x="59" y="705"/>
    </contour>
  </outline>
</glyph>
<glyph name="dialytikaperispomeni" format="2">
  <advance width="394.24"/>
  <unicode hex="1FC1"/>
  <anchor x="197" y="518" name="_top"/>
  <outline>
    <contour>
      <point x="69" y="744" type="curve"/>
      <point x="116" y="744" type="line"/>
      <point x="117" y="765"/>
      <point x="133" y="814"/>
      <point x="197" y="814" type="curve"/>
      <point x="261" y="814"/>
      <point x="277" y="765"/>
      <point x="278" y="744" type="curve"/>
      <point x="325" y="744" type="line"/>
      <point x="327" y="832"/>
      <point x="263" y="871"/>
      <point x="197" y="871" type="curve"/>
      <point x="131" y="871"/>
      <point x="67" y="832"/>
    </contour>
    <contour>
      <point x="101" y="594" type="curve" smooth="yes"/>
      <point x="129" y="594"/>
      <point x="150" y="614"/>
      <point x="150" y="644" type="curve" smooth="yes"/>
      <point x="150" y="674"/>
      <point x="129" y="694"/>
      <point x="101" y="694" type="curve" smooth="yes"/>
      <point x="74" y="694"/>
      <point x="53" y="674"/>
      <point x="53" y="644" type="curve" smooth="yes"/>
      <point x="53" y="614"/>
      <point x="74" y="594"/>
    </contour>
    <contour>
      <point x="293" y="594" type="curve" smooth="yes"/>
      <point x="320" y="594"/>
      <point x="341" y="614"/>
      <point x="341" y="644" type="curve" smooth="yes"/>
      <point x="341" y="674"/>
      <point x="320" y="694"/>
      <point x="293" y="694" type="curve" smooth="yes"/>
      <point x="266" y="694"/>
      <point x="244" y="674"/>
      <point x="244" y="644" type="curve" smooth="yes"/>
      <point x="244" y="614"/>
      <point x="266" y="594"/>
    </contour>
  </outline>
</glyph>
<glyph name="psilioxia" format="2">
  <advance width="402"/>
  <unicode hex="1FCE"/>
  <anchor x="165" y="518" name="_top"/>
  <outline>
    <contour>
      <point x="227" y="577" type="line"/>
      <point x="357" y="741" type="line"/>
      <point x="297" y="783" type="line"/>
      <point x="184" y="608" type="line"/>
    </contour>
    <contour>
      <point x="60" y="576" type="line"/>
      <point x="118" y="615"/>
      <point x="172" y="674"/>
      <point x="172" y="723" type="curve" smooth="yes"/>
      <point x="172" y="760"/>
      <point x="150" y="782"/>
      <point x="116" y="782" type="curve" smooth="yes"/>
      <point x="83" y="782"/>
      <point x="64" y="759"/>
      <point x="64" y="730" type="curve" smooth="yes"/>
      <point x="64" y="709"/>
      <point x="78" y="690"/>
      <point x="100" y="683" type="curve"/>
      <point x="87" y="657"/>
      <point x="62" y="631"/>
      <point x="31" y="606" type="curve"/>
    </contour>
  </outline>
</glyph>
<glyph name="dasiavaria" format="2">
  <advance width="224"/>
  <unicode hex="1FDD"/>
  <anchor x="224" y="518" name="_top"/>
  <outline>
    <contour>
      <point x="317" y="577" type="line"/>
      <point x="360" y="608" type="line"/>
      <point x="247" y="783" type="line"/>
      <point x="186" y="741" type="line"/>
    </contour>
    <contour>
      <point x="150" y="576" type="curve"/>
      <point x="179" y="606" type="line"/>
      <point x="148" y="631"/>
      <point x="123" y="657"/>
      <point x="110" y="683" type="curve"/>
      <point x="132" y="690"/>
      <point x="147" y="709"/>
      <point x="147" y="730" type="curve" smooth="yes"/>
      <point x="147" y="759"/>
      <point x="127" y="782"/>
      <point x="94" y="782" type="curve" smooth="yes"/>
      <point x="60" y="782"/>
      <point x="38" y="760"/>
      <point x="38" y="723" type="curve" smooth="yes"/>
      <point x="38" y="674"/>
      <point x="93" y="615"/>
    </contour>
  </outline>
</glyph>
<glyph name="dialytikavaria" format="2">
  <advance width="395"/>
  <unicode hex="1FED"/>
  <anchor x="198" y="518" name="_top"/>
  <outline>
    <contour>
      <point x="226" y="580" type="line"/>
      <point x="270" y="605" type="line"/>
      <point x="185" y="774" type="line"/>
      <point x="127" y="741" type="line"/>
    </contour>
    <contour>
      <point x="52" y="624" type="curve" smooth="yes"/>
      <point x="79" y="624"/>
      <point x="101" y="644"/>
      <point x="101" y="675" type="curve" smooth="yes"/>
      <point x="101" y="706"/>
      <point x="79" y="726"/>
      <point x="52" y="726" type="curve" smooth="yes"/>
      <point x="24" y="726"/>
      <point x="2" y="706"/>
      <point x="2" y="675" type="curve" smooth="yes"/>
      <point x="2" y="644"/>
      <point x="24" y="624"/>
    </contour>
    <contour>
      <point x="344" y="624" type="curve" smooth="yes"/>
      <point x="371" y="624"/>
      <point x="393" y="644"/>
      <point x="393" y="675" type="curve" smooth="yes"/>
      <point x="393" y="706"/>
      <point x="371" y="726"/>
      <point x="344" y="726" type="curve" smooth="yes"/>
      <point x="316" y="726"/>
      <point x="295" y="706"/>
      <point x="295" y="675" type="curve" smooth="yes"/>
      <point x="295" y="644"/>
      <point x="316" y="624"/>
    </contour>
  </outline>
</glyph>
<glyph name="varia" format="2">
  <advance width="365.74"/>
  <unicode hex="1FEF"/>
  <anchor x="189" y="518" name="_top"/>
  <outline>
    <contour>
      <point x="230" y="583" type="line"/>
      <point x="265" y="625" type="line"/>
      <point x="103" y="775" type="line"/>
      <point x="55" y="718" type="line"/>
    </contour>
  </outline>
</glyph>
<glyph name="quotedblleft" format="2">
  <advance width="399.068"/>
  <unicode hex="201C"/>
  <outline>
    <contour>
      <point x="71" y="528" type="curve"/>
      <point x="151" y="528" type="line"/>
      <point x="150" y="541"/>
      <point x="150" y="552"/>
      <point x="150" y="566" type="curve" smooth="yes"/>
      <point x="150" y="614"/>
      <point x="162" y="670"/>
      <point x="194" y="734" type="curve"/>
      <point x="140" y="756" type="line"/>
      <point x="95" y="690"/>
      <point x="70" y="620"/>
      <point x="70" y="542" type="curve"/>
      <point x="70" y="539"/>
      <point x="70" y="533"/>
    </contour>
    <contour>
      <point x="239" y="528" type="curve"/>
      <point x="319" y="528" type="line"/>
      <point x="318" y="541"/>
      <point x="318" y="552"/>
      <point x="318" y="566" type="curve" smooth="yes"/>
      <point x="318" y="614"/>
      <point x="330" y="670"/>
      <point x="362" y="734" type="curve"/>
      <point x="308" y="756" type="line"/>
      <point x="263" y="690"/>
      <point x="238" y="620"/>
      <point x="238" y="542" type="curve"/>
      <point x="238" y="539"/>
      <point x="238" y="533"/>
    </contour>
  </outline>
</glyph>
<glyph name="hryvnia" format="2">
  <advance width="564"/>
  <unicode hex="20B4"/>
  <outline>
    <contour>
      <point x="307" y="-14" type="curve"/>
      <point x="408" y="-14"/>
      <point x="470" y="11"/>
      <point x="500" y="28" type="curve"/>
      <point x="478" y="92" type="line"/>
      <point x="442" y="73"/>
      <point x="397" y="51"/>
      <point x="310" y="51" type="curve" smooth="yes"/>
      <point x="209" y="51"/>
      <point x="161" y="93"/>
      <point x="161" y="157" type="curve" smooth="yes"/>
      <point x="161" y="185"/>
      <point x="167" y="209"/>
      <point x="180" y="230" type="curve"/>
      <point x="521" y="230" type="line"/>
      <point x="521" y="287" type="line"/>
      <point x="241" y="287" type="line"/>
      <point x="346" y="349"/>
      <point x="396" y="375"/>
      <point x="430" y="404" type="curve"/>
      <point x="521" y="404" type="line"/>
      <point x="521" y="462" type="line"/>
      <point x="469" y="462" type="line"/>
      <point x="479" y="482"/>
      <point x="482" y="504"/>
      <point x="482" y="530" type="curve" smooth="yes"/>
      <point x="482" y="611"/>
      <point x="436" y="706"/>
      <point x="269" y="706" type="curve"/>
      <point x="195" y="706"/>
      <point x="144" y="690"/>
      <point x="111" y="676" type="curve"/>
      <point x="131" y="614" type="line"/>
      <point x="156" y="624"/>
      <point x="197" y="641"/>
      <point x="267" y="641" type="curve" smooth="yes"/>
      <point x="351" y="641"/>
      <point x="407" y="599"/>
      <point x="407" y="527" type="curve" smooth="yes"/>
      <point x="407" y="497"/>
      <point x="401" y="479"/>
      <point x="390" y="462" type="curve"/>
      <point x="43" y="462" type="line"/>
      <point x="43" y="404" type="line"/>
      <point x="324" y="404" type="line"/>
      <point x="220" y="343"/>
      <point x="170" y="317"/>
      <point x="137" y="287" type="curve"/>
      <point x="43" y="287" type="line"/>
      <point x="43" y="230" type="line"/>
      <point x="100" y="230" type="line"/>
      <point x="90" y="214"/>
      <point x="83" y="177"/>
      <point x="83" y="156" type="curve" smooth="yes"/>
      <point x="83" y="70"/>
      <point x="137" y="-14"/>
    </contour>
  </outline>
</glyph>
<glyph name="numero" format="2">
  <advance width="1099.736"/>
  <unicode hex="2116"/>
  <outline>
    <contour>
      <point x="89" y="0" type="line"/>
      <point x="165" y="0" type="line"/>
      <point x="165" y="574" type="line"/>
      <point x="276" y="435"/>
      <point x="461" y="147"/>
      <point x="537" y="0" type="curve"/>
      <point x="602" y="0" type="line"/>
      <point x="602" y="693" type="line"/>
      <point x="526" y="693" type="line"/>
      <point x="526" y="153" type="line"/>
      <point x="446" y="303"/>
      <point x="281" y="546"/>
      <point x="158" y="693" type="curve"/>
      <point x="89" y="693" type="line"/>
    </contour>
    <contour>
      <point x="711" y="152" type="line"/>
      <point x="1043" y="152" type="line"/>
      <point x="1043" y="224" type="line"/>
      <point x="711" y="224" type="line"/>
    </contour>
    <contour>
      <point x="877" y="331" type="curve" smooth="yes"/>
      <point x="978" y="331"/>
      <point x="1052" y="406"/>
      <point x="1052" y="518" type="curve" smooth="yes"/>
      <point x="1052" y="630"/>
      <point x="978" y="705"/>
      <point x="877" y="705" type="curve" smooth="yes"/>
      <point x="776" y="705"/>
      <point x="702" y="630"/>
      <point x="702" y="518" type="curve" smooth="yes"/>
      <point x="702" y="406"/>
      <point x="776" y="331"/>
    </contour>
    <contour>
      <point x="877" y="386" type="curve" smooth="yes"/>
      <point x="811" y="386"/>
      <point x="768" y="438"/>
      <point x="768" y="518" type="curve" smooth="yes"/>
      <point x="768" y="597"/>
      <point x="811" y="650"/>
      <point x="877" y="650" type="curve" smooth="yes"/>
      <point x="943" y="650"/>
      <point x="986" y="597"/>
      <point x="986" y="518" type="curve" smooth="yes"/>
      <point x="986" y="438"/>
      <point x="943" y="386"/>
    </contour>
  </outline>
</glyph>
<glyph name="summation" format="2">
  <advance width="525.28"/>
  <unicode hex="2211"/>
  <outline>
    <contour>
      <point x="25" y="-109" type="line"/>
      <point x="494" y="-109" type="line"/>
      <point x="494" y="-42" type="line"/>
      <point x="111" y="-42" type="line"/>
      <point x="171" y="69"/>
      <point x="266" y="197"/>
      <point x="350" y="306" type="curve"/>
      <point x="267" y="417"/>
      <point x="165" y="561"/>
      <point x="125" y="626" type="curve"/>
      <point x="494" y="626" type="line"/>
      <point x="494" y="693" type="line"/>
      <point x="29" y="693" type="line"/>
      <point x="29" y="640" type="line"/>
      <point x="71" y="569"/>
      <point x="173" y="426"/>
      <point x="261" y="306" type="curve"/>
      <point x="175" y="190"/>
      <point x="74" y="47"/>
      <point x="25" y="-52" type="curve"/>
    </contour>
  </outline>
</glyph>
<glyph name="integral" format="2">
  <advance width="360.244"/>
  <unicode hex="222B"/>
  <outline>
    <contour>
      <point x="35" y="-185" type="curve" smooth="yes"/>
      <point x="149" y="-185"/>
      <point x="217" y="-118"/>
      <point x="217" y="15" type="curve" smooth="yes"/>
      <point x="217" y="576" type="line" smooth="yes"/>
      <point x="217" y="660"/>
      <point x="245" y="711"/>
      <point x="341" y="711" type="curve"/>
      <point x="351" y="711" type="line"/>
      <point x="351" y="774" type="line"/>
      <point x="346" y="775"/>
      <point x="334" y="776"/>
      <point x="326" y="776" type="curve"/>
      <point x="211" y="776"/>
      <point x="143" y="709"/>
      <point x="143" y="576" type="curve" smooth="yes"/>
      <point x="143" y="15" type="line"/>
      <point x="143" y="-68"/>
      <point x="116" y="-120"/>
      <point x="19" y="-120" type="curve" smooth="yes"/>
      <point x="9" y="-120" type="line"/>
      <point x="9" y="-183" type="line"/>
      <point x="15" y="-184"/>
      <point x="26" y="-185"/>
    </contour>
  </outline>
</glyph>
<glyph name="at.c2sc" format="2">
  <advance width="811"/>
  <outline>
    <contour>
      <point x="427" y="-69" type="curve" smooth="yes"/>
      <point x="484" y="-69"/>
      <point x="536" y="-59"/>
      <point x="557" y="-53" type="curve"/>
      <point x="550" y="7" type="line"/>
      <point x="519" y="-1"/>
      <point x="478" y="-7"/>
      <point x="427" y="-7" type="curve" smooth="yes"/>
      <point x="255" y="-7"/>
      <point x="129" y="95"/>
      <point x="129" y="293" type="curve" smooth="yes"/>
      <point x="129" y="481"/>
      <point x="246" y="591"/>
      <point x="413" y="591" type="curve" smooth="yes"/>
      <point x="581" y="591"/>
      <point x="682" y="475"/>
      <point x="682" y="334" type="curve" smooth="yes"/>
      <point x="682" y="250"/>
      <point x="661" y="158"/>
      <point x="598" y="158" type="curve" smooth="yes"/>
      <point x="571" y="158"/>
      <point x="555" y="173"/>
      <point x="555" y="212" type="curve"/>
      <point x="555" y="461" type="line"/>
      <point x="525" y="474"/>
      <point x="477" y="485"/>
      <point x="423" y="485" type="curve" smooth="yes"/>
      <point x="300" y="485"/>
      <point x="231" y="399"/>
      <point x="231" y="293" type="curve" smooth="yes"/>
      <point x="231" y="164"/>
      <point x="307" y="102"/>
      <point x="412" y="102" type="curve" smooth="yes"/>
      <point x="454" y="102"/>
      <point x="490" y="117"/>
      <point x="511" y="131" type="curve"/>
      <point x="526" y="113"/>
      <point x="554" y="102"/>
      <point x="588" y="102" type="curve" smooth="yes"/>
      <point x="683" y="102"/>
      <point x="754" y="181"/>
      <point x="754" y="331" type="curve" smooth="yes"/>
      <point x="754" y="531"/>
      <point x="601" y="653"/>
      <point x="413" y="653" type="curve" smooth="yes"/>
      <point x="223" y="653"/>
      <point x="57" y="535"/>
      <point x="57" y="293" type="curve" smooth="yes"/>
      <point x="57" y="43"/>
      <point x="223" y="-69"/>
    </contour>
    <contour>
      <point x="413" y="162" type="curve" smooth="yes"/>
      <point x="349" y="162"/>
      <point x="306" y="206"/>
      <point x="306" y="293" type="curve" smooth="yes"/>
      <point x="306" y="369"/>
      <point x="346" y="425"/>
      <point x="426" y="425" type="curve" smooth="yes"/>
      <point x="454" y="425"/>
      <point x="472" y="422"/>
      <point x="484" y="419" type="curve"/>
      <point x="484" y="223" type="line"/>
      <point x="484" y="213"/>
      <point x="485" y="190"/>
      <point x="489" y="179" type="curve"/>
      <point x="467" y="167"/>
      <point x="446" y="162"/>
    </contour>
  </outline>
</glyph>
<glyph name="brevecomb.cyr" format="2">
  <anchor x="187" y="518" name="_top"/>
  <anchor x="187" y="741" name="top"/>
  <outline>
    <contour>
      <point x="187" y="604" type="curve"/>
      <point x="263" y="604"/>
      <point x="317" y="648"/>
      <point x="329" y="726" type="curve"/>
      <point x="271" y="741" type="line"/>
      <point x="262" y="695"/>
      <point x="236" y="665"/>
      <point x="187" y="665" type="curve" smooth="yes"/>
      <point x="138" y="665"/>
      <point x="112" y="696"/>
      <point x="104" y="741" type="curve"/>
      <point x="45" y="726" type="line"/>
      <point x="58" y="648"/>
      <point x="112" y="604"/>
    </contour>
  </outline>
</glyph>
<glyph name="breveinvertedcomb.sc" format="2">
  <anchor x="0" y="580" name="_top"/>
  <anchor x="0" y="782" name="top"/>
  <outline>
    <contour>
      <point x="-127" y="645" type="curve"/>
      <point x="-77" y="645" type="line"/>
      <point x="-76" y="669"/>
      <point x="-67" y="722"/>
      <point x="0" y="722" type="curve" smooth="yes"/>
      <point x="66" y="722"/>
      <point x="75" y="669"/>
      <point x="77" y="645" type="curve"/>
      <point x="126" y="645" type="line"/>
      <point x="129" y="739"/>
      <point x="68" y="782"/>
      <point x="0" y="782" type="curve" smooth="yes"/>
      <point x="-68" y="782"/>
      <point x="-129" y="739"/>
    </contour>
  </outline>
</glyph>
<glyph name="chedescender-cy.sc" format="2">
  <advance width="586"/>
  <outline>
    <contour>
      <point x="476" y="-155" type="line"/>
      <point x="548" y="-155" type="line"/>
      <point x="548" y="63" type="line"/>
      <point x="486" y="63" type="line"/>
      <point x="486" y="580" type="line"/>
      <point x="411" y="580" type="line"/>
      <point x="411" y="285" type="line"/>
      <point x="394" y="281"/>
      <point x="341" y="271"/>
      <point x="289" y="271" type="curve" smooth="yes"/>
      <point x="167" y="271"/>
      <point x="142" y="318"/>
      <point x="142" y="417" type="curve" smooth="yes"/>
      <point x="142" y="580" type="line"/>
      <point x="67" y="580" type="line"/>
      <point x="67" y="416" type="line" smooth="yes"/>
      <point x="67" y="291"/>
      <point x="94" y="206"/>
      <point x="282" y="206" type="curve" smooth="yes"/>
      <point x="337" y="206"/>
      <point x="389" y="216"/>
      <point x="411" y="221" type="curve"/>
      <point x="411" y="0" type="line"/>
      <point x="476" y="0" type="line"/>
    </contour>
  </outline>
</glyph>
<glyph name="dasiaoxia.sc" format="2">
  <advance width="395"/>
  <anchor x="395" y="580" name="_topleft"/>
  <outline>
    <contour>
      <point x="198" y="394" type="line"/>
      <point x="328" y="558" type="line"/>
      <point x="268" y="600" type="line"/>
      <point x="155" y="425" type="line"/>
    </contour>
    <contour>
      <point x="102" y="393" type="curve"/>
      <point x="131" y="423" type="line"/>
      <point x="100" y="448"/>
      <point x="75" y="474"/>
      <point x="62" y="500" type="curve"/>
      <point x="84" y="507"/>
      <point x="98" y="526"/>
      <point x="98" y="547" type="curve" smooth="yes"/>
      <point x="98" y="576"/>
      <point x="79" y="599"/>
      <point x="46" y="599" type="curve" smooth="yes"/>
      <point x="12" y="599"/>
      <point x="-10" y="577"/>
      <point x="-10" y="540" type="curve" smooth="yes"/>
      <point x="-10" y="491"/>
      <point x="44" y="432"/>
    </contour>
  </outline>
</glyph>
<glyph name="dieresiscomb_acutecomb.sc" format="2">
  <anchor x="0" y="580" name="_top"/>
  <anchor x="0" y="816" name="top"/>
  <outline>
    <contour>
      <point x="-12" y="649" type="line"/>
      <point x="96" y="770" type="line"/>
      <point x="49" y="816" type="line"/>
      <point x="-50" y="683" type="line"/>
    </contour>
    <contour>
      <point x="-135" y="613" type="curve" smooth="yes"/>
      <point x="-108" y="613"/>
      <point x="-87" y="633"/>
      <point x="-87" y="663" type="curve" smooth="yes"/>
      <point x="-87" y="693"/>
      <point x="-108" y="713"/>
      <point x="-135" y="713" type="curve" smooth="yes"/>
      <point x="-162" y="713"/>
      <point x="-183" y="693"/>
      <point x="-183" y="663" type="curve" smooth="yes"/>
      <point x="-183" y="633"/>
      <point x="-162" y="613"/>
    </contour>
    <contour>
      <point x="135" y="613" type="curve" smooth="yes"/>
      <point x="162" y="613"/>
      <point x="183" y="633"/>
      <point x="183" y="663" type="curve" smooth="yes"/>
      <point x="183" y="693"/>
      <point x="162" y="713"/>
      <point x="135" y="713" type="curve" smooth="yes"/>
      <point x="108" y="713"/>
      <point x="87" y="693"/>
      <point x="87" y="663" type="curve" smooth="yes"/>
      <point x="87" y="633"/>
      <point x="108" y="613"/>
    </contour>
  </outline>
</glyph>
<glyph name="dieresiscomb_caroncomb.cap" format="2">
  <anchor x="0" y="673" name="_top"/>
  <anchor x="0" y="957" name="top"/>
  <outline>
    <contour>
      <point x="-1" y="821" type="line"/>
      <point x="119" y="920" type="line"/>
      <point x="94" y="957" type="line"/>
      <point x="-1" y="889" type="line"/>
      <point x="-96" y="957" type="line"/>
      <point x="-120" y="920" type="line"/>
    </contour>
    <contour>
      <point x="-135" y="754" type="curve" smooth="yes"/>
      <point x="-108" y="754"/>
      <point x="-87" y="774"/>
      <point x="-87" y="804" type="curve" smooth="yes"/>
      <point x="-87" y="834"/>
      <point x="-108" y="854"/>
      <point x="-135" y="854" type="curve" smooth="yes"/>
      <point x="-162" y="854"/>
      <point x="-183" y="834"/>
      <point x="-183" y="804" type="curve" smooth="yes"/>
      <point x="-183" y="774"/>
      <point x="-162" y="754"/>
    </contour>
    <contour>
      <point x="135" y="754" type="curve" smooth="yes"/>
      <point x="162" y="754"/>
      <point x="183" y="774"/>
      <point x="183" y="804" type="curve" smooth="yes"/>
      <point x="183" y="834"/>
      <point x="162" y="854"/>
      <point x="135" y="854" type="curve" smooth="yes"/>
      <point x="108" y="854"/>
      <point x="87" y="834"/>
      <point x="87" y="804" type="curve" smooth="yes"/>
      <point x="87" y="774"/>
      <point x="108" y="754"/>
    </contour>
  </outline>
</glyph>
<glyph name="dieresiscomb_caroncomb.sc" format="2">
  <anchor x="0" y="580" name="_top"/>
  <anchor x="0" y="817" name="top"/>
  <outline>
    <contour>
      <point x="-1" y="681" type="line"/>
      <point x="119" y="780" type="line"/>
      <point x="94" y="817" type="line"/>
      <point x="-1" y="749" type="line"/>
      <point x="-96" y="817" type="line"/>
      <point x="-120" y="780" type="line"/>
    </contour>
    <contour>
      <point x="-135" y="614" type="curve" smooth="yes"/>
      <point x="-108" y="614"/>
      <point x="-87" y="634"/>
      <point x="-87" y="664" type="curve" smooth="yes"/>
      <point x="-87" y="694"/>
      <point x="-108" y="714"/>
      <point x="-135" y="714" type="curve" smooth="yes"/>
      <point x="-162" y="714"/>
      <point x="-183" y="694"/>
      <point x="-183" y="664" type="curve" smooth="yes"/>
      <point x="-183" y="634"/>
      <point x="-162" y="614"/>
    </contour>
    <contour>
      <point x="135" y="614" type="curve" smooth="yes"/>
      <point x="162" y="614"/>
      <point x="183" y="634"/>
      <point x="183" y="664" type="curve" smooth="yes"/>
      <point x="183" y="694"/>
      <point x="162" y="714"/>
      <point x="135" y="714" type="curve" smooth="yes"/>
      <point x="108" y="714"/>
      <point x="87" y="694"/>
      <point x="87" y="664" type="curve" smooth="yes"/>
      <point x="87" y="634"/>
      <point x="108" y="614"/>
    </contour>
  </outline>
</glyph>
<glyph name="double_grave.sc" format="2">
  <anchor x="0" y="585" name="_top"/>
  <anchor x="0" y="818" name="top"/>
  <outline>
    <contour>
      <point x="84" y="622" type="line"/>
      <point x="126" y="654" type="line"/>
      <point x="7" y="817" type="line"/>
      <point x="-44" y="772" type="line"/>
    </contour>
    <contour>
      <point x="-78" y="622" type="line"/>
      <point x="-36" y="654" type="line"/>
      <point x="-155" y="817" type="line"/>
      <point x="-206" y="772" type="line"/>
    </contour>
  </outline>
</glyph>
<glyph name="e.sc" format="2">
  <advance width="507"/>
  <anchor x="254" y="0" name="bottom"/>
  <anchor x="456" y="10" name="ogonek"/>
  <anchor x="263" y="580" name="top"/>
  <anchor x="20" y="580" name="topleft"/>
  <outline>
    <contour>
      <point x="86" y="0" type="line"/>
      <point x="462" y="0" type="line"/>
      <point x="462" y="65" type="line"/>
      <point x="162" y="65" type="line"/>
      <point x="162" y="272" type="line"/>
      <point x="410" y="272" type="line"/>
      <point x="410" y="335" type="line"/>
      <point x="162" y="335" type="line"/>
      <point x="162" y="515" type="line"/>
      <point x="442" y="515" type="line"/>
      <point x="442" y="580" type="line"/>
      <point x="86" y="580" type="line"/>
    </contour>
  </outline>
</glyph>
<glyph name="exclam.c2sc" format="2">
  <advance width="255"/>
  <outline>
    <contour>
      <point x="108" y="174" type="curve"/>
      <point x="148" y="174" type="line"/>
      <point x="159" y="264"/>
      <point x="168" y="336"/>
      <point x="168" y="430" type="curve" smooth="yes"/>
      <point x="168" y="580" type="line"/>
      <point x="88" y="580" type="line"/>
      <point x="88" y="430" type="line" smooth="yes"/>
      <point x="88" y="336"/>
      <point x="96" y="264"/>
    </contour>
    <contour>
      <point x="128" y="-12" type="curve" smooth="yes"/>
      <point x="163" y="-12"/>
      <point x="187" y="14"/>
      <point x="187" y="47" type="curve" smooth="yes"/>
      <point x="187" y="80"/>
      <point x="163" y="106"/>
      <point x="128" y="106" type="curve" smooth="yes"/>
      <point x="92" y="106"/>
      <point x="68" y="80"/>
      <point x="68" y="47" type="curve" smooth="yes"/>
      <point x="68" y="14"/>
      <point x="92" y="-12"/>
    </contour>
  </outline>
</glyph>
<glyph name="five.numr" format="2">
  <advance width="359.456"/>
  <outline>
    <contour>
      <point x="151" y="307" type="curve" smooth="yes"/>
      <point x="262" y="307"/>
      <point x="307" y="356"/>
      <point x="307" y="425" type="curve" smooth="yes"/>
      <point x="307" y="503"/>
      <point x="253" y="545"/>
      <point x="130" y="552" type="curve"/>
      <point x="136" y="583"/>
      <point x="138" y="617"/>
      <point x="140" y="646" type="curve"/>
      <point x="289" y="646" type="line"/>
      <point x="289" y="699" type="line"/>
      <point x="90" y="699" type="line"/>
      <point x="87" y="630"/>
      <point x="80" y="572"/>
      <point x="71" y="505" type="curve"/>
      <point x="216" y="505"/>
      <point x="245" y="469"/>
      <point x="245" y="424" type="curve" smooth="yes"/>
      <point x="245" y="392"/>
      <point x="228" y="359"/>
      <point x="150" y="359" type="curve" smooth="yes"/>
      <point x="113" y="359"/>
      <point x="72" y="373"/>
      <point x="56" y="381" type="curve"/>
      <point x="44" y="330" type="line"/>
      <point x="63" y="319"/>
      <point x="110" y="307"/>
    </contour>
  </outline>
</glyph>
<glyph name="four.osf" format="2">
  <advance width="490"/>
  <outline>
    <contour>
      <point x="320" y="-102" type="line"/>
      <point x="393" y="-102" type="line"/>
      <point x="393" y="82" type="line"/>
      <point x="478" y="82" type="line"/>
      <point x="478" y="143" type="line"/>
      <point x="393" y="143" type="line"/>
      <point x="393" y="591" type="line"/>
      <point x="317" y="591" type="line"/>
      <point x="187" y="460"/>
      <point x="57" y="256"/>
      <point x="8" y="130" type="curve"/>
      <point x="8" y="82" type="line"/>
      <point x="320" y="82" type="line"/>
    </contour>
    <contour>
      <point x="83" y="143" type="line"/>
      <point x="133" y="261"/>
      <point x="231" y="412"/>
      <point x="320" y="506" type="curve"/>
      <point x="320" y="143" type="line"/>
    </contour>
  </outline>
</glyph>
<glyph name="g.sc" format="2">
  <advance width="594"/>
  <anchor x="357" y="0" name="bottom"/>
  <anchor x="336" y="580" name="top"/>
  <outline>
    <contour>
      <point x="343" y="-10" type="curve" smooth="yes"/>
      <point x="425" y="-10"/>
      <point x="489" y="6"/>
      <point x="524" y="20" type="curve"/>
      <point x="524" y="281" type="line"/>
      <point x="449" y="281" type="line"/>
      <point x="449" y="68" type="line"/>
      <point x="426" y="61"/>
      <point x="392" y="56"/>
      <point x="347" y="56" type="curve" smooth="yes"/>
      <point x="215" y="56"/>
      <point x="139" y="148"/>
      <point x="139" y="290" type="curve" smooth="yes"/>
      <point x="139" y="428"/>
      <point x="218" y="524"/>
      <point x="353" y="524" type="curve" smooth="yes"/>
      <point x="406" y="524"/>
      <point x="461" y="509"/>
      <point x="497" y="490" type="curve"/>
      <point x="520" y="551" type="line"/>
      <point x="479" y="573"/>
      <point x="423" y="591"/>
      <point x="344" y="591" type="curve" smooth="yes"/>
      <point x="181" y="591"/>
      <point x="61" y="474"/>
      <point x="61" y="290" type="curve" smooth="yes"/>
      <point x="61" y="106"/>
      <point x="169" y="-10"/>
    </contour>
  </outline>
</glyph>
<glyph name="gstroke.sc" format="2">
  <advance width="642"/>
  <outline>
    <contour>
      <point x="347" y="-10" type="curve" smooth="yes"/>
      <point x="448" y="-10"/>
      <point x="516" y="9"/>
      <point x="540" y="18" type="curve"/>
      <point x="540" y="173" type="line"/>
      <point x="611" y="173" type="line"/>
      <point x="611" y="229" type="line"/>
      <point x="540" y="229" type="line"/>
      <point x="540" y="303" type="line"/>
      <point x="465" y="303" type="line"/>
      <point x="465" y="229" type="line"/>
      <point x="365" y="229" type="line"/>
      <point x="365" y="173" type="line"/>
      <point x="465" y="173" type="line"/>
      <point x="465" y="66" type="line"/>
      <point x="449" y="61"/>
      <point x="411" y="55"/>
      <point x="357" y="55" type="curve" smooth="yes"/>
      <point x="213" y="55"/>
      <point x="139" y="147"/>
      <point x="139" y="291" type="curve" smooth="yes"/>
      <point x="139" y="446"/>
      <point x="231" y="525"/>
      <point x="356" y="525" type="curve" smooth="yes"/>
      <point x="419" y="525"/>
      <point x="478" y="510"/>
      <point x="513" y="488" type="curve"/>
      <point x="537" y="550" type="line"/>
      <point x="512" y="565"/>
      <point x="450" y="591"/>
      <point x="354" y="591" type="curve" smooth="yes"/>
      <point x="193" y="591"/>
      <point x="61" y="486"/>
      <point x="61" y="291" type="curve" smooth="yes"/>
      <point x="61" y="97"/>
      <point x="182" y="-10"/>
    </contour>
  </outline>
</glyph>
<glyph name="ii-cy.sc" format="2">
  <advance width="653"/>
  <anchor x="633" y="0" name="bottomright"/>
  <anchor x="335" y="580" name="top"/>
  <outline>
    <contour>
      <point x="86" y="0" type="line"/>
      <point x="151" y="0" type="line"/>
      <point x="219" y="116"/>
      <point x="382" y="345"/>
      <point x="491" y="465" type="curve"/>
      <point x="491" y="0" type="line"/>
      <point x="567" y="0" type="line"/>
      <point x="567" y="580" type="line"/>
      <point x="505" y="580" type="line"/>
      <point x="393" y="467"/>
      <point x="238" y="262"/>
      <point x="162" y="139" type="curve"/>
      <point x="162" y="580" type="line"/>
      <point x="86" y="580" type="line"/>
    </contour>
  </outline>
</glyph>
<glyph name="j.sc" format="2">
  <advance width="445"/>
  <anchor x="223" y="0" name="bottom"/>
  <anchor x="326" y="580" name="top"/>
  <outline>
    <contour>
      <point x="175" y="-10" type="curve" smooth="yes"/>
      <point x="314" y="-10"/>
      <point x="364" y="66"/>
      <point x="364" y="187" type="curve" smooth="yes"/>
      <point x="364" y="580" type="line"/>
      <point x="288" y="580" type="line"/>
      <point x="288" y="191" type="line" smooth="yes"/>
      <point x="288" y="96"/>
      <point x="252" y="56"/>
      <point x="170" y="56" type="curve" smooth="yes"/>
      <point x="127" y="56"/>
      <point x="84" y="69"/>
      <point x="48" y="93" type="curve"/>
      <point x="19" y="34" type="line"/>
      <point x="56" y="7"/>
      <point x="113" y="-10"/>
    </contour>
  </outline>
</glyph>
<glyph name="kahook-cy.sc" format="2">
  <advance width="566"/>
  <outline>
    <contour>
      <point x="293" y="-155" type="curve"/>
      <point x="445" y="-155"/>
      <point x="520" y="-48"/>
      <point x="520" y="89" type="curve" smooth="yes"/>
      <point x="520" y="257"/>
      <point x="404" y="319"/>
      <point x="262" y="324" type="curve"/>
      <point x="344" y="398"/>
      <point x="460" y="517"/>
      <point x="521" y="580" type="curve"/>
      <point x="432" y="580" type="line"/>
      <point x="372" y="512"/>
      <point x="243" y="388"/>
      <point x="162" y="312" type="curve"/>
      <point x="162" y="580" type="line"/>
      <point x="86" y="580" type="line"/>
      <point x="86" y="0" type="line"/>
      <point x="162" y="0" type="line"/>
      <point x="162" y="262" type="line"/>
      <point x="181" y="265"/>
      <point x="203" y="266"/>
      <point x="220" y="266" type="curve" smooth="yes"/>
      <point x="305" y="266"/>
      <point x="445" y="255"/>
      <point x="445" y="89" type="curve" smooth="yes"/>
      <point x="445" y="-31"/>
      <point x="380" y="-94"/>
      <point x="286" y="-94" type="curve" smooth="yes"/>
      <point x="267" y="-94"/>
      <point x="255" y="-93"/>
      <point x="248" y="-91" type="curve"/>
      <point x="244" y="-152" type="line"/>
      <point x="252" y="-154"/>
      <point x="278" y="-155"/>
    </contour>
  </outline>
</glyph>
<glyph name="kastroke-cy.sc" format="2">
  <advance width="583"/>
  <outline>
    <contour>
      <point x="100" y="0" type="line"/>
      <point x="176" y="0" type="line"/>
      <point x="176" y="275" type="line"/>
      <point x="279" y="218"/>
      <point x="401" y="108"/>
      <point x="475" y="0" type="curve"/>
      <point x="560" y="0" type="line"/>
      <point x="501" y="104"/>
      <point x="356" y="243"/>
      <point x="254" y="306" type="curve"/>
      <point x="346" y="382"/>
      <point x="472" y="500"/>
      <point x="546" y="580" type="curve"/>
      <point x="456" y="580" type="line"/>
      <point x="401" y="520"/>
      <point x="274" y="401"/>
      <point x="176" y="319" type="curve"/>
      <point x="176" y="465" type="line"/>
      <point x="264" y="465" type="line"/>
      <point x="264" y="519" type="line"/>
      <point x="176" y="519" type="line"/>
      <point x="176" y="589" type="line"/>
      <point x="100" y="589" type="line"/>
      <point x="100" y="519" type="line"/>
      <point x="30" y="519" type="line"/>
      <point x="30" y="465" type="line"/>
      <point x="100" y="465" type="line"/>
    </contour>
  </outline>
</glyph>
<glyph name="l.sc" format="2">
  <advance width="465"/>
  <anchor x="269" y="0" name="bottom"/>
  <anchor x="162" y="290" name="center"/>
  <anchor x="124" y="580" name="top"/>
  <anchor x="162" y="580" name="topright"/>
  <outline>
    <contour>
      <point x="86" y="0" type="line"/>
      <point x="435" y="0" type="line"/>
      <point x="435" y="66" type="line"/>
      <point x="162" y="66" type="line"/>
      <point x="162" y="580" type="line"/>
      <point x="86" y="580" type="line"/>
    </contour>
  </outline>
</glyph>
<glyph name="m.sc" format="2">
  <advance width="767"/>
  <anchor x="384" y="0" name="bottom"/>
  <anchor x="384" y="580" name="top"/>
  <outline>
    <contour>
      <point x="71" y="0" type="curve"/>
      <point x="146" y="0" type="line"/>
      <point x="151" y="171"/>
      <point x="160" y="320"/>
      <point x="173" y="465" type="curve"/>
      <point x="222" y="364"/>
      <point x="314" y="172"/>
      <point x="353" y="81" type="curve"/>
      <point x="413" y="81" type="line"/>
      <point x="468" y="200"/>
      <point x="540" y="358"/>
      <point x="594" y="463" type="curve"/>
      <point x="609" y="322"/>
      <point x="615" y="166"/>
      <point x="622" y="0" type="curve"/>
      <point x="696" y="0" type="line"/>
      <point x="687" y="206"/>
      <point x="672" y="426"/>
      <point x="653" y="580" type="curve"/>
      <point x="587" y="580" type="line"/>
      <point x="531" y="486"/>
      <point x="461" y="343"/>
      <point x="385" y="169" type="curve"/>
      <point x="327" y="300"/>
      <point x="244" y="477"/>
      <point x="184" y="580" type="curve"/>
      <point x="115" y="580" type="line"/>
      <point x="93" y="412"/>
      <point x="83" y="222"/>
    </contour>
  </outline>
</glyph>
<glyph name="p.sc" format="2">
  <advance width="539"/>
  <anchor x="270" y="0" name="bottom"/>
  <anchor x="270" y="580" name="top"/>
  <outline>
    <contour>
      <point x="86" y="0" type="line"/>
      <point x="162" y="0" type="line"/>
      <point x="162" y="216" type="line"/>
      <point x="233" y="216" type="line" smooth="yes"/>
      <point x="409" y="216"/>
      <point x="496" y="270"/>
      <point x="496" y="401" type="curve" smooth="yes"/>
      <point x="496" y="527"/>
      <point x="407" y="585"/>
      <point x="240" y="585" type="curve" smooth="yes"/>
      <point x="188" y="585"/>
      <point x="130" y="580"/>
      <point x="86" y="571" type="curve"/>
    </contour>
    <contour>
      <point x="162" y="281" type="line"/>
      <point x="162" y="514" type="line"/>
      <point x="180" y="517"/>
      <point x="219" y="519"/>
      <point x="244" y="519" type="curve" smooth="yes"/>
      <point x="357" y="519"/>
      <point x="418" y="484"/>
      <point x="418" y="401" type="curve" smooth="yes"/>
      <point x="418" y="302"/>
      <point x="342" y="281"/>
      <point x="231" y="281" type="curve" smooth="yes"/>
    </contour>
  </outline>
</glyph>
<glyph name="pemiddlehook-cy.sc" format="2">
  <advance width="939"/>
  <outline>
    <contour>
      <point x="660" y="-155" type="curve" smooth="yes"/>
      <point x="809" y="-155"/>
      <point x="894" y="-46"/>
      <point x="894" y="106" type="curve" smooth="yes"/>
      <point x="894" y="264"/>
      <point x="817" y="365"/>
      <point x="654" y="365" type="curve" smooth="yes"/>
      <point x="600" y="365"/>
      <point x="553" y="355"/>
      <point x="532" y="348" type="curve"/>
      <point x="532" y="580" type="line"/>
      <point x="86" y="580" type="line"/>
      <point x="86" y="0" type="line"/>
      <point x="162" y="0" type="line"/>
      <point x="162" y="517" type="line"/>
      <point x="456" y="517" type="line"/>
      <point x="456" y="0" type="line"/>
      <point x="532" y="0" type="line"/>
      <point x="532" y="286" type="line"/>
      <point x="547" y="291"/>
      <point x="595" y="302"/>
      <point x="646" y="302" type="curve" smooth="yes"/>
      <point x="755" y="302"/>
      <point x="819" y="235"/>
      <point x="819" y="106" type="curve" smooth="yes"/>
      <point x="819" y="-23"/>
      <point x="749" y="-94"/>
      <point x="653" y="-94" type="curve" smooth="yes"/>
      <point x="638" y="-94"/>
      <point x="622" y="-93"/>
      <point x="615" y="-91" type="curve"/>
      <point x="611" y="-152" type="line"/>
      <point x="621" y="-154"/>
      <point x="642" y="-155"/>
    </contour>
  </outline>
</glyph>
<glyph name="psilioxia.sc" format="2">
  <advance width="378"/>
  <anchor x="377" y="580" name="_topleft"/>
  <outline>
    <contour>
      <point x="181" y="394" type="line"/>
      <point x="311" y="558" type="line"/>
      <point x="251" y="600" type="line"/>
      <point x="138" y="425" type="line"/>
    </contour>
    <contour>
      <point x="14" y="393" type="line"/>
      <point x="72" y="432"/>
      <point x="126" y="491"/>
      <point x="126" y="540" type="curve" smooth="yes"/>
      <point x="126" y="577"/>
      <point x="104" y="599"/>
      <point x="70" y="599" type="curve" smooth="yes"/>
      <point x="37" y="599"/>
      <point x="18" y="576"/>
      <point x="18" y="547" type="curve" smooth="yes"/>
      <point x="18" y="526"/>
      <point x="32" y="507"/>
      <point x="54" y="500" type="curve"/>
      <point x="41" y="474"/>
      <point x="16" y="448"/>
      <point x="-15" y="423" type="curve"/>
    </contour>
  </outline>
</glyph>
<glyph name="psilivaria.sc" format="2">
  <advance width="412"/>
  <anchor x="413" y="580" name="_topleft"/>
  <outline>
    <contour>
      <point x="281" y="391" type="line"/>
      <point x="326" y="418" type="line"/>
      <point x="229" y="602" type="line"/>
      <point x="166" y="565" type="line"/>
    </contour>
    <contour>
      <point x="12" y="393" type="line"/>
      <point x="69" y="432"/>
      <point x="124" y="491"/>
      <point x="124" y="540" type="curve" smooth="yes"/>
      <point x="124" y="577"/>
      <point x="102" y="599"/>
      <point x="68" y="599" type="curve" smooth="yes"/>
      <point x="35" y="599"/>
      <point x="16" y="576"/>
      <point x="16" y="547" type="curve" smooth="yes"/>
      <point x="16" y="526"/>
      <point x="30" y="507"/>
      <point x="52" y="500" type="curve"/>
      <point x="39" y="474"/>
      <point x="14" y="448"/>
      <point x="-17" y="423" type="curve"/>
    </contour>
  </outline>
</glyph>
<glyph name="question.c2sc" format="2">
  <advance width="332"/>
  <outline>
    <contour>
      <point x="120" y="173" type="curve"/>
      <point x="181" y="173" type="line"/>
      <point x="180" y="180"/>
      <point x="180" y="186"/>
      <point x="180" y="207" type="curve" smooth="yes"/>
      <point x="180" y="315"/>
      <point x="309" y="363"/>
      <point x="309" y="480" type="curve" smooth="yes"/>
      <point x="309" y="553"/>
      <point x="250" y="605"/>
      <point x="160" y="605" type="curve" smooth="yes"/>
      <point x="96" y="605"/>
      <point x="46" y="587"/>
      <point x="15" y="569" type="curve"/>
      <point x="37" y="508" type="line"/>
      <point x="75" y="529"/>
      <point x="107" y="539"/>
      <point x="153" y="539" type="curve" smooth="yes"/>
      <point x="189" y="539"/>
      <point x="229" y="522"/>
      <point x="229" y="476" type="curve" smooth="yes"/>
      <point x="229" y="380"/>
      <point x="116" y="336"/>
      <point x="116" y="225" type="curve" smooth="yes"/>
      <point x="116" y="209"/>
      <point x="117" y="186"/>
    </contour>
    <contour>
      <point x="155" y="0" type="curve" smooth="yes"/>
      <point x="191" y="0"/>
      <point x="215" y="26"/>
      <point x="215" y="59" type="curve" smooth="yes"/>
      <point x="215" y="92"/>
      <point x="191" y="118"/>
      <point x="155" y="118" type="curve" smooth="yes"/>
      <point x="120" y="118"/>
      <point x="96" y="92"/>
      <point x="96" y="59" type="curve" smooth="yes"/>
      <point x="96" y="26"/>
      <point x="120" y="0"/>
    </contour>
  </outline>
</glyph>
